<svg width="134" height="529" viewBox="0 0 134 529" fill="none" xmlns="http://www.w3.org/2000/svg">
<path opacity="0.03" d="M134 24.546C134 24.546 51.5245 33.6751 59.2963 83.1676C67.0682 132.66 88.6112 135.728 83.9678 155.626C79.3244 175.525 31.4737 183.037 18.2555 198.113C-9.90039 230.217 -1.14381 265.192 15.4831 289.601C47.0326 335.912 101.678 299.169 119.274 337.794C130.599 362.65 121.524 401.577 78.5744 424.536C35.6248 447.495 7.14313 461.748 1.67406 510.243C1.67406 510.243 0.674164 521.163 4.13589 528.108H134V24.546Z" fill="black"/>
<path opacity="0.03" d="M133.705 0C133.705 0 37.1473 65.9068 83.5587 96.9293C119.449 120.924 107.541 153.624 101.178 164.506C89.2248 184.964 66.6137 192.241 50.6382 205.194C43.4042 211.059 28.868 242.036 41.8816 266.446C66.5758 312.757 102.701 271.298 116.472 309.923C125.334 334.779 131.765 381.377 66.1213 425.428C32.3751 448.077 10.211 462.64 5.93874 511.135C5.93874 511.135 5.15852 522.055 7.87034 529H133.705V0Z" fill="black"/>
</svg>
