<svg width="134" height="526" viewBox="0 0 134 526" fill="none" xmlns="http://www.w3.org/2000/svg">
<path opacity="0.03" d="M0 21.546C0 21.546 82.4755 30.6751 74.7037 80.1676C66.9318 129.66 45.3888 132.728 50.0322 152.626C54.6756 172.525 102.526 180.037 115.744 195.113C143.9 227.217 135.144 262.192 118.517 286.601C86.9674 332.912 32.3221 296.169 14.7256 334.794C3.40113 359.65 12.4759 398.577 55.4256 421.536C98.3752 444.495 126.857 458.748 132.326 507.243C132.326 507.243 133.326 518.163 129.864 525.108H0V21.546Z" fill="black"/>
<path opacity="0.03" d="M0.29541 -3C0.29541 -3 96.8527 62.9068 50.4413 93.9293C14.5514 117.924 26.4591 150.624 32.822 161.506C44.7752 181.964 67.3863 189.241 83.3618 202.194C90.5958 208.059 105.132 239.036 92.1184 263.446C67.4242 309.757 31.2995 268.298 17.5283 306.923C8.66568 331.779 2.23458 378.377 67.8787 422.428C101.625 445.077 123.789 459.64 128.061 508.135C128.061 508.135 128.841 519.055 126.13 526H0.29541V-3Z" fill="black"/>
</svg>
