<svg width="231" height="231" viewBox="0 0 231 231" fill="none" xmlns="http://www.w3.org/2000/svg">
<g clip-path="url(#clip0)">
<path d="M118.2 0C118.6 0.1 119.1 0.4 119.5 0.4C126.9 0.8 134.2 2.2 141.6 4.3C139.5 4.5 137.7 4.5 135.9 4.7C129.9 5.4 124.3 7.5 118.9 10.3C108.8 15.5 100 22.6 91.4 29.9C85.6 34.8 79.7 39.5 72.8 42.8C69.6 44.3 66.4 45.5 62.7 46C66.7 34.4 64.8 24 57 14.5C59.6 13.1 62.1 11.7 64.7 10.5C74.5 5.8 84.9 2.9 95.7 1.4C98.4 1 101.2 0.9 103.9 0.6C104.4 0.5 104.9 0.3 105.4 0.2C109.6 0 113.9 0 118.2 0Z" fill="#033D8B"/>
<path d="M9.49995 34C9.49995 20.5 20.5 9.59998 34.2 9.59998C47.8 9.59998 58.8999 20.7 58.7999 34.2C58.6999 48.1 47.6999 58.9 33.7999 58.8C20.2999 58.9 9.39995 47.7 9.49995 34Z" fill="#033D8B"/>
<path d="M196.2 221C182.4 221 171.6 210 171.6 196C171.7 182.7 182.8 171.8 196.2 171.8C209.8 171.8 220.8 182.8 220.9 196.4C220.9 210 209.9 221 196.2 221Z" fill="#033D8B"/>
<path d="M58.6 196.5C58.6 209.7 47.7 220.7 34.8 220.9C21 221.2 9.70004 210.5 9.60004 196.5C9.50004 182.8 20.6 171.8 34.2 171.8C47.7 171.8 58.6 182.8 58.6 196.5Z" fill="#00A74E"/>
<path d="M196.4 9.70003C209.5 9.70003 220.8 20.2 220.7 34.2C220.7 48.3 209.5 58.7 196 58.7C182.3 58.7 171.5 47.5 171.7 33.7C171.9 20.4 182.9 9.60003 196.4 9.70003Z" fill="#00A74E"/>
<path d="M89.5 226.6C92.9 226 96.3 225.7 99.7 224.9C107.4 223 114.2 219.2 120.8 214.8C128.3 209.9 135 203.9 142 198.2C147.4 193.8 153.1 189.6 159.6 187C162.1 186 164.8 185.3 167.7 184.4C163.6 196.3 165.4 206.7 173.2 216.2C165 221.2 156.3 224.6 147.2 226.9C127.9 231.9 108.6 231.9 89.5 226.6Z" fill="#033D8B"/>
<path d="M226.5 140.6C225.9 137.1 225.5 133.5 224.6 130C222.7 122.5 218.9 115.9 214.7 109.6C210 102.5 204.4 96 199 89.4C193.9 83.2 189 76.7 186.3 69C185.6 67.1 185.2 65.1 184.5 62.8C196.3 66.8 206.6 64.9 216.1 57.1C230.7 83.9 233.8 111.7 226.5 140.6Z" fill="#00A74E"/>
<path d="M45.3 167.6C40 165.7 34.6 165.1 29 166.1C23.5 167.1 18.7 169.5 14.2 173.3C9.09998 165.1 5.69998 156.3 3.39998 147.2C-1.30002 128.2 -1.50002 109.3 3.79998 90.4C3.99998 94.6 4.69998 98.7 6.09998 102.7C8.79998 110.8 13 118.1 18.1 124.9C22.6 130.9 27.5 136.7 32.2 142.5C36.8 148.2 41.1 154.1 43.7 161C44.5 163.1 45 165.2 45.6 167.4C45.6 167.4 45.5 167.5 45.3 167.6Z" fill="#00A74E"/>
<path d="M172.2 126.4C166.1 132.2 160 137.9 154.2 143.5C148.6 138 142.5 132.1 136.2 126C138.8 126 140.9 125.9 143.1 126C144.4 126.1 144.8 125.6 144.8 124.3C144.7 118.4 144.8 112.5 144.8 106.6C144.8 104.7 144.8 104.7 142.9 104.7C137.4 104.7 131.9 104.7 126.1 104.7C127.2 103.5 128.1 102.5 129 101.6C133.7 96.8 138.3 91.9 143 87.1C143.9 86.1 145 85.6 146.4 85.6C149.3 85.7 152.2 85.6 155 86C159.8 86.7 163.7 91.1 163.8 96.1C163.9 102.2 163.9 108.3 163.9 114.5C163.9 117.9 163.9 121.3 163.9 124.7C163.9 125.7 164.2 126.2 165.3 126.2C167.5 126.1 169.7 126.2 171.9 126.2C172.1 126.1 172.2 126.2 172.2 126.4Z" fill="#00A74E"/>
<path d="M126.2 58.2C132 64.2 137.8 70.1999 143.5 76.0999C137.9 81.7999 132 87.7 126 93.8C126 93.4 125.9 93.1 125.9 92.8C125.9 90.8 125.9 88.8 125.9 86.8C125.9 86 125.6 85.5999 124.7 85.5999C118.3 85.5999 111.9 85.5999 105.5 85.5999C104.1 85.5999 104.4 86.7 104.4 87.5C104.4 92 104.4 96.5999 104.4 101.1C104.4 102 104.4 102.9 104.4 104.2C103.3 103.2 102.5 102.5 101.6 101.7C96.8 97.0999 92.1001 92.5 87.3001 88C85.9001 86.7 85.1 85.3 85.2 83.3C85.3 81.6 85.3 79.8999 85.2 78.1999C84.8 72.0999 89.7 66.4 97 66.4C105.9 66.5 114.9 66.4 123.8 66.4C125.7 66.4 125.7 66.4 125.7 64.4C125.7 62.4 125.7 60.4 125.7 58.4C126 58.4 126.1 58.3 126.2 58.2Z" fill="#00A74E"/>
<path d="M104.5 172.5C98.4 166.3 92.5 160.4 86.7 154.5C92.4 148.8 98.3 142.9 104.3 136.8C104.3 137.3 104.4 137.7 104.4 138.1C104.4 139.7 104.4 141.3 104.4 143C104.4 145 104.4 145 106.5 145C112.2 145 118 145 123.7 145C123.9 145 124.1 145 124.2 145C125.4 145.1 125.9 144.7 125.9 143.4C125.8 138.5 125.9 133.6 125.9 128.7C125.9 128.1 125.9 127.4 125.9 126.4C126.5 126.9 126.9 127.2 127.3 127.5C132.7 132.7 138.1 138 143.5 143.2C144.6 144.3 145.2 145.5 145.1 147C144.9 149.9 145.2 152.8 144.6 155.6C143.5 160.9 139.1 164.1 133.6 164.1C124.6 164.1 115.6 164.1 106.6 164.1C104.6 164.1 104.6 164.1 104.6 166.1C104.5 168.2 104.5 170.2 104.5 172.5Z" fill="#00A74E"/>
<path d="M93.8 104.6C91.3 104.6 89.1 104.6 87 104.6C85.9 104.6 85.5 105 85.6 106.1C85.6 112.4 85.6 118.6 85.6 124.9C85.6 125.7 85.9 126.1 86.7 126.1C91.8 126.1 96.9 126.1 102.1 126.2C102.7 126.2 103.3 126.2 104.1 126.2C103.9 126.5 103.9 126.7 103.7 126.9C98.1 132.7 92.6 138.4 87 144.1C86.4 144.7 85.4 145.3 84.5 145.3C81.5 145.4 78.5 145.4 75.6 145.1C71 144.7 66.7 140.1 66.5 135.5C66.4 132 66.4 128.4 66.4 124.9C66.4 119.1 66.4 113.4 66.4 107.6C66.4 104.5 66.5 104.9 63.6 104.9C61.9 104.9 60.1 104.9 58 104.9C58.6 104.2 59 103.8 59.4 103.3C64.5 98.2 69.6 93 74.6 87.9C75.8 86.7 75.9 86.7 77.1 87.9C82.4 93 87.7 98.3 93 103.7C93.2 103.9 93.4 104.1 93.8 104.6Z" fill="#00A74E"/>
<path d="M183.6 168.2C184.1 163.4 185.6 159 188.4 155.3C191.9 150.6 195.8 146.2 199.6 141.8C204.1 136.6 208.4 131.2 210.4 124.5C210.9 122.8 211.3 121.1 211.8 119.1C216.9 125.9 220.5 133.1 221.8 141.4C223.5 152.6 220.4 162.7 215 172.5C205.4 165.3 195 163.8 183.6 168.2Z" fill="#033D8B"/>
<path d="M15.3 58.1C25 65.4 35.4 66.7 46.7 62.5C46.4 66 45.4 69.1 43.9 72.1C41.3 77.3 37.4 81.4 33.7 85.7C31 88.7 28.3 91.8 25.8 95C21.9 100.2 20.1 104.4 18.6 111.6C13.7 105.1 10.2 98.3 8.80001 90.4C6.70001 78.8 9.60001 68.2 15.3 58.1Z" fill="#033D8B"/>
<path d="M119.2 18.5999C126 13.4999 133.3 9.99994 141.5 8.69994C152.9 6.89994 164.9 10.9999 172.2 15.4999C165.1 24.9999 163.6 35.3999 168 46.9999C165.3 46.1999 162.8 45.6999 160.5 44.7999C155.8 42.9999 151.9 39.8999 148.1 36.5999C143.9 32.8999 139.7 29.0999 135.3 25.5999C130.8 22.0999 125.7 19.7999 120 18.7999C119.8 18.7999 119.6 18.6999 119.2 18.5999Z" fill="#00A74E"/>
<path d="M111.2 212C103.9 217.4 96.3 221.1 87.5 222.1C75.4 223.5 64 218.8 58.1 215.1C65.1 205.6 66.7 195.3 62.5 184.2C62.6 184.1 62.6 184 62.7 183.8C64.7 184.3 66.8 184.7 68.8 185.4C74.4 187.4 79 191.1 83.4 195C86.6 197.9 89.7 200.8 93.1 203.5C98.2 207.8 104.1 210.8 111.2 212Z" fill="#00A74E"/>
</g>
<defs>
<clipPath id="clip0">
<rect width="230.3" height="230.6" fill="white"/>
</clipPath>
</defs>
</svg>
