<svg width="464" height="240" viewBox="0 0 464 240" fill="none" xmlns="http://www.w3.org/2000/svg">
<path fill-rule="evenodd" clip-rule="evenodd" d="M441.3 185H22.2C10 185 0 194.5 0 206.2C0 217.9 10 227.4 22.2 227.4H441.3C453.5 227.4 463.5 217.9 463.5 206.2C463.5 194.5 453.5 185 441.3 185Z" fill="#70AC43"/>
<path fill-rule="evenodd" clip-rule="evenodd" d="M60.6 162.8C59.2 164.1 58.3 165.7 58.3 167.6C58.3 168.6 58.5 169.5 59 170.3C57.2 171.9 56.1 174 56.1 176.3C56.1 181.2 61.1 185.1 67.2 185.1C73.3 185.1 78.3 181.2 78.3 176.3C78.3 174 77.2 171.9 75.4 170.3C75.8 169.5 76.1 168.6 76.1 167.6C76.1 165.8 75.2 164.1 73.8 162.8C73.9 162.4 73.9 162 73.9 161.6C73.9 159.4 72.8 157.4 71 156.2C70 152.5 68.3 145.5 67 145.5C65.6 145.5 64.2 153.1 63.3 156.3C61.7 157.5 60.6 159.4 60.6 161.6C60.4 162 60.5 162.4 60.6 162.8Z" fill="#5E8F3F"/>
<path fill-rule="evenodd" clip-rule="evenodd" d="M62.8 162.8C61.9 164.1 61.3 165.7 61.3 167.6C61.3 168.6 61.5 169.5 61.7 170.3C60.5 171.9 59.8 174 59.8 176.3C59.8 181.2 63 185.1 67 185.1C71 185.1 74.2 181.2 74.2 176.3C74.2 174 73.5 171.9 72.3 170.3C72.6 169.5 72.7 168.6 72.7 167.6C72.7 165.8 72.1 164.1 71.2 162.8C71.3 162.4 71.3 162 71.3 161.6C71.3 159.4 70.6 157.4 69.4 156.2C68.8 152.5 67.7 145.5 66.8 145.5C65.9 145.5 65 153.1 64.4 156.3C63.3 157.5 62.6 159.4 62.6 161.6C62.8 162 62.8 162.4 62.8 162.8Z" fill="#70AC43"/>
<path fill-rule="evenodd" clip-rule="evenodd" d="M66 162.8C65.8 164.1 65.6 165.7 65.6 167.6C65.6 168.6 65.6 169.5 65.7 170.3C65.4 171.9 65.2 174 65.2 176.3C65.2 181.2 66.1 185.1 67.1 185.1C68.2 185.1 69 181.2 69 176.3C69 174 68.8 171.9 68.5 170.3C68.6 169.5 68.6 168.6 68.6 167.6C68.6 165.8 68.4 164.1 68.2 162.8C68.2 162.4 68.2 162 68.2 161.6C68.2 159.4 68 157.4 67.7 156.2C67.5 152.5 67.2 145.5 67 145.5C66.8 145.5 66.5 153.1 66.4 156.3C66.1 157.5 65.9 159.4 65.9 161.6C65.9 162 65.9 162.4 66 162.8Z" fill="#81C141"/>
<path fill-rule="evenodd" clip-rule="evenodd" d="M57.7 182.1H76.5L73.2 194.7H60.9L57.7 182.1Z" fill="#105656"/>
<path fill-rule="evenodd" clip-rule="evenodd" d="M57.7 182.1H76.5L75.6 185.3H58.5L57.7 182.1Z" fill="#0A3738"/>
<path d="M77.2 181.8H57V184.6H77.2V181.8Z" fill="#177173"/>
<path fill-rule="evenodd" clip-rule="evenodd" d="M23.1 162.8C21.7 164.1 20.8 165.7 20.8 167.6C20.8 168.6 21 169.5 21.5 170.3C19.7 171.9 18.6 174 18.6 176.3C18.6 181.2 23.6 185.1 29.7 185.1C35.8 185.1 40.8 181.2 40.8 176.3C40.8 174 39.7 171.9 37.9 170.3C38.3 169.5 38.6 168.6 38.6 167.6C38.6 165.8 37.7 164.1 36.3 162.8C36.4 162.4 36.4 162 36.4 161.6C36.4 159.4 35.3 157.4 33.5 156.2C32.5 152.5 30.8 145.5 29.5 145.5C28.1 145.5 26.7 153.1 25.8 156.3C24.2 157.5 23.1 159.4 23.1 161.6C23 162 23.1 162.4 23.1 162.8Z" fill="#5E8F3F"/>
<path fill-rule="evenodd" clip-rule="evenodd" d="M25.4 162.8C24.5 164.1 23.9 165.7 23.9 167.6C23.9 168.6 24.1 169.5 24.3 170.3C23.1 171.9 22.4 174 22.4 176.3C22.4 181.2 25.6 185.1 29.6 185.1C33.6 185.1 36.8 181.2 36.8 176.3C36.8 174 36.1 171.9 34.9 170.3C35.2 169.5 35.3 168.6 35.3 167.6C35.3 165.8 34.7 164.1 33.8 162.8C33.9 162.4 33.9 162 33.9 161.6C33.9 159.4 33.2 157.4 32 156.2C31.4 152.5 30.3 145.5 29.4 145.5C28.5 145.5 27.6 153.1 27 156.3C25.9 157.5 25.2 159.4 25.2 161.6C25.4 162 25.4 162.4 25.4 162.8Z" fill="#70AC43"/>
<path fill-rule="evenodd" clip-rule="evenodd" d="M28.5 162.8C28.3 164.1 28.1 165.7 28.1 167.6C28.1 168.6 28.1 169.5 28.2 170.3C27.9 171.9 27.7 174 27.7 176.3C27.7 181.2 28.6 185.1 29.6 185.1C30.7 185.1 31.5 181.2 31.5 176.3C31.5 174 31.3 171.9 31 170.3C31.1 169.5 31.1 168.6 31.1 167.6C31.1 165.8 30.9 164.1 30.7 162.8C30.7 162.4 30.7 162 30.7 161.6C30.7 159.4 30.5 157.4 30.2 156.2C30 152.5 29.7 145.5 29.5 145.5C29.3 145.5 29 153.1 28.9 156.3C28.6 157.5 28.4 159.4 28.4 161.6C28.5 162 28.5 162.4 28.5 162.8Z" fill="#81C141"/>
<path fill-rule="evenodd" clip-rule="evenodd" d="M20.2 182.1H39.1L35.8 194.7H23.5L20.2 182.1Z" fill="#105656"/>
<path fill-rule="evenodd" clip-rule="evenodd" d="M20.2 182.1H39.1L38.2 185.3H21.1L20.2 182.1Z" fill="#0A3738"/>
<path d="M39.8 181.8H19.6V184.6H39.8V181.8Z" fill="#177173"/>
<path fill-rule="evenodd" clip-rule="evenodd" d="M416 199.4H47.4C36.7 199.4 27.9 208.4 27.9 219.4C27.9 230.4 36.7 239.4 47.4 239.4H416C426.7 239.4 435.5 230.4 435.5 219.4C435.6 208.4 426.8 199.4 416 199.4Z" fill="#8B8B8B"/>
<path opacity="0.5" fill-rule="evenodd" clip-rule="evenodd" d="M234.7 221L168.1 203.6L133 208.2L109.7 231.6L222.1 231.8L234.7 221Z" fill="#6F6E6F"/>
<path d="M362.1 13.6H92.1V180.3H362.1V13.6Z" fill="#EAF4F7"/>
<path d="M352.9 88.3H101.3V108.8H352.9V88.3Z" fill="#268DA0"/>
<path d="M352.9 119.1H101.3V139.6H352.9V119.1Z" fill="#268DA0"/>
<path d="M352.9 149.8H101.3V170.3H352.9V149.8Z" fill="#268DA0"/>
<path d="M352.9 26.8H101.3V47.3H352.9V26.8Z" fill="#268DA0"/>
<path opacity="0.5" d="M352.9 26.8H101.3V33.5H352.9V26.8Z" fill="#868686"/>
<path d="M352.9 57.5H101.3V78H352.9V57.5Z" fill="#268DA0"/>
<path opacity="0.5" d="M352.9 57.5H101.3V64.2H352.9V57.5Z" fill="#868686"/>
<path opacity="0.5" d="M352.9 88.3H101.3V95H352.9V88.3Z" fill="#868686"/>
<path opacity="0.5" d="M352.9 149.8H101.3V156.5H352.9V149.8Z" fill="#868686"/>
<path opacity="0.5" d="M352.9 119.1H101.3V125.8H352.9V119.1Z" fill="#868686"/>
<path d="M362.1 180.3H92.1V197.3H362.1V180.3Z" fill="#156673"/>
<path fill-rule="evenodd" clip-rule="evenodd" d="M273.7 195.5H283.7C284.4 195.5 285.1 194.9 285.1 194.1V190.8C285.1 190 284.5 189.4 283.7 189.4H273.7C273 189.4 272.3 190 272.3 190.8V194.1C272.4 194.9 273 195.5 273.7 195.5Z" fill="#1C7F90"/>
<path fill-rule="evenodd" clip-rule="evenodd" d="M287.4 195.5H297.4C298.1 195.5 298.8 194.9 298.8 194.1V190.8C298.8 190 298.2 189.4 297.4 189.4H287.4C286.7 189.4 286 190 286 190.8V194.1C286.1 194.9 286.7 195.5 287.4 195.5Z" fill="#1C7F90"/>
<path fill-rule="evenodd" clip-rule="evenodd" d="M301.1 195.5H311.1C311.8 195.5 312.5 194.9 312.5 194.1V190.8C312.5 190 311.9 189.4 311.1 189.4H301.1C300.4 189.4 299.7 190 299.7 190.8V194.1C299.7 194.9 300.4 195.5 301.1 195.5Z" fill="#1C7F90"/>
<path fill-rule="evenodd" clip-rule="evenodd" d="M314.8 195.5H324.8C325.5 195.5 326.2 194.9 326.2 194.1V190.8C326.2 190 325.6 189.4 324.8 189.4H314.8C314.1 189.4 313.4 190 313.4 190.8V194.1C313.4 194.9 314 195.5 314.8 195.5Z" fill="#1C7F90"/>
<path fill-rule="evenodd" clip-rule="evenodd" d="M328.5 195.5H338.5C339.2 195.5 339.9 194.9 339.9 194.1V190.8C339.9 190 339.3 189.4 338.5 189.4H328.5C327.8 189.4 327.1 190 327.1 190.8V194.1C327.1 194.9 327.7 195.5 328.5 195.5Z" fill="#1C7F90"/>
<path fill-rule="evenodd" clip-rule="evenodd" d="M342.2 195.5H352.2C352.9 195.5 353.6 194.9 353.6 194.1V190.8C353.6 190 353 189.4 352.2 189.4H342.2C341.5 189.4 340.8 190 340.8 190.8V194.1C340.8 194.9 341.4 195.5 342.2 195.5Z" fill="#1C7F90"/>
<path fill-rule="evenodd" clip-rule="evenodd" d="M355.9 195.5H360.5V189.5H355.9C355.2 189.5 354.5 190.1 354.5 190.9V194.2C354.5 194.9 355.2 195.5 355.9 195.5Z" fill="#1C7F90"/>
<path fill-rule="evenodd" clip-rule="evenodd" d="M259.9 195.5H269.9C270.6 195.5 271.3 194.9 271.3 194.1V190.8C271.3 190 270.7 189.4 269.9 189.4H259.9C259.1 189.4 258.5 190 258.5 190.8V194.1C258.5 194.9 259.1 195.5 259.9 195.5Z" fill="#1C7F90"/>
<path fill-rule="evenodd" clip-rule="evenodd" d="M308 188.1H318C318.7 188.1 319.4 187.5 319.4 186.7V183.4C319.4 182.6 318.8 182 318 182H308C307.3 182 306.6 182.6 306.6 183.4V186.7C306.6 187.5 307.2 188.1 308 188.1Z" fill="#1C7F90"/>
<path fill-rule="evenodd" clip-rule="evenodd" d="M280.6 188.1H290.6C291.3 188.1 292 187.5 292 186.7V183.4C292 182.6 291.4 182 290.6 182H280.6C279.9 182 279.2 182.6 279.2 183.4V186.7C279.2 187.5 279.9 188.1 280.6 188.1Z" fill="#1C7F90"/>
<path fill-rule="evenodd" clip-rule="evenodd" d="M294.3 188.1H304.3C305 188.1 305.7 187.5 305.7 186.7V183.4C305.7 182.6 305.1 182 304.3 182H294.3C293.6 182 292.9 182.6 292.9 183.4V186.7C292.9 187.5 293.5 188.1 294.3 188.1Z" fill="#1C7F90"/>
<path fill-rule="evenodd" clip-rule="evenodd" d="M321.7 188.1H331.7C332.4 188.1 333.1 187.5 333.1 186.7V183.4C333.1 182.6 332.5 182 331.7 182H321.7C320.9 182 320.3 182.6 320.3 183.4V186.7C320.3 187.5 320.9 188.1 321.7 188.1Z" fill="#1C7F90"/>
<path fill-rule="evenodd" clip-rule="evenodd" d="M335.4 188.1H345.4C346.1 188.1 346.8 187.5 346.8 186.7V183.4C346.8 182.6 346.2 182 345.4 182H335.4C334.7 182 334 182.6 334 183.4V186.7C334 187.5 334.6 188.1 335.4 188.1Z" fill="#1C7F90"/>
<path fill-rule="evenodd" clip-rule="evenodd" d="M349.1 188H359.1C359.8 188 360.5 187.4 360.5 186.6V183.3C360.5 182.5 359.9 181.9 359.1 181.9H349.1C348.4 181.9 347.7 182.5 347.7 183.3V186.6C347.7 187.4 348.4 188 349.1 188Z" fill="#1C7F90"/>
<path fill-rule="evenodd" clip-rule="evenodd" d="M266.8 188H276.8C277.5 188 278.2 187.4 278.2 186.6V183.3C278.2 182.5 277.6 181.9 276.8 181.9H266.8C266.1 181.9 265.4 182.5 265.4 183.3V186.6C265.4 187.4 266 188 266.8 188Z" fill="#1C7F90"/>
<path opacity="0.5" d="M277.7 13.6H267.3V197.2H277.7V13.6Z" fill="#868686"/>
<path fill-rule="evenodd" clip-rule="evenodd" d="M180.8 195.5H170.8C170.1 195.5 169.4 194.9 169.4 194.1V190.8C169.4 190 170 189.4 170.8 189.4H180.8C181.5 189.4 182.2 190 182.2 190.8V194.1C182.2 194.9 181.6 195.5 180.8 195.5Z" fill="#1C7F90"/>
<path fill-rule="evenodd" clip-rule="evenodd" d="M167.1 195.5H157.1C156.4 195.5 155.7 194.9 155.7 194.1V190.8C155.7 190 156.3 189.4 157.1 189.4H167.1C167.8 189.4 168.5 190 168.5 190.8V194.1C168.5 194.9 167.9 195.5 167.1 195.5Z" fill="#1C7F90"/>
<path fill-rule="evenodd" clip-rule="evenodd" d="M153.5 195.5H143.5C142.8 195.5 142.1 194.9 142.1 194.1V190.8C142.1 190 142.7 189.4 143.5 189.4H153.5C154.2 189.4 154.9 190 154.9 190.8V194.1C154.8 194.9 154.2 195.5 153.5 195.5Z" fill="#1C7F90"/>
<path fill-rule="evenodd" clip-rule="evenodd" d="M139.8 195.5H129.8C129.1 195.5 128.4 194.9 128.4 194.1V190.8C128.4 190 129 189.4 129.8 189.4H139.8C140.5 189.4 141.2 190 141.2 190.8V194.1C141.1 194.9 140.5 195.5 139.8 195.5Z" fill="#1C7F90"/>
<path fill-rule="evenodd" clip-rule="evenodd" d="M126.1 195.5H116.1C115.4 195.5 114.7 194.9 114.7 194.1V190.8C114.7 190 115.3 189.4 116.1 189.4H126.1C126.8 189.4 127.5 190 127.5 190.8V194.1C127.4 194.9 126.8 195.5 126.1 195.5Z" fill="#1C7F90"/>
<path fill-rule="evenodd" clip-rule="evenodd" d="M112.4 195.5H102.4C101.7 195.5 101 194.9 101 194.1V190.8C101 190 101.6 189.4 102.4 189.4H112.4C113.1 189.4 113.8 190 113.8 190.8V194.1C113.7 194.9 113.1 195.5 112.4 195.5Z" fill="#1C7F90"/>
<path fill-rule="evenodd" clip-rule="evenodd" d="M98.6 195.5H94V189.5H98.6C99.3 189.5 100 190.1 100 190.9V194.2C100 194.9 99.4 195.5 98.6 195.5Z" fill="#1C7F90"/>
<path fill-rule="evenodd" clip-rule="evenodd" d="M194.7 195.5H184.7C183.9 195.5 183.3 194.9 183.3 194.1V190.8C183.3 190 183.9 189.4 184.7 189.4H194.7C195.4 189.4 196.1 190 196.1 190.8V194.1C196.1 194.9 195.5 195.5 194.7 195.5Z" fill="#1C7F90"/>
<path fill-rule="evenodd" clip-rule="evenodd" d="M146.6 188.1H136.6C135.9 188.1 135.2 187.5 135.2 186.7V183.4C135.2 182.6 135.8 182 136.6 182H146.6C147.3 182 148 182.6 148 183.4V186.7C147.9 187.5 147.3 188.1 146.6 188.1Z" fill="#1C7F90"/>
<path fill-rule="evenodd" clip-rule="evenodd" d="M173.9 188.1H163.9C163.2 188.1 162.5 187.5 162.5 186.7V183.4C162.5 182.6 163.1 182 163.9 182H173.9C174.6 182 175.3 182.6 175.3 183.4V186.7C175.3 187.5 174.7 188.1 173.9 188.1Z" fill="#1C7F90"/>
<path fill-rule="evenodd" clip-rule="evenodd" d="M160.3 188.1H150.3C149.6 188.1 148.9 187.5 148.9 186.7V183.4C148.9 182.6 149.5 182 150.3 182H160.3C161 182 161.7 182.6 161.7 183.4V186.7C161.6 187.5 161 188.1 160.3 188.1Z" fill="#1C7F90"/>
<path fill-rule="evenodd" clip-rule="evenodd" d="M132.9 188.1H122.9C122.1 188.1 121.5 187.5 121.5 186.7V183.4C121.5 182.6 122.1 182 122.9 182H132.9C133.7 182 134.3 182.6 134.3 183.4V186.7C134.2 187.5 133.6 188.1 132.9 188.1Z" fill="#1C7F90"/>
<path fill-rule="evenodd" clip-rule="evenodd" d="M119.2 188.1H109.2C108.5 188.1 107.8 187.5 107.8 186.7V183.4C107.8 182.6 108.4 182 109.2 182H119.2C120 182 120.6 182.6 120.6 183.4V186.7C120.5 187.5 119.9 188.1 119.2 188.1Z" fill="#1C7F90"/>
<path fill-rule="evenodd" clip-rule="evenodd" d="M105.5 188H95.5C94.7 188 94.1 187.4 94.1 186.6V183.3C94.1 182.5 94.7 181.9 95.5 181.9H105.5C106.2 181.9 106.9 182.5 106.9 183.3V186.6C106.8 187.4 106.2 188 105.5 188Z" fill="#1C7F90"/>
<path fill-rule="evenodd" clip-rule="evenodd" d="M187.8 188H177.8C177.1 188 176.4 187.4 176.4 186.6V183.3C176.4 182.5 177 181.9 177.8 181.9H187.8C188.5 181.9 189.2 182.5 189.2 183.3V186.6C189.1 187.4 188.5 188 187.8 188Z" fill="#1C7F90"/>
<path opacity="0.5" d="M264.3 0H172.5V32.2H264.3V0Z" fill="#868686"/>
<path d="M316.8 16.8H310.7V177H316.8V16.8Z" fill="#EAF4F7"/>
<path d="M136.2 16.8H130.1V177H136.2V16.8Z" fill="#EAF4F7"/>
<path opacity="0.5" fill-rule="evenodd" clip-rule="evenodd" d="M159.8 13.6L92.1 80.7V197.3H166.7V13.6H159.8Z" fill="#868686"/>
<path opacity="0.5" fill-rule="evenodd" clip-rule="evenodd" d="M159.7 197.3H173.2V180.3V13.6H159.7V180.3V197.3Z" fill="#868686"/>
<path d="M270 6.59998H166.7V199.4H270V6.59998Z" fill="#F7FBF9"/>
<path d="M264.4 11.6H172.4V149.4H264.4V11.6Z" fill="#3AB7CE"/>
<path d="M200.1 9.90002H198.2V170.1H200.1V9.90002Z" fill="#F7FBF9"/>
<path d="M239.6 9.90002H237.7V170.1H239.6V9.90002Z" fill="#F7FBF9"/>
<path d="M267.1 28.2H169.7V29.4H267.1V28.2Z" fill="#F7FBF9"/>
<path d="M267.1 48.7H169.7V49.9H267.1V48.7Z" fill="#F7FBF9"/>
<path d="M267.1 69.2H169.7V70.4H267.1V69.2Z" fill="#F7FBF9"/>
<path d="M267.1 89.7H169.7V90.9H267.1V89.7Z" fill="#F7FBF9"/>
<path d="M267.1 110.3H169.7V111.5H267.1V110.3Z" fill="#F7FBF9"/>
<path d="M267.1 130.8H169.7V132H267.1V130.8Z" fill="#F7FBF9"/>
<path opacity="0.5" d="M264.3 29.3H172.5V31.7H264.3V29.3Z" fill="#868686"/>
<path opacity="0.5" d="M264.3 49.8H172.5V52.1H264.3V49.8Z" fill="#868686"/>
<path opacity="0.5" d="M264.3 70.3H172.5V72.9H264.3V70.3Z" fill="#868686"/>
<path opacity="0.5" d="M264.3 90.8H172.5V93.3H264.3V90.8Z" fill="#868686"/>
<path opacity="0.5" d="M264.3 111.3H172.5V114H264.3V111.3Z" fill="#868686"/>
<path opacity="0.5" d="M264.3 131.9H172.5V134.4H264.3V131.9Z" fill="#868686"/>
<path d="M264.9 160.6H172.4V199H264.9V160.6Z" fill="#3AB7CE"/>
<path fill-rule="evenodd" clip-rule="evenodd" d="M221.8 174.1V199H220.3V174.1H209V199H205.5V162.2H209V171.9H233.6V162.2H237V199H233.6V174.1H221.8Z" fill="#34A5B9"/>
<path d="M243.7 159.1H238.3V199H243.7V159.1Z" fill="#F7FBF9"/>
<path d="M199.5 159.1H194.1V199H199.5V159.1Z" fill="#F7FBF9"/>
<path d="M219.8 171.6H217.4V199H219.8V171.6Z" fill="#F7FBF9"/>
<path d="M239.2 169.6H198.1V172H239.2V169.6Z" fill="#F7FBF9"/>
<path opacity="0.5" fill-rule="evenodd" clip-rule="evenodd" d="M263 158.8L172.2 159.3L166.7 164.8V199.4H229.1L266.9 161.7L263 158.8Z" fill="#868686"/>
<path d="M266.9 154.3H169.9V161.7H266.9V154.3Z" fill="#F7FBF9"/>
<path opacity="0.5" d="M266.9 161.7H169.9V167.6H266.9V161.7Z" fill="#868686"/>
<path fill-rule="evenodd" clip-rule="evenodd" d="M201.2 221.5H190.3H174.5H145.7H136.1C134.9 218.1 131.8 215.7 128.2 215.7C124.6 215.7 121.5 218.1 120.3 221.5H110.4C110 219.8 110 217.8 110.3 215.9C110.6 213.2 111.7 210.6 113.5 209.2C119.1 204.6 123.9 199.4 126.7 196.6C132.2 190.9 132.7 190.4 144.5 190.3V181.7C144.5 180.9 145.1 180.3 145.8 180.3H205C205.7 180.3 206.3 180.9 206.3 181.7V220.1C206.3 220.9 205.7 221.5 205 221.5H201.2Z" fill="white"/>
<path fill-rule="evenodd" clip-rule="evenodd" d="M148.8 221.5H145.8V190.3H147.4V220.2C147.4 220.9 148.1 221.5 148.8 221.5Z" fill="#D6E5F1"/>
<path fill-rule="evenodd" clip-rule="evenodd" d="M201.2 221.5H190.3H174.5H145.7C132.3 221.5 123.8 221.5 110.4 221.5C110 219.8 110 217.8 110.3 215.9C110.3 215.7 110.3 215.5 110.4 215.4H206.2V220.1C206.2 220.9 205.6 221.5 204.9 221.5H201.2Z" fill="#D6E5F1"/>
<path fill-rule="evenodd" clip-rule="evenodd" d="M143.5 193.9C144.2 193.9 144.9 194.5 144.9 195.3V205C144.9 205.7 144.3 206.4 143.5 206.4L127.1 206.5C125 206.5 125.2 204.6 126.2 203C127.8 200.3 130.3 197.4 133 195.1C134.7 193.5 141.3 193.9 143.5 193.9Z" fill="#086E95"/>
<path fill-rule="evenodd" clip-rule="evenodd" d="M170.4 193.9H153.7C152.7 193.9 151.9 194.7 151.9 195.7V204.5C151.9 205.5 152.7 206.3 153.7 206.3H170.4C171.4 206.3 172.2 205.5 172.2 204.5V195.7C172.2 194.8 171.4 193.9 170.4 193.9Z" fill="#086E95"/>
<path d="M131.6 231.1C136.35 231.1 140.2 227.25 140.2 222.5C140.2 217.75 136.35 213.9 131.6 213.9C126.85 213.9 123 217.75 123 222.5C123 227.25 126.85 231.1 131.6 231.1Z" fill="#044D76"/>
<path d="M131.6 227.8C134.527 227.8 136.9 225.427 136.9 222.5C136.9 219.573 134.527 217.2 131.6 217.2C128.673 217.2 126.3 219.573 126.3 222.5C126.3 225.427 128.673 227.8 131.6 227.8Z" fill="#7499B0"/>
<path d="M131.6 226.1C133.588 226.1 135.2 224.488 135.2 222.5C135.2 220.512 133.588 218.9 131.6 218.9C129.612 218.9 128 220.512 128 222.5C128 224.488 129.612 226.1 131.6 226.1Z" fill="#57788B"/>
<path d="M131.6 218.3C131.766 218.3 131.9 218.166 131.9 218C131.9 217.834 131.766 217.7 131.6 217.7C131.434 217.7 131.3 217.834 131.3 218C131.3 218.166 131.434 218.3 131.6 218.3Z" fill="#043D54"/>
<path d="M131.6 227.2C131.766 227.2 131.9 227.066 131.9 226.9C131.9 226.734 131.766 226.6 131.6 226.6C131.434 226.6 131.3 226.734 131.3 226.9C131.3 227.066 131.434 227.2 131.6 227.2Z" fill="#043D54"/>
<path d="M127.1 222.8C127.266 222.8 127.4 222.666 127.4 222.5C127.4 222.334 127.266 222.2 127.1 222.2C126.934 222.2 126.8 222.334 126.8 222.5C126.8 222.666 126.934 222.8 127.1 222.8Z" fill="#043D54"/>
<path d="M136.1 222.8C136.266 222.8 136.4 222.666 136.4 222.5C136.4 222.334 136.266 222.2 136.1 222.2C135.934 222.2 135.8 222.334 135.8 222.5C135.8 222.666 135.934 222.8 136.1 222.8Z" fill="#043D54"/>
<path d="M128.4 219.6C128.566 219.6 128.7 219.466 128.7 219.3C128.7 219.134 128.566 219 128.4 219C128.234 219 128.1 219.134 128.1 219.3C128.1 219.466 128.234 219.6 128.4 219.6Z" fill="#043D54"/>
<path d="M134.8 225.9C134.966 225.9 135.1 225.766 135.1 225.6C135.1 225.434 134.966 225.3 134.8 225.3C134.634 225.3 134.5 225.434 134.5 225.6C134.5 225.766 134.634 225.9 134.8 225.9Z" fill="#043D54"/>
<path d="M128.4 225.9C128.566 225.9 128.7 225.766 128.7 225.6C128.7 225.434 128.566 225.3 128.4 225.3C128.234 225.3 128.1 225.434 128.1 225.6C128.1 225.766 128.234 225.9 128.4 225.9Z" fill="#043D54"/>
<path d="M134.8 219.6C134.966 219.6 135.1 219.466 135.1 219.3C135.1 219.134 134.966 219 134.8 219C134.634 219 134.5 219.134 134.5 219.3C134.5 219.466 134.634 219.6 134.8 219.6Z" fill="#043D54"/>
<path d="M188.5 231.1C193.25 231.1 197.1 227.25 197.1 222.5C197.1 217.75 193.25 213.9 188.5 213.9C183.75 213.9 179.9 217.75 179.9 222.5C179.9 227.25 183.75 231.1 188.5 231.1Z" fill="#044D76"/>
<path d="M188.5 227.8C191.427 227.8 193.8 225.427 193.8 222.5C193.8 219.573 191.427 217.2 188.5 217.2C185.573 217.2 183.2 219.573 183.2 222.5C183.2 225.427 185.573 227.8 188.5 227.8Z" fill="#7499B0"/>
<path d="M188.5 226.1C190.488 226.1 192.1 224.488 192.1 222.5C192.1 220.512 190.488 218.9 188.5 218.9C186.512 218.9 184.9 220.512 184.9 222.5C184.9 224.488 186.512 226.1 188.5 226.1Z" fill="#57788B"/>
<path d="M188.5 218.3C188.666 218.3 188.8 218.166 188.8 218C188.8 217.834 188.666 217.7 188.5 217.7C188.334 217.7 188.2 217.834 188.2 218C188.2 218.166 188.334 218.3 188.5 218.3Z" fill="#043D54"/>
<path d="M188.5 227.2C188.666 227.2 188.8 227.066 188.8 226.9C188.8 226.734 188.666 226.6 188.5 226.6C188.334 226.6 188.2 226.734 188.2 226.9C188.2 227.066 188.334 227.2 188.5 227.2Z" fill="#043D54"/>
<path d="M184.1 222.8C184.266 222.8 184.4 222.666 184.4 222.5C184.4 222.334 184.266 222.2 184.1 222.2C183.934 222.2 183.8 222.334 183.8 222.5C183.8 222.666 183.934 222.8 184.1 222.8Z" fill="#043D54"/>
<path d="M193 222.8C193.166 222.8 193.3 222.666 193.3 222.5C193.3 222.334 193.166 222.2 193 222.2C192.834 222.2 192.7 222.334 192.7 222.5C192.7 222.666 192.834 222.8 193 222.8Z" fill="#043D54"/>
<path d="M185.4 219.6C185.566 219.6 185.7 219.466 185.7 219.3C185.7 219.134 185.566 219 185.4 219C185.234 219 185.1 219.134 185.1 219.3C185.1 219.466 185.234 219.6 185.4 219.6Z" fill="#043D54"/>
<path d="M191.7 225.9C191.866 225.9 192 225.766 192 225.6C192 225.434 191.866 225.3 191.7 225.3C191.534 225.3 191.4 225.434 191.4 225.6C191.4 225.766 191.534 225.9 191.7 225.9Z" fill="#043D54"/>
<path d="M185.4 225.9C185.566 225.9 185.7 225.766 185.7 225.6C185.7 225.434 185.566 225.3 185.4 225.3C185.234 225.3 185.1 225.434 185.1 225.6C185.1 225.766 185.234 225.9 185.4 225.9Z" fill="#043D54"/>
<path d="M191.7 219.6C191.866 219.6 192 219.466 192 219.3C192 219.134 191.866 219 191.7 219C191.534 219 191.4 219.134 191.4 219.3C191.4 219.466 191.534 219.6 191.7 219.6Z" fill="#043D54"/>
<path opacity="0.5" fill-rule="evenodd" clip-rule="evenodd" d="M143.5 193.9C144.2 193.9 144.9 194.5 144.9 195.3V205C144.9 205.7 144.3 206.4 143.5 206.4H143.4C143.5 206.2 143.5 206 143.5 205.9V196.2C143.5 195.5 142.9 194.8 142.1 194.8C140.2 194.8 135.1 194.5 132.6 195.4L132.9 195.1C134.7 193.5 141.3 193.9 143.5 193.9Z" fill="#086E95"/>
<path opacity="0.5" fill-rule="evenodd" clip-rule="evenodd" d="M170.4 193.9H153.7C153.1 193.9 152.5 194.2 152.2 194.7C152.3 194.7 152.3 194.7 152.4 194.7H169.1C170.1 194.7 170.9 195.5 170.9 196.5V205.3C170.9 205.7 170.8 206 170.6 206.3C171.5 206.2 172.2 205.4 172.2 204.5V195.7C172.2 194.8 171.4 193.9 170.4 193.9Z" fill="#086E95"/>
<path fill-rule="evenodd" clip-rule="evenodd" d="M196.6 193.9H179.9C178.9 193.9 178.1 194.7 178.1 195.7V204.5C178.1 205.5 178.9 206.3 179.9 206.3H196.6C197.6 206.3 198.4 205.5 198.4 204.5V195.7C198.4 194.8 197.6 193.9 196.6 193.9Z" fill="#086E95"/>
<path opacity="0.5" fill-rule="evenodd" clip-rule="evenodd" d="M196.6 193.9H179.9C179.3 193.9 178.7 194.2 178.4 194.7C178.5 194.7 178.5 194.7 178.6 194.7H195.3C196.3 194.7 197.1 195.5 197.1 196.5V205.3C197.1 205.7 197 206 196.8 206.3C197.7 206.2 198.4 205.4 198.4 204.5V195.7C198.4 194.8 197.6 193.9 196.6 193.9Z" fill="#086E95"/>
<path opacity="0.5" fill-rule="evenodd" clip-rule="evenodd" d="M429.9 192.5L387.7 191.9L387.8 183.1L384.3 177.9L362.6 199.6H422.8L429.9 192.5Z" fill="#6F6E6F"/>
<path d="M424.1 190.7H389V194.6H424.1V190.7Z" fill="#5E4224"/>
<path d="M427.6 189.5H423.7V199.6H427.6V189.5Z" fill="#87623A"/>
<path d="M389.2 189.5H385.3V199.6H389.2V189.5Z" fill="#87623A"/>
<path d="M427 177H423.2V189.5H427V177Z" fill="#87623A"/>
<path d="M389.7 177H385.9V189.5H389.7V177Z" fill="#87623A"/>
<path d="M430 189H383.1V192.8H430V189Z" fill="#D2A677"/>
<path d="M428.7 177.7H384.3V181.7H428.7V177.7Z" fill="#D2A677"/>
<path d="M428.7 183.6H384.3V187.6H428.7V183.6Z" fill="#D2A677"/>
<path fill-rule="evenodd" clip-rule="evenodd" d="M425.2 185C424.9 185 424.6 185.3 424.6 185.6C424.6 185.9 424.9 186.2 425.2 186.2C425.5 186.2 425.8 185.9 425.8 185.6C425.8 185.3 425.5 185 425.2 185Z" fill="#5E4224"/>
<path d="M387.8 186.2C388.131 186.2 388.4 185.931 388.4 185.6C388.4 185.269 388.131 185 387.8 185C387.469 185 387.2 185.269 387.2 185.6C387.2 185.931 387.469 186.2 387.8 186.2Z" fill="#5E4224"/>
<path fill-rule="evenodd" clip-rule="evenodd" d="M425.2 179.1C424.9 179.1 424.6 179.4 424.6 179.7C424.6 180 424.9 180.3 425.2 180.3C425.5 180.3 425.8 180 425.8 179.7C425.8 179.4 425.5 179.1 425.2 179.1Z" fill="#5E4224"/>
<path d="M387.8 180.3C388.131 180.3 388.4 180.031 388.4 179.7C388.4 179.369 388.131 179.1 387.8 179.1C387.469 179.1 387.2 179.369 387.2 179.7C387.2 180.031 387.469 180.3 387.8 180.3Z" fill="#5E4224"/>
</svg>
