<svg width="298" height="204" viewBox="0 0 298 204" fill="none" xmlns="http://www.w3.org/2000/svg">
<path fill-rule="evenodd" clip-rule="evenodd" d="M14.3 160.7H283.4C291.2 160.7 297.7 168.1 297.7 177.2C297.7 186.3 291.3 193.7 283.4 193.7H14.3C6.5 193.7 0 186.3 0 177.2C0 168.1 6.4 160.7 14.3 160.7Z" fill="#70AC43"/>
<path fill-rule="evenodd" clip-rule="evenodd" d="M36 143.4C37.1 144.4 37.8 145.7 37.8 147.1C37.8 147.8 37.6 148.6 37.3 149.2C38.7 150.4 39.6 152.1 39.6 153.8C39.6 157.6 35.7 160.7 31 160.7C26.3 160.7 22.4 157.6 22.4 153.8C22.4 152 23.3 150.4 24.7 149.2C24.4 148.6 24.2 147.8 24.2 147.1C24.2 145.7 24.9 144.4 26 143.4C25.9 143.1 25.9 142.8 25.9 142.4C25.9 140.7 26.8 139.1 28.1 138.2C28.9 135.4 30.2 129.9 31.2 129.9C32.3 129.9 33.4 135.8 34 138.3C35.3 139.2 36.1 140.7 36.1 142.4C36.1 142.8 36.1 143.1 36 143.4Z" fill="#5E8F3F"/>
<path fill-rule="evenodd" clip-rule="evenodd" d="M34.2 143.4C34.9 144.4 35.4 145.7 35.4 147.1C35.4 147.8 35.3 148.6 35.1 149.2C36 150.4 36.6 152.1 36.6 153.8C36.6 157.6 34.1 160.7 31 160.7C27.9 160.7 25.4 157.6 25.4 153.8C25.4 152 26 150.4 26.9 149.2C26.7 148.6 26.6 147.8 26.6 147.1C26.6 145.7 27 144.4 27.8 143.4C27.8 143.1 27.7 142.8 27.7 142.4C27.7 140.7 28.3 139.1 29.1 138.2C29.6 135.4 30.5 129.9 31.1 129.9C31.8 129.9 32.5 135.8 32.9 138.3C33.7 139.2 34.3 140.7 34.3 142.4C34.3 142.8 34.3 143.1 34.2 143.4Z" fill="#70AC43"/>
<path fill-rule="evenodd" clip-rule="evenodd" d="M31.8 143.4C32 144.4 32.1 145.7 32.1 147.1C32.1 147.8 32.1 148.6 32 149.2C32.2 150.4 32.4 152.1 32.4 153.8C32.4 157.6 31.7 160.7 30.9 160.7C30.1 160.7 29.4 157.6 29.4 153.8C29.4 152 29.5 150.4 29.8 149.2C29.7 148.6 29.7 147.8 29.7 147.1C29.7 145.7 29.8 144.4 30 143.4C30 143.1 30 142.8 30 142.4C30 140.7 30.2 139.1 30.4 138.2C30.5 135.4 30.8 129.9 30.9 129.9C31.1 129.9 31.3 135.8 31.4 138.3C31.6 139.2 31.8 140.7 31.8 142.4C31.8 142.8 31.8 143.1 31.8 143.4Z" fill="#81C141"/>
<path fill-rule="evenodd" clip-rule="evenodd" d="M38.3 158.4H23.6L26.2 168.2H35.7L38.3 158.4Z" fill="#105656"/>
<path fill-rule="evenodd" clip-rule="evenodd" d="M38.3 158.4H23.6L24.3 160.9H37.6L38.3 158.4Z" fill="#0A3738"/>
<path d="M38.8 158.3H23.1V160.5H38.8V158.3Z" fill="#177173"/>
<path fill-rule="evenodd" clip-rule="evenodd" d="M260.4 143.4C261.5 144.4 262.2 145.7 262.2 147.1C262.2 147.8 262 148.6 261.7 149.2C263.1 150.4 264 152.1 264 153.8C264 157.6 260.1 160.7 255.4 160.7C250.7 160.7 246.8 157.6 246.8 153.8C246.8 152 247.7 150.4 249.1 149.2C248.8 148.6 248.6 147.8 248.6 147.1C248.6 145.7 249.3 144.4 250.4 143.4C250.3 143.1 250.3 142.8 250.3 142.4C250.3 140.7 251.2 139.1 252.5 138.2C253.3 135.4 254.6 129.9 255.6 129.9C256.7 129.9 257.8 135.8 258.4 138.3C259.7 139.2 260.5 140.7 260.5 142.4C260.5 142.8 260.4 143.1 260.4 143.4Z" fill="#5E8F3F"/>
<path fill-rule="evenodd" clip-rule="evenodd" d="M258.6 143.4C259.3 144.4 259.8 145.7 259.8 147.1C259.8 147.8 259.7 148.6 259.5 149.2C260.4 150.4 261 152.1 261 153.8C261 157.6 258.5 160.7 255.4 160.7C252.3 160.7 249.8 157.6 249.8 153.8C249.8 152 250.4 150.4 251.3 149.2C251.1 148.6 251 147.8 251 147.1C251 145.7 251.4 144.4 252.2 143.4C252.2 143.1 252.1 142.8 252.1 142.4C252.1 140.7 252.7 139.1 253.5 138.2C254 135.4 254.9 129.9 255.5 129.9C256.2 129.9 256.9 135.8 257.3 138.3C258.1 139.2 258.7 140.7 258.7 142.4C258.7 142.8 258.6 143.1 258.6 143.4Z" fill="#70AC43"/>
<path fill-rule="evenodd" clip-rule="evenodd" d="M256.2 143.4C256.4 144.4 256.5 145.7 256.5 147.1C256.5 147.8 256.5 148.6 256.4 149.2C256.6 150.4 256.8 152.1 256.8 153.8C256.8 157.6 256.1 160.7 255.3 160.7C254.5 160.7 253.8 157.6 253.8 153.8C253.8 152 253.9 150.4 254.2 149.2C254.1 148.6 254.1 147.8 254.1 147.1C254.1 145.7 254.2 144.4 254.4 143.4C254.4 143.1 254.4 142.8 254.4 142.4C254.4 140.7 254.6 139.1 254.8 138.2C254.9 135.4 255.2 129.9 255.3 129.9C255.5 129.9 255.7 135.8 255.8 138.3C256 139.2 256.2 140.7 256.2 142.4C256.2 142.8 256.2 143.1 256.2 143.4Z" fill="#81C141"/>
<path fill-rule="evenodd" clip-rule="evenodd" d="M262.6 158.4H248L250.5 168.2H260.1L262.6 158.4Z" fill="#105656"/>
<path fill-rule="evenodd" clip-rule="evenodd" d="M262.6 158.4H248L248.6 160.9H262L262.6 158.4Z" fill="#0A3738"/>
<path d="M263.2 158.3H247.5V160.5H263.2V158.3Z" fill="#177173"/>
<path fill-rule="evenodd" clip-rule="evenodd" d="M30.5 171.9H267.1C274 171.9 279.6 178.9 279.6 187.5C279.6 196.1 274 203.1 267.1 203.1H30.5C23.6 203.1 18 196.1 18 187.5C17.9 178.9 23.6 171.9 30.5 171.9Z" fill="#70AC43"/>
<path d="M198.7 0.799988H115.5V13.3H198.7V0.799988Z" fill="#BFD4DA"/>
<path d="M217.1 149.4H97.1V173.9H217.1V149.4Z" fill="#BFD4DA"/>
<path d="M211.5 149.4H102.7V173.9H211.5V149.4Z" fill="#1C8295"/>
<path opacity="0.5" fill-rule="evenodd" clip-rule="evenodd" d="M217.1 149.4V173.9H119L97.1 150.5V149.4C137 148.7 176.9 149.4 217.1 149.4Z" fill="#76939D"/>
<path d="M217.9 9.59998H96.2V149.4H217.9V9.59998Z" fill="#EAF4F7"/>
<path d="M119.9 149.4H115.5V173.9H119.9V149.4Z" fill="#EAF4F7"/>
<path d="M139.6 149.4H135.2V173.9H139.6V149.4Z" fill="#EAF4F7"/>
<path d="M159.3 149.4H154.9V173.9H159.3V149.4Z" fill="#EAF4F7"/>
<path d="M178.9 149.4H174.5V173.9H178.9V149.4Z" fill="#EAF4F7"/>
<path d="M198.6 149.4H194.2V173.9H198.6V149.4Z" fill="#EAF4F7"/>
<path d="M220.4 170.5H93.8V177.3H220.4V170.5Z" fill="#EAF4F7"/>
<path d="M213.2 27.1H101V43.2H213.2V27.1Z" fill="#2AA2B7"/>
<path d="M213.2 46.7H101V62.8H213.2V46.7Z" fill="#2AA2B7"/>
<path d="M213.2 66.2H101V82.3H213.2V66.2Z" fill="#2AA2B7"/>
<path d="M213.2 85.8H101V101.9H213.2V85.8Z" fill="#2AA2B7"/>
<path d="M213.2 105.4H101V121.5H213.2V105.4Z" fill="#2AA2B7"/>
<path d="M213.2 124.9H101V141H213.2V124.9Z" fill="#2AA2B7"/>
<path opacity="0.5" d="M213.2 27.1H101V32.1H213.2V27.1Z" fill="#2AA2B7"/>
<path opacity="0.5" d="M213.2 46.7H101V51.7H213.2V46.7Z" fill="#2AA2B7"/>
<path opacity="0.5" d="M213.2 66.2H101V71.2H213.2V66.2Z" fill="#2AA2B7"/>
<path opacity="0.5" d="M213.2 85.8H101V90.8H213.2V85.8Z" fill="#2AA2B7"/>
<path opacity="0.5" d="M213.2 105.4H101V110.4H213.2V105.4Z" fill="#2AA2B7"/>
<path opacity="0.5" d="M213.2 124.9H101V129.9H213.2V124.9Z" fill="#2AA2B7"/>
<path d="M116.9 21.7H112.5V145H116.9V21.7Z" fill="#EAF4F7"/>
<path d="M200.2 21.7H195.8V145H200.2V21.7Z" fill="#EAF4F7"/>
<path opacity="0.5" fill-rule="evenodd" clip-rule="evenodd" d="M206 177.3H218.7C218.7 125.4 218.9 63.7 218.9 9.59998H206C206 62.8 206 124.1 206 177.3Z" fill="#76939D"/>
<path opacity="0.5" fill-rule="evenodd" clip-rule="evenodd" d="M41.4 166.5L74.2 166.1L74.1 159.2L76.9 155.2L93.8 172.1H46.9L41.4 166.5Z" fill="#6F6E6F"/>
<path d="M73.3 165.2H46V168.3H73.3V165.2Z" fill="#5E4224"/>
<path d="M46.2 164.2H43.1V172.1H46.2V164.2Z" fill="#87623A"/>
<path d="M76.1 164.2H73V172.1H76.1V164.2Z" fill="#87623A"/>
<path d="M46.6 154.5H43.6V164.3H46.6V154.5Z" fill="#87623A"/>
<path d="M75.7 154.5H72.7V164.3H75.7V154.5Z" fill="#87623A"/>
<path d="M77.9 163.8H41.4V166.8H77.9V163.8Z" fill="#D2A677"/>
<path d="M76.8 155.1H42.3V158.2H76.8V155.1Z" fill="#D2A677"/>
<path d="M76.8 159.7H42.3V162.8H76.8V159.7Z" fill="#D2A677"/>
<path d="M45.1 161.7C45.3761 161.7 45.6 161.476 45.6 161.2C45.6 160.924 45.3761 160.7 45.1 160.7C44.8239 160.7 44.6 160.924 44.6 161.2C44.6 161.476 44.8239 161.7 45.1 161.7Z" fill="#5E4224"/>
<path d="M74.1 161.7C74.3761 161.7 74.6 161.476 74.6 161.2C74.6 160.924 74.3761 160.7 74.1 160.7C73.8239 160.7 73.6 160.924 73.6 161.2C73.6 161.476 73.8239 161.7 74.1 161.7Z" fill="#5E4224"/>
<path d="M45.1 157.1C45.3761 157.1 45.6 156.876 45.6 156.6C45.6 156.324 45.3761 156.1 45.1 156.1C44.8239 156.1 44.6 156.324 44.6 156.6C44.6 156.876 44.8239 157.1 45.1 157.1Z" fill="#5E4224"/>
<path d="M74.1 157.1C74.3761 157.1 74.6 156.876 74.6 156.6C74.6 156.324 74.3761 156.1 74.1 156.1C73.8239 156.1 73.6 156.324 73.6 156.6C73.6 156.876 73.8239 157.1 74.1 157.1Z" fill="#5E4224"/>
</svg>
