<svg width="851" height="548" viewBox="0 0 851 548" fill="none" xmlns="http://www.w3.org/2000/svg">
<path opacity="0.8" d="M771.425 125.819C753.118 108.724 728.551 98.83 703.312 92.8398C678.341 86.8496 650.073 85.0324 625.439 94.657C568.634 116.801 554.432 174.952 525.693 218.768C509.943 242.796 480.531 239.902 454.349 237.95C427.831 235.998 401.38 232.902 374.659 233.508C349.151 234.114 318.931 238.354 298.47 254.036C277.538 270.122 276.124 297.044 281.576 319.255C284.201 330.091 288.441 340.389 292.883 350.687C334.815 420.55 409.322 471.567 494.194 492.028C541.779 503.47 593.671 505.287 642.131 494.047C697.793 481.125 743.695 445.655 773.107 401.031C800.703 359.167 813.019 310.304 815.375 262.382C817.731 214.595 809.048 160.953 771.425 125.819Z" fill="#D2344A"/>
<path opacity="0.9" d="M427.965 258.882C437.657 275.978 453.945 288.766 471.714 298.66C489.348 308.486 510.414 315.823 531.683 313.467C580.681 308.082 606.123 265.949 639.035 237.95C657.073 222.605 678.88 230.95 698.331 237.95C718.119 245.017 737.57 252.892 758.098 258.007C777.751 262.853 801.914 265.882 821.433 257.94C841.49 249.796 849.364 229.201 850.71 210.826C851.383 201.875 850.778 192.99 849.97 184.106C835.499 121.175 791.347 66.0523 731.715 32.4669C698.264 13.6887 659.025 1.43907 619.18 0.0929626C573.412 -1.45506 529.462 16.4482 495.742 44.9857C464.108 71.7059 442.503 107.041 428.638 143.723C414.908 180.404 408.11 223.816 427.965 258.882Z" fill="#D2344A"/>
<path opacity="0.8" d="M560.624 362.465C562.172 344.293 556.249 326.726 547.634 310.775C539.087 294.958 526.5 279.68 508.53 272.141C467.272 254.709 424.667 277.526 383.813 285.535C361.4 289.91 348.814 273.487 337.238 259.219C325.526 244.748 314.488 229.672 301.095 216.412C288.307 203.759 270.942 190.567 251.356 188.279C231.299 185.99 214.069 199.115 203.098 213.384C197.781 220.316 193.473 227.787 189.368 235.393C167.022 292.804 172.003 357.081 200.877 410.79C217.03 440.876 241.26 468.202 271.749 487.047C306.816 508.652 350.901 513.7 392.63 505.556C431.802 497.951 467.675 478.971 498.232 455.414C528.789 431.924 557.394 399.752 560.624 362.465Z" fill="#D2344A"/>
<path d="M506.847 143.857C530.404 105.964 521.385 61.2063 486.723 43.9088C452.061 26.6113 404.88 43.303 381.323 81.196C357.766 119.089 366.785 163.847 401.447 181.144C436.109 198.442 483.29 181.75 506.847 143.857Z" fill="#D2344A"/>
<path opacity="0.37" d="M655.054 108.926C591.383 120.839 569.845 159.405 557.596 210.22C547.096 253.767 547.432 304.381 517.549 338.37C487.733 372.292 446.07 389.32 436.513 432.732C423.658 490.951 469.358 531.604 521.722 543.853C594.344 560.814 645.16 518.075 655.727 463.558C664.476 418.463 671.072 371.148 724.782 333.928C764.56 306.332 829.577 309.698 845.259 259.892C863.162 203.355 772.771 86.8496 655.054 108.926Z" fill="#D2344A"/>
<path d="M491.367 235.056C467.743 181.817 422.581 168.626 365.775 165.126C317.113 162.164 262.663 169.433 221.001 148.367C179.474 127.367 154.032 93.8494 105.64 91.561C40.7574 88.5322 4.68169 133.56 0.441449 180.404C-5.48143 245.354 49.1032 283.247 109.611 284.795C159.686 286.074 211.713 285.199 260.913 326.389C297.326 356.879 304.729 413.415 361.064 420.011C424.937 427.549 535.048 333.457 491.367 235.056Z" fill="#D2344A"/>
<path d="M127.178 68.6771C131.552 74.1289 139.225 75.5423 144.273 71.7732C149.321 68.0041 149.859 60.6005 145.417 55.0815C141.042 49.6297 133.37 48.2163 128.322 51.9854C123.341 55.7545 122.803 63.2254 127.178 68.6771Z" fill="#D2344A"/>
<path d="M322.43 103.407C332.257 103.945 340.939 97.2147 341.747 88.3977C342.555 79.5806 335.218 72.0424 325.325 71.5713C315.498 71.0329 306.816 77.7634 306.008 86.5804C305.268 95.3974 312.604 102.936 322.43 103.407Z" fill="#D2344A"/>
<path opacity="0.8" d="M492.78 13.2848C487.127 12.006 481.271 15.1694 479.723 20.4192C478.175 25.669 481.54 30.8515 487.194 32.1303C492.848 33.4091 498.703 30.2458 500.251 24.996C501.867 19.8134 498.501 14.5636 492.78 13.2848Z" fill="#D2344A"/>
<path d="M233.385 54.0046C222.684 34.8225 199.329 26.2075 181.224 34.7552C163.119 43.303 157.061 65.783 167.763 84.9651C178.464 104.147 201.819 112.762 219.924 104.214C238.029 95.6666 244.087 73.1866 233.385 54.0046Z" fill="#D2344A"/>
</svg>
