<svg width="796" height="599" viewBox="0 0 796 599" fill="none" xmlns="http://www.w3.org/2000/svg">
<path opacity="0.8" d="M388.5 598.7C394.575 598.7 399.5 593.775 399.5 587.7C399.5 581.625 394.575 576.7 388.5 576.7C382.425 576.7 377.5 581.625 377.5 587.7C377.5 593.775 382.425 598.7 388.5 598.7Z" fill="#D2344A"/>
<path opacity="0.9" d="M82.8 490C69.6 469.1 64.9 444.3 64.1 419.9C63.3 395.7 67.3 369.7 81.9 349.7C115.5 303.7 176 305.4 225.2 290.4C252.2 282.1 255.4 254.7 258.8 230.5C262.3 206 264.7 181.1 270.7 157.1C276.5 134.1 286.9 107.7 306.7 93.2C326.9 78.3 353.9 83.7 374.8 94.3C384.9 99.4 394.3 105.9 403.6 112.5C464.1 168.1 499.4 248.6 502.2 330.7C503.8 376.7 494.9 424.3 473.8 465.5C449.6 512.8 405.1 545.5 354.9 561C307.8 575.5 256.9 574.4 209 564.5C161.1 554.3 109.8 532.9 82.8 490Z" fill="#D2344A"/>
<path opacity="0.9" d="M531 86C543.1 86.7 554.4 91.9 564.4 98.6C574.3 105.2 583.6 114.3 587.4 125.8C596.2 152.4 578.1 176.1 570 200.1C565.6 213.3 575.6 222.4 584.3 230.7C593.1 239.1 602.4 247.2 610.3 256.5C617.8 265.4 625.4 277.1 625.6 289.2C625.8 301.6 615.9 310.8 605.7 316.1C600.7 318.7 595.5 320.6 590.2 322.4C550.6 330.7 508.3 321.7 474.6 299.3C455.7 286.7 439.2 269.6 428.8 249.3C416.8 226.1 416.5 198.9 424.7 174.3C432.4 151.3 447.4 131.3 465.1 114.9C482.8 98.9 506.1 84.5 531 86Z" fill="#D2344A"/>
<path opacity="0.7" d="M338.9 348.2C339.1 365.6 332.9 382.2 324.4 397.1C316 411.9 304 426 288 432.7C251 447.9 215.4 424.7 180.3 415.7C161.1 410.7 149.1 426 138.1 439.3C127 452.7 116.5 466.7 104 478.9C92.1 490.6 76.2 502.5 59 504C41.4 505.5 27.2 492.4 18.6 478.4C14.4 471.6 11.1 464.3 8 457C-7.9 401.4 0.5 340.3 29 290C44.9 261.8 67.7 236.6 95.5 219.6C127.4 200.2 166.1 196.9 201.8 206C235.4 214.6 265.5 233.9 290.6 257.5C315.5 280.9 338.4 312.5 338.9 348.2Z" fill="#D2344A"/>
<path opacity="0.7" d="M660.6 579.1C646.8 589.6 629.8 594.5 612.7 596.6C595.8 598.7 577.3 597.5 562.4 588.6C528.1 568 525.5 525.5 511.8 492C504.3 473.6 484.9 473.1 467.7 472.2C450.3 471.3 432.8 471.2 415.5 468.5C399 465.9 379.9 460.3 368.5 447.3C356.8 434.1 358.9 414.9 365 399.6C367.9 392.2 371.9 385.2 375.9 378.3C411 332.4 465.1 302.7 522.4 295.5C554.5 291.5 588.4 294.7 618.5 306.9C653.1 320.9 678.8 350 692.8 384.1C705.9 416.2 708.4 451.9 704.4 486C700.7 520.2 689 557.5 660.6 579.1Z" fill="#D2344A"/>
<path opacity="0.4" d="M247.269 211.411C252.903 220.264 264.798 222.778 273.838 217.026C282.877 211.273 285.638 199.433 280.004 190.579C274.37 181.726 262.475 179.213 253.435 184.965C244.396 190.718 241.635 202.558 247.269 211.411Z" fill="#D2344A"/>
<path opacity="0.4" d="M240.894 177.905C243.029 181.26 247.555 182.201 251.003 180.007C254.451 177.813 255.515 173.314 253.38 169.959C251.245 166.604 246.719 165.663 243.271 167.858C239.823 170.052 238.759 174.55 240.894 177.905Z" fill="#D2344A"/>
<path opacity="0.6" d="M305.5 138.9C328.641 138.9 347.4 120.141 347.4 97C347.4 73.8593 328.641 55.1 305.5 55.1C282.359 55.1 263.6 73.8593 263.6 97C263.6 120.141 282.359 138.9 305.5 138.9Z" fill="#D2344A"/>
<path opacity="0.6" d="M753.8 302.1C776.941 302.1 795.7 283.341 795.7 260.2C795.7 237.059 776.941 218.3 753.8 218.3C730.659 218.3 711.9 237.059 711.9 260.2C711.9 283.341 730.659 302.1 753.8 302.1Z" fill="#D2344A"/>
<path opacity="0.6" d="M740.8 326C746.212 326 750.6 321.612 750.6 316.2C750.6 310.788 746.212 306.4 740.8 306.4C735.388 306.4 731 310.788 731 316.2C731 321.612 735.388 326 740.8 326Z" fill="#D2344A"/>
<path opacity="0.5" d="M443.9 436.5C433.9 411.4 434.8 378.3 453.5 348.2C457.8 341.3 462.9 335.2 468.5 329.1C474 323.1 479.6 316.8 483 309.6C490.4 293.6 480.9 282 473.4 272.6C436.8 226.6 371 202.3 357.6 137.1C352.3 111.2 358.2 78.7 377.8 51.5C398.4 23.1 429.9 11.2 458.8 6.70002C473.9 4.40002 488.8 3.60002 503.6 2.70002C519.9 1.80002 536.5 -1.79998 552.4 1.00002C780.1 42.3 722 230.4 710.8 246C691.8 272.4 681.2 303.8 672.2 332.3C663.2 360.9 655.8 389.6 644.4 418C633.3 445.6 617 475.9 592.3 496.5C577.6 508.9 562.3 513.2 546.9 511.5C531.2 509.7 516.5 504.7 503.3 498.2C477.1 485.4 455 464.4 443.9 436.5Z" fill="#D2344A"/>
<path opacity="0.7" d="M341 415.6C340.2 352.8 375.4 321.4 425.2 295.1C467.8 272.6 519.9 258 548.8 220.2C577.6 182.5 586.5 138.7 629.2 117C686.4 87.9 737.6 118.5 760.9 163.7C793.2 226.3 759.7 286.2 705.8 312.1C661.2 333.5 613.9 353.6 586.6 414.5C566.4 459.6 583.2 519.2 535.1 548.5C480.8 581.7 342.4 531.7 341 415.6Z" fill="#D2344A"/>
</svg>
