<svg width="205" height="205" viewBox="0 0 205 205" fill="none" xmlns="http://www.w3.org/2000/svg">
<path d="M161.082 87.0608C156.913 83.91 152.841 80.6621 148.672 77.5113C147.994 76.9781 147.751 76.4448 147.751 75.6208C147.8 65.9743 147.751 56.3278 147.751 46.6813C147.751 43.5789 146.2 42.0277 143.098 42.0277C116 42.0277 88.9513 42.0277 61.8539 42.0277C58.5576 42.0277 57.2003 43.4335 57.2003 46.7298C57.2003 56.3763 57.2003 66.0228 57.2003 75.6692C57.2003 76.4448 56.958 76.9781 56.3278 77.4628C52.2559 80.6137 48.281 83.8615 44.2091 87.0123C42.6579 88.2242 41.9792 89.7269 41.9792 91.6659C42.0277 113.722 42.0277 135.778 41.9792 157.834C41.9792 161.421 43.7243 162.924 47.0206 162.924C65.538 162.875 84.0554 162.924 102.573 162.924C121.139 162.924 139.704 162.924 158.27 162.924C161.373 162.924 162.924 161.324 162.924 158.222C162.924 135.778 162.924 113.334 162.924 90.8419C162.972 89.2422 162.391 88.0303 161.082 87.0608ZM147.848 86.6245C149.642 87.9818 151.338 89.2907 152.938 90.5025C151.193 92.2476 149.496 93.9442 147.848 95.6409C147.848 92.7324 147.848 89.7754 147.848 86.6245ZM64.6655 50.7532C64.6655 50.4623 64.7139 50.22 64.7139 49.7837C89.8239 49.7837 114.837 49.7837 140.044 49.7837C140.044 50.2684 140.044 50.7047 140.044 51.141C140.044 68.2526 140.044 85.3642 140.044 102.476C140.044 103.348 139.801 103.979 139.171 104.56C133.063 110.571 126.956 116.582 120.896 122.593C120.605 122.884 120.315 123.126 119.927 123.514C119.151 122.884 118.327 122.302 117.551 121.72C113.48 118.569 109.456 115.419 105.384 112.219C103.154 110.474 101.458 110.474 99.1795 112.219C94.6229 115.758 90.1147 119.297 85.6066 122.835C85.3157 123.078 85.0249 123.272 84.4917 123.659C82.6496 121.72 80.8076 119.733 78.9171 117.842C74.4089 113.383 69.8523 108.923 65.3926 104.463C65.0048 104.075 64.6655 103.397 64.6655 102.815C64.6655 85.4612 64.6655 68.1072 64.6655 50.7532ZM57.1034 86.673C57.1034 89.7754 57.1034 92.7324 57.1034 95.447C55.5522 93.8958 53.8556 92.1992 52.1105 90.4541C53.6132 89.2907 55.2613 88.0303 57.1034 86.673ZM49.8322 99.7128C59.5756 109.311 69.1736 118.715 78.8201 128.216C69.1736 135.826 59.5756 143.389 49.8322 151.048C49.8322 133.839 49.8322 116.921 49.8322 99.7128ZM57.1519 155.168C57.5881 154.78 57.8305 154.538 58.1214 154.295C72.6638 142.904 87.1578 131.464 101.7 120.072C102.33 119.587 102.718 119.539 103.348 120.072C117.939 131.561 132.53 143.001 147.121 154.441C147.315 154.586 147.509 154.829 147.945 155.168C117.503 155.168 87.4971 155.168 57.1519 155.168ZM155.168 151.048C145.425 143.389 135.875 135.826 126.18 128.216C135.826 118.715 145.425 109.311 155.168 99.7128C155.168 116.921 155.168 133.839 155.168 151.048Z" fill="#D6D6D6"/>
<path d="M91.2782 97.9192C97.2891 100.682 103.639 100.925 110.038 99.9551C114.449 99.2765 118.424 97.4344 121.526 94.1381C122.593 93.0232 123.417 91.7144 124.532 90.2117C122.641 90.2117 121.236 90.1632 119.781 90.2602C119.491 90.2602 119.151 90.551 118.957 90.8419C117.067 93.0717 114.692 94.5259 111.928 95.3015C106.645 96.8043 101.264 96.9012 96.0287 95.3015C90.5511 93.6534 86.5761 90.2602 85.2188 84.3947C84.4432 81.1954 84.5887 77.996 85.3642 74.8452C87.1093 67.9133 91.1328 63.1143 98.307 61.4176C101.167 60.739 104.124 60.6905 107.032 61.0783C114.11 61.9509 119.878 67.6224 119.054 75.4269C118.569 79.7411 116.679 83.3283 112.849 85.6066C112.171 85.9944 111.298 85.9944 110.523 86.1883C110.426 85.4127 110.232 84.6371 110.329 83.91C110.62 81.9225 111.104 79.9835 111.492 77.996C112.219 74.3119 112.995 70.6279 113.77 66.8953C111.735 66.8953 109.844 66.8953 107.905 66.8953C107.711 67.6224 107.566 68.3011 107.469 68.8343C106.208 68.1072 105.045 67.0407 103.688 66.6529C100.198 65.6834 96.9497 66.556 94.3806 69.0767C90.4056 73.0031 88.6605 77.8021 89.2907 83.4252C89.727 87.1093 92.5385 90.1147 96.2226 90.7934C99.1311 91.3266 101.7 90.5995 104.076 88.4181C104.851 90.8419 106.596 91.2297 108.681 91.1812C111.104 91.1327 113.383 90.5025 115.419 89.1937C120.751 85.6551 123.465 80.6621 123.32 74.2635C123.175 67.8648 120.557 62.7265 114.74 59.6726C108.05 56.1339 101.119 56.2793 94.0897 58.8C88.1273 60.9329 84.2493 65.1017 82.0195 70.9187C80.5168 74.8452 80.032 78.8686 80.6137 82.9889C81.5347 89.7754 84.8795 94.9622 91.2782 97.9192ZM106.305 74.8452C106.111 78.2384 105.53 81.6316 103.3 84.3462C102.524 85.3157 101.264 86.1398 100.101 86.4307C97.8707 87.0124 95.8833 85.5096 95.3501 83.1344C95.1562 82.3588 95.1077 81.5347 95.0107 80.7591C94.9623 80.7106 94.8653 80.7106 94.8168 80.6621C95.3985 78.5293 95.7379 76.3479 96.5619 74.312C97.0467 73.1001 98.1131 72.0336 99.1796 71.1126C100.585 69.9007 102.33 69.6584 104.027 70.5309C105.675 71.4519 106.402 73.1001 106.305 74.8452Z" fill="#D6D6D6"/>
<path d="M102.476 205C45.9541 205 0 158.997 0 102.476C0 45.9541 45.9541 0 102.476 0C158.997 0 204.952 45.9541 204.952 102.476C205 158.997 158.997 205 102.476 205ZM102.476 8.67699C50.7531 8.67699 8.67699 50.7531 8.67699 102.476C8.67699 154.198 50.7531 196.275 102.476 196.275C154.198 196.275 196.275 154.198 196.275 102.476C196.275 50.7531 154.198 8.67699 102.476 8.67699Z" fill="#D6D6D6"/>
</svg>
