<svg width="52" height="52" viewBox="0 0 52 52" fill="none" xmlns="http://www.w3.org/2000/svg">
<g clip-path="url(#clip0)">
<path d="M31.9 25.6C35 22.3 38.1 18.9 40.9 15.3C44.7 10.5 48.3 5.6 51.2 0C45.6 2.9 40.7 6.5 35.9 10.3C32.3 13.2 28.9 16.2 25.6 19.3C22.3 16.2 18.9 13.1 15.3 10.3C10.5 6.5 5.6 2.9 0 0C2.9 5.6 6.5 10.5 10.3 15.3C13.2 18.9 16.2 22.3 19.3 25.6C16.2 28.9 13.1 32.3 10.3 35.9C6.5 40.7 2.9 45.6 0 51.3C5.6 48.4 10.5 44.8 15.3 41C18.9 38.1 22.3 35.1 25.6 32C28.9 35.1 32.3 38.2 35.9 41C40.7 44.8 45.6 48.4 51.2 51.3C48.3 45.7 44.7 40.8 40.9 36C38.1 32.4 35.1 28.9 31.9 25.6Z" fill="#CC1F45"/>
</g>
<defs>
<clipPath id="clip0">
<rect width="51.3" height="51.3" fill="white"/>
</clipPath>
</defs>
</svg>
