<svg width="556" height="378" viewBox="0 0 556 378" fill="none" xmlns="http://www.w3.org/2000/svg">
<g clip-path="url(#clip0)">
<path fill-rule="evenodd" clip-rule="evenodd" d="M26.6 298.7H529.3C544 298.7 555.9 312.6 555.9 329.5C555.9 346.5 543.9 360.3 529.3 360.3H26.6C12 360.3 0 346.5 0 329.5C0 312.5 12 298.7 26.6 298.7Z" fill="#70AC43"/>
<path fill-rule="evenodd" clip-rule="evenodd" d="M67.3001 266.4C69.4001 268.2 70.7 270.6 70.7 273.3C70.7 274.7 70.3 276 69.7 277.2C72.4 279.5 74 282.5 74 285.9C74 293 66.8001 298.7 57.9001 298.7C49.0001 298.7 41.8 293 41.8 285.9C41.8 282.6 43.4 279.5 46.1 277.2C45.5 276 45.1 274.7 45.1 273.3C45.1 270.6 46.4 268.2 48.5 266.4C48.4 265.8 48.3 265.2 48.3 264.6C48.3 261.3 50 258.5 52.5 256.7C53.9 251.4 56.4001 241.2 58.4001 241.2C60.4001 241.2 62.5001 252.2 63.7001 256.9C66.1001 258.6 67.7 261.4 67.7 264.6C67.5 265.2 67.4001 265.8 67.3001 266.4Z" fill="#5E8F3F"/>
<path fill-rule="evenodd" clip-rule="evenodd" d="M63.9001 266.4C65.3001 268.2 66.1 270.6 66.1 273.3C66.1 274.7 65.9 276 65.5 277.2C67.2 279.5 68.3001 282.5 68.3001 285.9C68.3001 293 63.6 298.7 57.8 298.7C52 298.7 47.3 293 47.3 285.9C47.3 282.6 48.3 279.5 50.1 277.2C49.7 276 49.5 274.7 49.5 273.3C49.5 270.6 50.3001 268.2 51.7001 266.4C51.6001 265.8 51.6 265.2 51.6 264.6C51.6 261.3 52.7 258.5 54.3 256.7C55.2 251.4 56.8 241.2 58.1 241.2C59.4 241.2 60.7 252.2 61.5 256.9C63.1 258.6 64.1 261.4 64.1 264.6C64.1 265.2 64.0001 265.8 63.9001 266.4Z" fill="#70AC43"/>
<path fill-rule="evenodd" clip-rule="evenodd" d="M59.4 266.4C59.8 268.2 60 270.6 60 273.3C60 274.7 59.9 276 59.8 277.2C60.3 279.5 60.5 282.5 60.5 285.9C60.5 293 59.3 298.7 57.7 298.7C56.2 298.7 54.9 293 54.9 285.9C54.9 282.6 55.2 279.5 55.6 277.2C55.5 276 55.4 274.7 55.4 273.3C55.4 270.6 55.6 268.2 56 266.4C56 265.8 56 265.2 56 264.6C56 261.3 56.3 258.5 56.7 256.7C56.9 251.4 57.4 241.2 57.7 241.2C58.1 241.2 58.4 252.2 58.6 256.9C59 258.6 59.3 261.4 59.3 264.6C59.5 265.2 59.5 265.8 59.4 266.4Z" fill="#81C141"/>
<path fill-rule="evenodd" clip-rule="evenodd" d="M71.5001 294.4H44.1001L48.9001 312.7H66.7001L71.5001 294.4Z" fill="#105656"/>
<path fill-rule="evenodd" clip-rule="evenodd" d="M71.5001 294.4H44.1001L45.4001 299.1H70.3001L71.5001 294.4Z" fill="#0A3738"/>
<path d="M72.5001 294.1H43.2001V298.2H72.5001V294.1Z" fill="#177173"/>
<path fill-rule="evenodd" clip-rule="evenodd" d="M486.4 266.4C488.5 268.2 489.8 270.6 489.8 273.3C489.8 274.7 489.4 276 488.8 277.2C491.5 279.5 493.1 282.5 493.1 285.9C493.1 293 485.9 298.7 477 298.7C468.1 298.7 460.9 293 460.9 285.9C460.9 282.6 462.5 279.5 465.2 277.2C464.6 276 464.2 274.7 464.2 273.3C464.2 270.6 465.5 268.2 467.6 266.4C467.5 265.8 467.4 265.2 467.4 264.6C467.4 261.3 469.1 258.5 471.6 256.7C473 251.4 475.5 241.2 477.5 241.2C479.5 241.2 481.6 252.2 482.8 256.9C485.2 258.6 486.8 261.4 486.8 264.6C486.6 265.2 486.6 265.8 486.4 266.4Z" fill="#5E8F3F"/>
<path fill-rule="evenodd" clip-rule="evenodd" d="M483.1 266.4C484.5 268.2 485.3 270.6 485.3 273.3C485.3 274.7 485.1 276 484.7 277.2C486.4 279.5 487.5 282.5 487.5 285.9C487.5 293 482.8 298.7 477 298.7C471.2 298.7 466.5 293 466.5 285.9C466.5 282.6 467.5 279.5 469.3 277.2C468.9 276 468.7 274.7 468.7 273.3C468.7 270.6 469.5 268.2 470.9 266.4C470.8 265.8 470.8 265.2 470.8 264.6C470.8 261.3 471.9 258.5 473.5 256.7C474.4 251.4 476 241.2 477.3 241.2C478.6 241.2 479.9 252.2 480.7 256.9C482.3 258.6 483.3 261.4 483.3 264.6C483.2 265.2 483.2 265.8 483.1 266.4Z" fill="#70AC43"/>
<path fill-rule="evenodd" clip-rule="evenodd" d="M478.6 266.4C479 268.2 479.2 270.6 479.2 273.3C479.2 274.7 479.1 276 479 277.2C479.5 279.5 479.7 282.5 479.7 285.9C479.7 293 478.5 298.7 476.9 298.7C475.4 298.7 474.1 293 474.1 285.9C474.1 282.6 474.4 279.5 474.8 277.2C474.7 276 474.6 274.7 474.6 273.3C474.6 270.6 474.8 268.2 475.2 266.4C475.2 265.8 475.2 265.2 475.2 264.6C475.2 261.3 475.5 258.5 475.9 256.7C476.1 251.4 476.6 241.2 476.9 241.2C477.3 241.2 477.6 252.2 477.8 256.9C478.2 258.6 478.5 261.4 478.5 264.6C478.6 265.2 478.6 265.8 478.6 266.4Z" fill="#81C141"/>
<path fill-rule="evenodd" clip-rule="evenodd" d="M490.7 294.4H463.3L468.1 312.7H485.9L490.7 294.4Z" fill="#105656"/>
<path fill-rule="evenodd" clip-rule="evenodd" d="M490.7 294.4H463.3L464.5 299.1H489.4L490.7 294.4Z" fill="#0A3738"/>
<path d="M491.6 294.1H462.3V298.2H491.6V294.1Z" fill="#177173"/>
<path fill-rule="evenodd" clip-rule="evenodd" d="M56.9999 319.7H499C511.9 319.7 522.4 332.8 522.4 348.8C522.4 364.8 511.9 377.9 499 377.9H56.9999C44.0999 377.9 33.5999 364.8 33.5999 348.8C33.4999 332.7 44.0999 319.7 56.9999 319.7Z" fill="#8B8B8B"/>
<path d="M371.2 0H215.7V23.3H371.2V0Z" fill="#BFD4DA"/>
<path d="M405.5 277.5H181.4V323.3H405.5V277.5Z" fill="#BFD4DA"/>
<path d="M395 277.5H191.8V323.3H395V277.5Z" fill="#1C8295"/>
<path opacity="0.5" fill-rule="evenodd" clip-rule="evenodd" d="M405.5 277.5V323.3H222.3L181.4 279.7V277.6C255.9 276.3 330.5 277.5 405.5 277.5Z" fill="#76939D"/>
<path d="M407.2 16.3H179.7V277.5H407.2V16.3Z" fill="#EAF4F7"/>
<path d="M224.2 277.5H215.9V323.3H224.2V277.5Z" fill="#EAF4F7"/>
<path d="M260.9 277.5H252.6V323.3H260.9V277.5Z" fill="#EAF4F7"/>
<path d="M297.6 277.5H289.3V323.3H297.6V277.5Z" fill="#EAF4F7"/>
<path d="M334.3 277.5H326V323.3H334.3V277.5Z" fill="#EAF4F7"/>
<path d="M371.1 277.5H362.8V323.3H371.1V277.5Z" fill="#EAF4F7"/>
<path d="M411.7 317H175.2V329.8H411.7V317Z" fill="#EAF4F7"/>
<path d="M398.3 49.1H188.7V79.3H398.3V49.1Z" fill="#2AA2B7"/>
<path d="M398.3 85.6H188.7V115.8H398.3V85.6Z" fill="#2AA2B7"/>
<path d="M398.3 122.2H188.7V152.4H398.3V122.2Z" fill="#2AA2B7"/>
<path d="M398.3 158.7H188.7V188.9H398.3V158.7Z" fill="#2AA2B7"/>
<path d="M398.3 195.3H188.7V225.5H398.3V195.3Z" fill="#2AA2B7"/>
<path d="M398.3 231.8H188.7V262H398.3V231.8Z" fill="#2AA2B7"/>
<path opacity="0.5" d="M398.3 49.1H188.7V58.4H398.3V49.1Z" fill="#2AA2B7"/>
<path opacity="0.5" d="M398.3 85.6H188.7V94.9H398.3V85.6Z" fill="#2AA2B7"/>
<path opacity="0.5" d="M398.3 122.2H188.7V131.5H398.3V122.2Z" fill="#2AA2B7"/>
<path opacity="0.5" d="M398.3 158.7H188.7V168H398.3V158.7Z" fill="#2AA2B7"/>
<path opacity="0.5" d="M398.3 195.3H188.7V204.6H398.3V195.3Z" fill="#2AA2B7"/>
<path opacity="0.5" d="M398.3 231.8H188.7V241.1H398.3V231.8Z" fill="#2AA2B7"/>
<path d="M218.4 38.9H210.1V269.2H218.4V38.9Z" fill="#EAF4F7"/>
<path d="M374.1 38.9H365.8V269.2H374.1V38.9Z" fill="#EAF4F7"/>
<path opacity="0.5" fill-rule="evenodd" clip-rule="evenodd" d="M384.8 329.7H408.5C408.5 232.7 408.9 117.5 408.9 16.4H384.9C384.8 115.7 384.8 230.3 384.8 329.7Z" fill="#76939D"/>
<path opacity="0.5" fill-rule="evenodd" clip-rule="evenodd" d="M77.3 309.6L138.7 308.6L138.5 295.8L143.7 288.4L175.2 319.9H87.7L77.3 309.6Z" fill="#6F6E6F"/>
<path d="M136.9 307H85.9001V312.7H136.9V307Z" fill="#5E4224"/>
<path d="M86.3001 305.3H80.6001V320H86.3001V305.3Z" fill="#87623A"/>
<path d="M142.1 305.3H136.4V320H142.1V305.3Z" fill="#87623A"/>
<path d="M87.1 287H81.5V305.2H87.1V287Z" fill="#87623A"/>
<path d="M141.3 287H135.7V305.2H141.3V287Z" fill="#87623A"/>
<path d="M145.4 304.4H77.3V310H145.4V304.4Z" fill="#D2A677"/>
<path d="M143.6 288.1H79.1001V293.9H143.6V288.1Z" fill="#D2A677"/>
<path d="M143.6 296.7H79.1001V302.5H143.6V296.7Z" fill="#D2A677"/>
<path fill-rule="evenodd" clip-rule="evenodd" d="M84.2 298.7C84.7 298.7 85.1 299.1 85.1 299.6C85.1 300.1 84.7 300.5 84.2 300.5C83.7 300.5 83.3 300.1 83.3 299.6C83.3 299.1 83.7 298.7 84.2 298.7Z" fill="#5E4224"/>
<path d="M138.5 300.5C138.997 300.5 139.4 300.097 139.4 299.6C139.4 299.103 138.997 298.7 138.5 298.7C138.003 298.7 137.6 299.103 137.6 299.6C137.6 300.097 138.003 300.5 138.5 300.5Z" fill="#5E4224"/>
<path fill-rule="evenodd" clip-rule="evenodd" d="M84.2 290.1C84.7 290.1 85.1 290.5 85.1 291C85.1 291.5 84.7 291.9 84.2 291.9C83.7 291.9 83.3 291.5 83.3 291C83.3 290.5 83.7 290.1 84.2 290.1Z" fill="#5E4224"/>
<path fill-rule="evenodd" clip-rule="evenodd" d="M138.5 290.1C139 290.1 139.4 290.5 139.4 291C139.4 291.5 139 291.9 138.5 291.9C138 291.9 137.6 291.5 137.6 291C137.6 290.5 138 290.1 138.5 290.1Z" fill="#5E4224"/>
</g>
<defs>
<clipPath id="clip0">
<rect width="556" height="377.8" fill="white"/>
</clipPath>
</defs>
</svg>
