<svg width="541" height="280" viewBox="0 0 541 280" fill="none" xmlns="http://www.w3.org/2000/svg">
<g clip-path="url(#clip0)">
<path fill-rule="evenodd" clip-rule="evenodd" d="M515.052 216.324H25.948C11.6453 216.324 0 227.524 0 241.152C0 254.78 11.6453 265.98 25.948 265.98H515.052C529.277 265.98 541 254.78 541 241.152C541 227.524 529.355 216.324 515.052 216.324Z" fill="#70AC43"/>
<path fill-rule="evenodd" clip-rule="evenodd" d="M70.7317 190.4C69.0122 191.888 67.9962 193.846 67.9962 195.961C67.9962 197.057 68.3088 198.154 68.7778 199.094C66.6675 200.895 65.3389 203.401 65.3389 206.064C65.3389 211.782 71.1225 216.403 78.3129 216.403C85.5033 216.403 91.2869 211.782 91.2869 206.064C91.2869 203.401 89.9582 200.895 87.848 199.094C88.3951 198.154 88.6295 197.057 88.6295 195.961C88.6295 193.846 87.6135 191.888 85.8941 190.4C85.9722 189.93 86.0504 189.46 86.0504 188.912C86.0504 186.249 84.7217 183.978 82.6896 182.568C81.5173 178.26 79.5634 170.115 78.0002 170.115C76.3589 170.115 74.7177 178.965 73.7016 182.725C71.7477 184.134 70.4972 186.406 70.4972 188.912C70.5754 189.382 70.6535 189.93 70.7317 190.4Z" fill="#5E8F3F"/>
<path fill-rule="evenodd" clip-rule="evenodd" d="M73.389 190.4C72.2948 191.888 71.5914 193.846 71.5914 195.961C71.5914 197.057 71.7477 198.154 72.1385 199.094C70.7316 200.895 69.9501 203.401 69.9501 206.064C69.9501 211.782 73.7016 216.403 78.3128 216.403C82.9241 216.403 86.6756 211.782 86.6756 206.064C86.6756 203.401 85.8159 200.895 84.4872 199.094C84.7998 198.154 85.0343 197.057 85.0343 195.961C85.0343 193.846 84.3309 191.888 83.2367 190.4C83.3148 189.93 83.3148 189.46 83.3148 188.912C83.3148 186.249 82.4551 183.978 81.1265 182.568C80.4231 178.26 79.0944 170.115 78.0784 170.115C76.9842 170.115 75.9681 178.965 75.3429 182.725C74.0924 184.134 73.3108 186.406 73.3108 188.912C73.3108 189.382 73.389 189.93 73.389 190.4Z" fill="#70AC43"/>
<path fill-rule="evenodd" clip-rule="evenodd" d="M77.0624 190.4C76.7498 191.888 76.5935 193.846 76.5935 195.961C76.5935 197.057 76.6716 198.154 76.7498 199.094C76.359 200.895 76.1245 203.401 76.1245 206.064C76.1245 211.782 77.1405 216.403 78.3129 216.403C79.5634 216.403 80.5013 211.782 80.5013 206.064C80.5013 203.401 80.2668 200.895 79.876 199.094C79.9542 198.154 80.0323 197.057 80.0323 195.961C80.0323 193.846 79.876 191.888 79.5634 190.4C79.5634 189.93 79.5634 189.46 79.5634 188.912C79.5634 186.249 79.3289 183.978 79.0163 182.568C78.7818 178.26 78.4692 170.115 78.2347 170.115C77.9221 170.115 77.6876 178.965 77.5313 182.725C77.2187 184.134 76.9842 186.406 76.9842 188.912C76.9842 189.382 77.0624 189.93 77.0624 190.4Z" fill="#81C141"/>
<path fill-rule="evenodd" clip-rule="evenodd" d="M67.371 212.878H89.333L85.5033 227.603H71.2006L67.371 212.878Z" fill="#105656"/>
<path fill-rule="evenodd" clip-rule="evenodd" d="M67.371 212.878H89.333L88.3169 216.716H68.3089L67.371 212.878Z" fill="#0A3738"/>
<path d="M90.1145 212.643H66.5894V215.933H90.1145V212.643Z" fill="#177173"/>
<path fill-rule="evenodd" clip-rule="evenodd" d="M27.1203 190.4C25.4009 191.888 24.3849 193.846 24.3849 195.961C24.3849 197.057 24.6975 198.154 25.1664 199.094C23.0562 200.895 21.7275 203.401 21.7275 206.064C21.7275 211.782 27.5111 216.403 34.7015 216.403C41.8919 216.403 47.6755 211.782 47.6755 206.064C47.6755 203.401 46.3469 200.895 44.2366 199.094C44.7837 198.154 45.0182 197.057 45.0182 195.961C45.0182 193.846 44.0022 191.888 42.2827 190.4C42.3609 189.93 42.439 189.46 42.439 188.912C42.439 186.249 41.1104 183.978 39.0783 182.568C37.906 178.26 35.952 170.115 34.3889 170.115C32.7476 170.115 31.1063 178.965 30.0903 182.725C28.1364 184.134 26.8859 186.406 26.8859 188.912C26.964 189.382 26.964 189.93 27.1203 190.4Z" fill="#5E8F3F"/>
<path fill-rule="evenodd" clip-rule="evenodd" d="M29.7776 190.4C28.6834 191.888 27.98 193.846 27.98 195.961C27.98 197.057 28.1363 198.154 28.5271 199.094C27.1203 200.895 26.3387 203.401 26.3387 206.064C26.3387 211.782 30.0903 216.403 34.7015 216.403C39.3127 216.403 43.0643 211.782 43.0643 206.064C43.0643 203.401 42.2045 200.895 40.8759 199.094C41.1885 198.154 41.423 197.057 41.423 195.961C41.423 193.846 40.7196 191.888 39.6254 190.4C39.7035 189.93 39.7035 189.46 39.7035 188.912C39.7035 186.249 38.8438 183.978 37.5151 182.568C36.8117 178.26 35.4831 170.115 34.467 170.115C33.3728 170.115 32.3568 178.965 31.7315 182.725C30.481 184.134 29.6995 186.406 29.6995 188.912C29.6995 189.382 29.6995 189.93 29.7776 190.4Z" fill="#70AC43"/>
<path fill-rule="evenodd" clip-rule="evenodd" d="M33.3729 190.4C33.0603 191.888 32.904 193.846 32.904 195.961C32.904 197.057 32.9822 198.154 33.0603 199.094C32.6695 200.895 32.4351 203.401 32.4351 206.064C32.4351 211.782 33.4511 216.403 34.6234 216.403C35.8739 216.403 36.8118 211.782 36.8118 206.064C36.8118 203.401 36.5774 200.895 36.1866 199.094C36.2647 198.154 36.3429 197.057 36.3429 195.961C36.3429 193.846 36.1866 191.888 35.8739 190.4C35.8739 189.93 35.8739 189.46 35.8739 188.912C35.8739 186.249 35.6395 183.978 35.3269 182.568C35.0924 178.26 34.7798 170.115 34.5453 170.115C34.2327 170.115 33.9982 178.965 33.8419 182.725C33.5292 184.134 33.2948 186.406 33.2948 188.912C33.3729 189.382 33.3729 189.93 33.3729 190.4Z" fill="#81C141"/>
<path fill-rule="evenodd" clip-rule="evenodd" d="M23.6814 212.878H45.6434L41.8137 227.603H27.5111L23.6814 212.878Z" fill="#105656"/>
<path fill-rule="evenodd" clip-rule="evenodd" d="M23.6814 212.878H45.6434L44.7055 216.716H24.6974L23.6814 212.878Z" fill="#0A3738"/>
<path d="M46.425 212.643H22.8999V215.933H46.425V212.643Z" fill="#177173"/>
<path fill-rule="evenodd" clip-rule="evenodd" d="M485.587 233.242H55.413C42.908 233.242 32.5913 243.737 32.5913 256.66C32.5913 269.505 42.8298 280.078 55.413 280.078H485.587C498.092 280.078 508.409 269.583 508.409 256.66C508.409 243.737 498.092 233.242 485.587 233.242Z" fill="#8B8B8B"/>
<path opacity="0.5" fill-rule="evenodd" clip-rule="evenodd" d="M273.939 258.461L196.251 238.02L155.297 243.424L128.021 270.758L259.245 271.071L273.939 258.461Z" fill="#6F6E6F"/>
<path d="M422.671 15.8993H107.543V210.842H422.671V15.8993Z" fill="#EAF4F7"/>
<path d="M411.807 103.228H118.251V127.194H411.807V103.228Z" fill="#268DA0"/>
<path d="M411.807 139.256H118.251V163.222H411.807V139.256Z" fill="#268DA0"/>
<path d="M411.807 175.206H118.251V199.172H411.807V175.206Z" fill="#268DA0"/>
<path d="M411.807 31.2504H118.251V55.2168H411.807V31.2504Z" fill="#268DA0"/>
<path opacity="0.5" d="M411.807 31.2504H118.251V39.0825H411.807V31.2504Z" fill="#868686"/>
<path d="M411.807 67.2783H118.251V91.2448H411.807V67.2783Z" fill="#268DA0"/>
<path opacity="0.5" d="M411.807 67.2783H118.251V75.1105H411.807V67.2783Z" fill="#868686"/>
<path opacity="0.5" d="M411.807 103.228H118.251V111.06H411.807V103.228Z" fill="#868686"/>
<path opacity="0.5" d="M411.807 175.206H118.251V183.038H411.807V175.206Z" fill="#868686"/>
<path opacity="0.5" d="M411.807 139.256H118.251V147.088H411.807V139.256Z" fill="#868686"/>
<path d="M422.671 210.842H107.543V230.736H422.671V210.842Z" fill="#156673"/>
<path fill-rule="evenodd" clip-rule="evenodd" d="M319.504 228.621H331.228C332.088 228.621 332.791 227.916 332.791 226.976V223.217C332.791 222.355 332.088 221.572 331.228 221.572H319.504C318.645 221.572 317.941 222.277 317.941 223.217V227.055C317.941 227.916 318.645 228.621 319.504 228.621Z" fill="#1C7F90"/>
<path fill-rule="evenodd" clip-rule="evenodd" d="M335.448 228.621H347.172C348.031 228.621 348.735 227.916 348.735 226.976V223.217C348.735 222.355 348.031 221.572 347.172 221.572H335.448C334.588 221.572 333.885 222.277 333.885 223.217V227.055C333.885 227.916 334.588 228.621 335.448 228.621Z" fill="#1C7F90"/>
<path fill-rule="evenodd" clip-rule="evenodd" d="M351.47 228.621H363.194C364.054 228.621 364.757 227.916 364.757 226.976V223.217C364.757 222.355 364.054 221.572 363.194 221.572H351.47C350.611 221.572 349.907 222.277 349.907 223.217V227.055C349.829 227.916 350.611 228.621 351.47 228.621Z" fill="#1C7F90"/>
<path fill-rule="evenodd" clip-rule="evenodd" d="M367.414 228.621H379.138C379.997 228.621 380.701 227.916 380.701 226.976V223.217C380.701 222.355 379.997 221.572 379.138 221.572H367.414C366.554 221.572 365.851 222.277 365.851 223.217V227.055C365.851 227.916 366.554 228.621 367.414 228.621Z" fill="#1C7F90"/>
<path fill-rule="evenodd" clip-rule="evenodd" d="M383.436 228.621H395.16C396.02 228.621 396.723 227.916 396.723 226.976V223.217C396.723 222.355 396.02 221.572 395.16 221.572H383.436C382.577 221.572 381.873 222.277 381.873 223.217V227.055C381.795 227.916 382.498 228.621 383.436 228.621Z" fill="#1C7F90"/>
<path fill-rule="evenodd" clip-rule="evenodd" d="M399.38 228.621H411.104C411.963 228.621 412.667 227.916 412.667 226.976V223.217C412.667 222.355 411.963 221.572 411.104 221.572H399.38C398.521 221.572 397.817 222.277 397.817 223.217V227.055C397.817 227.916 398.521 228.621 399.38 228.621Z" fill="#1C7F90"/>
<path fill-rule="evenodd" clip-rule="evenodd" d="M415.402 228.621H420.795V221.572H415.402C414.543 221.572 413.839 222.277 413.839 223.217V227.055C413.839 227.916 414.543 228.621 415.402 228.621Z" fill="#1C7F90"/>
<path fill-rule="evenodd" clip-rule="evenodd" d="M303.326 228.621H315.049C315.909 228.621 316.612 227.916 316.612 226.976V223.217C316.612 222.355 315.909 221.572 315.049 221.572H303.326C302.466 221.572 301.763 222.277 301.763 223.217V227.055C301.685 227.916 302.466 228.621 303.326 228.621Z" fill="#1C7F90"/>
<path fill-rule="evenodd" clip-rule="evenodd" d="M359.52 220.006H371.244C372.104 220.006 372.807 219.301 372.807 218.361V214.523C372.807 213.662 372.104 212.878 371.244 212.878H359.52C358.661 212.878 357.957 213.583 357.957 214.523V218.361C357.879 219.222 358.583 220.006 359.52 220.006Z" fill="#1C7F90"/>
<path fill-rule="evenodd" clip-rule="evenodd" d="M327.554 220.006H339.278C340.138 220.006 340.841 219.301 340.841 218.361V214.523C340.841 213.662 340.138 212.878 339.278 212.878H327.554C326.695 212.878 325.991 213.583 325.991 214.523V218.361C325.913 219.222 326.695 220.006 327.554 220.006Z" fill="#1C7F90"/>
<path fill-rule="evenodd" clip-rule="evenodd" d="M343.498 220.006H355.222C356.081 220.006 356.785 219.301 356.785 218.361V214.523C356.785 213.662 356.081 212.878 355.222 212.878H343.498C342.638 212.878 341.935 213.583 341.935 214.523V218.361C341.935 219.222 342.638 220.006 343.498 220.006Z" fill="#1C7F90"/>
<path fill-rule="evenodd" clip-rule="evenodd" d="M375.464 220.006H387.188C388.047 220.006 388.751 219.301 388.751 218.361V214.523C388.751 213.662 388.047 212.878 387.188 212.878H375.464C374.605 212.878 373.901 213.583 373.901 214.523V218.361C373.901 219.222 374.605 220.006 375.464 220.006Z" fill="#1C7F90"/>
<path fill-rule="evenodd" clip-rule="evenodd" d="M391.408 220.006H403.132C403.992 220.006 404.695 219.301 404.695 218.361V214.523C404.695 213.662 403.992 212.878 403.132 212.878H391.408C390.549 212.878 389.845 213.583 389.845 214.523V218.361C389.845 219.222 390.549 220.006 391.408 220.006Z" fill="#1C7F90"/>
<path fill-rule="evenodd" clip-rule="evenodd" d="M407.43 219.849H419.154C420.014 219.849 420.717 219.144 420.717 218.204V214.366C420.717 213.505 420.014 212.722 419.154 212.722H407.43C406.571 212.722 405.867 213.427 405.867 214.366V218.204C405.867 219.144 406.571 219.849 407.43 219.849Z" fill="#1C7F90"/>
<path fill-rule="evenodd" clip-rule="evenodd" d="M311.376 219.849H323.099C323.959 219.849 324.663 219.144 324.663 218.204V214.366C324.663 213.505 323.959 212.722 323.099 212.722H311.376C310.516 212.722 309.813 213.427 309.813 214.366V218.204C309.813 219.144 310.516 219.849 311.376 219.849Z" fill="#1C7F90"/>
<path opacity="0.5" d="M324.116 15.8993H312.001V230.579H324.116V15.8993Z" fill="#868686"/>
<path fill-rule="evenodd" clip-rule="evenodd" d="M211.101 228.621H199.378C198.518 228.621 197.814 227.916 197.814 226.976V223.217C197.814 222.355 198.518 221.572 199.378 221.572H211.101C211.961 221.572 212.664 222.277 212.664 223.217V227.055C212.664 227.916 211.961 228.621 211.101 228.621Z" fill="#1C7F90"/>
<path fill-rule="evenodd" clip-rule="evenodd" d="M195.157 228.621H183.433C182.574 228.621 181.87 227.916 181.87 226.976V223.217C181.87 222.355 182.574 221.572 183.433 221.572H195.157C196.017 221.572 196.72 222.277 196.72 223.217V227.055C196.72 227.916 196.017 228.621 195.157 228.621Z" fill="#1C7F90"/>
<path fill-rule="evenodd" clip-rule="evenodd" d="M179.135 228.621H167.412C166.552 228.621 165.848 227.916 165.848 226.976V223.217C165.848 222.355 166.552 221.572 167.412 221.572H179.135C179.995 221.572 180.698 222.277 180.698 223.217V227.055C180.776 227.916 179.995 228.621 179.135 228.621Z" fill="#1C7F90"/>
<path fill-rule="evenodd" clip-rule="evenodd" d="M163.191 228.621H151.467C150.608 228.621 149.904 227.916 149.904 226.976V223.217C149.904 222.355 150.608 221.572 151.467 221.572H163.191C164.051 221.572 164.754 222.277 164.754 223.217V227.055C164.754 227.916 164.051 228.621 163.191 228.621Z" fill="#1C7F90"/>
<path fill-rule="evenodd" clip-rule="evenodd" d="M147.169 228.621H135.445C134.586 228.621 133.882 227.916 133.882 226.976V223.217C133.882 222.355 134.586 221.572 135.445 221.572H147.169C148.029 221.572 148.732 222.277 148.732 223.217V227.055C148.81 227.916 148.029 228.621 147.169 228.621Z" fill="#1C7F90"/>
<path fill-rule="evenodd" clip-rule="evenodd" d="M131.225 228.621H119.501C118.642 228.621 117.938 227.916 117.938 226.976V223.217C117.938 222.355 118.642 221.572 119.501 221.572H131.225C132.085 221.572 132.788 222.277 132.788 223.217V227.055C132.788 227.916 132.085 228.621 131.225 228.621Z" fill="#1C7F90"/>
<path fill-rule="evenodd" clip-rule="evenodd" d="M115.203 228.621H109.81V221.572H115.203C116.063 221.572 116.766 222.277 116.766 223.217V227.055C116.766 227.916 116.063 228.621 115.203 228.621Z" fill="#1C7F90"/>
<path fill-rule="evenodd" clip-rule="evenodd" d="M227.279 228.621H215.556C214.696 228.621 213.993 227.916 213.993 226.976V223.217C213.993 222.355 214.696 221.572 215.556 221.572H227.279C228.139 221.572 228.842 222.277 228.842 223.217V227.055C228.842 227.916 228.139 228.621 227.279 228.621Z" fill="#1C7F90"/>
<path fill-rule="evenodd" clip-rule="evenodd" d="M171.085 220.006H159.361C158.502 220.006 157.798 219.301 157.798 218.361V214.523C157.798 213.662 158.502 212.878 159.361 212.878H171.085C171.944 212.878 172.648 213.583 172.648 214.523V218.361C172.726 219.222 172.023 220.006 171.085 220.006Z" fill="#1C7F90"/>
<path fill-rule="evenodd" clip-rule="evenodd" d="M203.051 220.006H191.327C190.468 220.006 189.764 219.301 189.764 218.361V214.523C189.764 213.662 190.468 212.878 191.327 212.878H203.051C203.911 212.878 204.614 213.583 204.614 214.523V218.361C204.692 219.222 203.911 220.006 203.051 220.006Z" fill="#1C7F90"/>
<path fill-rule="evenodd" clip-rule="evenodd" d="M187.107 220.006H175.383C174.524 220.006 173.82 219.301 173.82 218.361V214.523C173.82 213.662 174.524 212.878 175.383 212.878H187.107C187.967 212.878 188.67 213.583 188.67 214.523V218.361C188.67 219.222 187.967 220.006 187.107 220.006Z" fill="#1C7F90"/>
<path fill-rule="evenodd" clip-rule="evenodd" d="M155.141 220.006H143.417C142.558 220.006 141.854 219.301 141.854 218.361V214.523C141.854 213.662 142.558 212.878 143.417 212.878H155.141C156.001 212.878 156.704 213.583 156.704 214.523V218.361C156.704 219.222 156.001 220.006 155.141 220.006Z" fill="#1C7F90"/>
<path fill-rule="evenodd" clip-rule="evenodd" d="M139.119 220.006H127.395C126.535 220.006 125.832 219.301 125.832 218.361V214.523C125.832 213.662 126.535 212.878 127.395 212.878H139.119C139.978 212.878 140.682 213.583 140.682 214.523V218.361C140.76 219.222 140.057 220.006 139.119 220.006Z" fill="#1C7F90"/>
<path fill-rule="evenodd" clip-rule="evenodd" d="M123.175 219.849H111.451C110.592 219.849 109.888 219.144 109.888 218.204V214.366C109.888 213.505 110.592 212.722 111.451 212.722H123.175C124.035 212.722 124.738 213.427 124.738 214.366V218.204C124.738 219.144 124.035 219.849 123.175 219.849Z" fill="#1C7F90"/>
<path fill-rule="evenodd" clip-rule="evenodd" d="M219.229 219.849H207.506C206.646 219.849 205.943 219.144 205.943 218.204V214.366C205.943 213.505 206.646 212.722 207.506 212.722H219.229C220.089 212.722 220.792 213.427 220.792 214.366V218.204C220.792 219.144 220.089 219.849 219.229 219.849Z" fill="#1C7F90"/>
<path opacity="0.5" d="M308.562 0H201.41V37.6727H308.562V0Z" fill="#868686"/>
<path d="M369.759 19.6587H362.646V207.004H369.759V19.6587Z" fill="#EAF4F7"/>
<path d="M159.049 19.6587H151.937V207.004H159.049V19.6587Z" fill="#EAF4F7"/>
<path opacity="0.5" fill-rule="evenodd" clip-rule="evenodd" d="M186.482 15.8993L107.543 94.4559V230.657H194.688V15.8993H186.482Z" fill="#868686"/>
<path opacity="0.5" fill-rule="evenodd" clip-rule="evenodd" d="M186.482 230.657H202.113V210.842V15.8993H186.482V210.842V230.657Z" fill="#868686"/>
<path d="M315.284 7.75378H194.688V233.242H315.284V7.75378Z" fill="#F7FBF9"/>
<path d="M308.64 13.5497H201.253V174.736H308.64V13.5497Z" fill="#3AB7CE"/>
<path d="M233.61 11.5133H231.422V198.859H233.61V11.5133Z" fill="#F7FBF9"/>
<path d="M279.644 11.5133H277.456V198.859H279.644V11.5133Z" fill="#F7FBF9"/>
<path d="M311.767 32.9734H198.127V34.3832H311.767V32.9734Z" fill="#F7FBF9"/>
<path d="M311.767 57.0182H198.127V58.428H311.767V57.0182Z" fill="#F7FBF9"/>
<path d="M311.767 80.9846H198.127V82.3944H311.767V80.9846Z" fill="#F7FBF9"/>
<path d="M311.767 104.951H198.127V106.361H311.767V104.951Z" fill="#F7FBF9"/>
<path d="M311.767 128.917H198.127V130.327H311.767V128.917Z" fill="#F7FBF9"/>
<path d="M311.767 152.884H198.127V154.294H311.767V152.884Z" fill="#F7FBF9"/>
<path opacity="0.5" d="M308.484 34.3049H201.331V37.1245H308.484V34.3049Z" fill="#868686"/>
<path opacity="0.5" d="M308.484 58.2714H201.331V60.9343H308.484V58.2714Z" fill="#868686"/>
<path opacity="0.5" d="M308.484 82.2378H201.331V85.214H308.484V82.2378Z" fill="#868686"/>
<path opacity="0.5" d="M308.484 106.204H201.331V109.102H308.484V106.204Z" fill="#868686"/>
<path opacity="0.5" d="M308.484 130.249H201.331V133.382H308.484V130.249Z" fill="#868686"/>
<path opacity="0.5" d="M308.484 154.215H201.331V157.192H308.484V154.215Z" fill="#868686"/>
<path d="M309.187 187.737H201.253V232.694H309.187V187.737Z" fill="#3AB7CE"/>
<path fill-rule="evenodd" clip-rule="evenodd" d="M258.933 203.558V232.694H257.213V203.558H243.927V232.694H239.941V189.617H243.927V200.973H272.61V189.617H276.674V232.694H272.61V203.558H258.933Z" fill="#34A5B9"/>
<path d="M284.49 186.014H278.159V232.694H284.49V186.014Z" fill="#F7FBF9"/>
<path d="M232.907 186.014H226.576V232.694H232.907V186.014Z" fill="#F7FBF9"/>
<path d="M256.588 200.739H253.774V232.694H256.588V200.739Z" fill="#F7FBF9"/>
<path d="M279.175 198.311H231.187V201.13H279.175V198.311Z" fill="#F7FBF9"/>
<path opacity="0.5" fill-rule="evenodd" clip-rule="evenodd" d="M306.999 185.701L201.097 186.327L194.688 192.75V233.242H267.452L311.532 189.069L306.999 185.701Z" fill="#868686"/>
<path d="M311.532 180.453H198.361V189.069H311.532V180.453Z" fill="#F7FBF9"/>
<path opacity="0.5" d="M311.532 189.068H198.361V195.961H311.532V189.068Z" fill="#868686"/>
<path fill-rule="evenodd" clip-rule="evenodd" d="M234.861 259.01H222.121H203.676H170.069H158.892C157.407 255.015 153.89 252.196 149.67 252.196C145.449 252.196 141.932 255.015 140.447 259.01H128.958C128.489 256.973 128.489 254.702 128.88 252.509C129.271 249.376 130.521 246.322 132.554 244.599C139.119 239.194 144.668 233.164 147.872 229.796C154.359 223.138 154.906 222.59 168.662 222.434V212.408C168.662 211.547 169.287 210.764 170.147 210.764H239.237C240.019 210.764 240.722 211.469 240.722 212.408V257.365C240.722 258.227 240.097 259.01 239.237 259.01H234.861Z" fill="white"/>
<path fill-rule="evenodd" clip-rule="evenodd" d="M173.742 259.01H170.225V222.512H172.101V257.443C172.101 258.305 172.882 259.01 173.742 259.01Z" fill="#D6E5F1"/>
<path fill-rule="evenodd" clip-rule="evenodd" d="M234.861 259.01H222.121H203.676H170.069C154.516 259.01 144.512 259.01 128.88 259.01C128.411 256.973 128.411 254.702 128.802 252.509C128.802 252.274 128.88 252.118 128.88 251.883H240.644V257.365C240.644 258.227 240.019 259.01 239.159 259.01H234.861Z" fill="#D6E5F1"/>
<path fill-rule="evenodd" clip-rule="evenodd" d="M167.49 226.741C168.349 226.741 169.053 227.446 169.053 228.308V239.664C169.053 240.526 168.349 241.231 167.49 241.231L148.419 241.309C145.996 241.309 146.231 239.038 147.403 237.236C149.279 234.104 152.249 230.657 155.297 228.073C157.329 226.271 164.91 226.741 167.49 226.741Z" fill="#086E95"/>
<path fill-rule="evenodd" clip-rule="evenodd" d="M198.908 226.82H179.369C178.197 226.82 177.259 227.759 177.259 228.934V239.194C177.259 240.369 178.197 241.309 179.369 241.309H198.908C200.081 241.309 201.019 240.369 201.019 239.194V228.934C201.019 227.759 200.081 226.82 198.908 226.82Z" fill="#086E95"/>
<path fill-rule="evenodd" clip-rule="evenodd" d="M153.656 250.081C148.107 250.081 143.652 254.545 143.652 260.106C143.652 265.667 148.107 270.131 153.656 270.131C159.205 270.131 163.66 265.667 163.66 260.106C163.66 254.624 159.205 250.081 153.656 250.081Z" fill="#044D76"/>
<path d="M153.656 266.372C157.066 266.372 159.83 263.602 159.83 260.184C159.83 256.767 157.066 253.997 153.656 253.997C150.246 253.997 147.481 256.767 147.481 260.184C147.481 263.602 150.246 266.372 153.656 266.372Z" fill="#7499B0"/>
<path fill-rule="evenodd" clip-rule="evenodd" d="M153.656 255.955C151.311 255.955 149.436 257.835 149.436 260.185C149.436 262.534 151.311 264.414 153.656 264.414C156.001 264.414 157.876 262.534 157.876 260.185C157.876 257.835 156.001 255.955 153.656 255.955Z" fill="#57788B"/>
<path d="M153.656 255.329C153.872 255.329 154.047 255.153 154.047 254.937C154.047 254.721 153.872 254.545 153.656 254.545C153.44 254.545 153.265 254.721 153.265 254.937C153.265 255.153 153.44 255.329 153.656 255.329Z" fill="#043D54"/>
<path d="M153.656 265.745C153.872 265.745 154.047 265.57 154.047 265.354C154.047 265.137 153.872 264.962 153.656 264.962C153.44 264.962 153.265 265.137 153.265 265.354C153.265 265.57 153.44 265.745 153.656 265.745Z" fill="#043D54"/>
<path d="M148.419 260.576C148.635 260.576 148.81 260.401 148.81 260.185C148.81 259.968 148.635 259.793 148.419 259.793C148.204 259.793 148.029 259.968 148.029 260.185C148.029 260.401 148.204 260.576 148.419 260.576Z" fill="#043D54"/>
<path d="M158.892 260.576C159.108 260.576 159.283 260.401 159.283 260.185C159.283 259.968 159.108 259.793 158.892 259.793C158.676 259.793 158.501 259.968 158.501 260.185C158.501 260.401 158.676 260.576 158.892 260.576Z" fill="#043D54"/>
<path d="M149.983 256.817C150.198 256.817 150.373 256.641 150.373 256.425C150.373 256.209 150.198 256.034 149.983 256.034C149.767 256.034 149.592 256.209 149.592 256.425C149.592 256.641 149.767 256.817 149.983 256.817Z" fill="#043D54"/>
<path d="M157.329 264.257C157.545 264.257 157.72 264.082 157.72 263.866C157.72 263.649 157.545 263.474 157.329 263.474C157.113 263.474 156.938 263.649 156.938 263.866C156.938 264.082 157.113 264.257 157.329 264.257Z" fill="#043D54"/>
<path fill-rule="evenodd" clip-rule="evenodd" d="M149.67 264.101C149.826 264.257 150.061 264.257 150.217 264.101C150.373 263.944 150.373 263.709 150.217 263.552C150.061 263.396 149.826 263.396 149.67 263.552C149.514 263.709 149.514 263.944 149.67 264.101Z" fill="#043D54"/>
<path d="M157.329 256.817C157.545 256.817 157.72 256.641 157.72 256.425C157.72 256.209 157.545 256.034 157.329 256.034C157.113 256.034 156.938 256.209 156.938 256.425C156.938 256.641 157.113 256.817 157.329 256.817Z" fill="#043D54"/>
<path fill-rule="evenodd" clip-rule="evenodd" d="M220.089 250.081C214.54 250.081 210.085 254.545 210.085 260.106C210.085 265.667 214.54 270.131 220.089 270.131C225.638 270.131 230.093 265.667 230.093 260.106C230.093 254.624 225.638 250.081 220.089 250.081Z" fill="#044D76"/>
<path d="M220.089 266.372C223.499 266.372 226.263 263.602 226.263 260.184C226.263 256.767 223.499 253.997 220.089 253.997C216.679 253.997 213.915 256.767 213.915 260.184C213.915 263.602 216.679 266.372 220.089 266.372Z" fill="#7499B0"/>
<path fill-rule="evenodd" clip-rule="evenodd" d="M220.089 255.955C217.744 255.955 215.869 257.835 215.869 260.185C215.869 262.534 217.744 264.414 220.089 264.414C222.434 264.414 224.31 262.534 224.31 260.185C224.31 257.835 222.434 255.955 220.089 255.955Z" fill="#57788B"/>
<path d="M220.089 255.329C220.305 255.329 220.48 255.153 220.48 254.937C220.48 254.721 220.305 254.545 220.089 254.545C219.873 254.545 219.698 254.721 219.698 254.937C219.698 255.153 219.873 255.329 220.089 255.329Z" fill="#043D54"/>
<path d="M220.089 265.745C220.305 265.745 220.48 265.57 220.48 265.354C220.48 265.137 220.305 264.962 220.089 264.962C219.873 264.962 219.698 265.137 219.698 265.354C219.698 265.57 219.873 265.745 220.089 265.745Z" fill="#043D54"/>
<path d="M214.852 260.576C215.068 260.576 215.243 260.401 215.243 260.185C215.243 259.968 215.068 259.793 214.852 259.793C214.637 259.793 214.462 259.968 214.462 260.185C214.462 260.401 214.637 260.576 214.852 260.576Z" fill="#043D54"/>
<path d="M225.325 260.576C225.541 260.576 225.716 260.401 225.716 260.185C225.716 259.968 225.541 259.793 225.325 259.793C225.11 259.793 224.935 259.968 224.935 260.185C224.935 260.401 225.11 260.576 225.325 260.576Z" fill="#043D54"/>
<path d="M216.416 256.817C216.632 256.817 216.806 256.641 216.806 256.425C216.806 256.209 216.632 256.034 216.416 256.034C216.2 256.034 216.025 256.209 216.025 256.425C216.025 256.641 216.2 256.817 216.416 256.817Z" fill="#043D54"/>
<path fill-rule="evenodd" clip-rule="evenodd" d="M223.528 263.552C223.372 263.709 223.372 263.944 223.528 264.101C223.684 264.257 223.919 264.257 224.075 264.101C224.231 263.944 224.231 263.709 224.075 263.552C223.919 263.396 223.684 263.396 223.528 263.552Z" fill="#043D54"/>
<path d="M216.416 264.257C216.632 264.257 216.806 264.082 216.806 263.866C216.806 263.649 216.632 263.474 216.416 263.474C216.2 263.474 216.025 263.649 216.025 263.866C216.025 264.082 216.2 264.257 216.416 264.257Z" fill="#043D54"/>
<path d="M223.762 256.817C223.978 256.817 224.153 256.641 224.153 256.425C224.153 256.209 223.978 256.034 223.762 256.034C223.547 256.034 223.372 256.209 223.372 256.425C223.372 256.641 223.547 256.817 223.762 256.817Z" fill="#043D54"/>
<path opacity="0.5" fill-rule="evenodd" clip-rule="evenodd" d="M167.489 226.741C168.349 226.741 169.053 227.446 169.053 228.308V239.664C169.053 240.526 168.349 241.231 167.489 241.231H167.411C167.489 240.996 167.568 240.839 167.568 240.604V229.248C167.568 228.386 166.864 227.681 166.004 227.681C163.816 227.681 157.798 227.368 154.906 228.386L155.297 228.073C157.329 226.271 164.91 226.741 167.489 226.741Z" fill="#086E95"/>
<path opacity="0.5" fill-rule="evenodd" clip-rule="evenodd" d="M198.909 226.82H179.369C178.666 226.82 177.963 227.211 177.572 227.759C177.65 227.759 177.728 227.759 177.806 227.759H197.345C198.518 227.759 199.456 228.699 199.456 229.874V240.134C199.456 240.526 199.299 240.917 199.143 241.309C200.159 241.152 201.019 240.291 201.019 239.194V228.934C201.019 227.759 200.081 226.82 198.909 226.82Z" fill="#086E95"/>
<path fill-rule="evenodd" clip-rule="evenodd" d="M229.468 226.82H209.929C208.756 226.82 207.818 227.759 207.818 228.934V239.194C207.818 240.369 208.756 241.309 209.929 241.309H229.468C230.64 241.309 231.578 240.369 231.578 239.194V228.934C231.578 227.759 230.64 226.82 229.468 226.82Z" fill="#086E95"/>
<path opacity="0.5" fill-rule="evenodd" clip-rule="evenodd" d="M229.468 226.82H209.928C209.225 226.82 208.522 227.211 208.131 227.759C208.209 227.759 208.287 227.759 208.365 227.759H227.904C229.077 227.759 230.015 228.699 230.015 229.874V240.134C230.015 240.526 229.858 240.917 229.702 241.309C230.718 241.152 231.578 240.291 231.578 239.194V228.934C231.578 227.759 230.64 226.82 229.468 226.82Z" fill="#086E95"/>
<path opacity="0.5" fill-rule="evenodd" clip-rule="evenodd" d="M501.765 225.096L452.527 224.392L452.683 214.053L448.463 208.101L423.218 233.477H493.481L501.765 225.096Z" fill="#6F6E6F"/>
<path d="M494.888 223.06H454.012V227.681H494.888V223.06Z" fill="#5E4224"/>
<path d="M499.186 221.65H494.575V233.477H499.186V221.65Z" fill="#87623A"/>
<path d="M454.324 221.65H449.713V233.477H454.324V221.65Z" fill="#87623A"/>
<path d="M498.405 207.004H493.95V221.65H498.405V207.004Z" fill="#87623A"/>
<path d="M454.871 207.004H450.417V221.65H454.871V207.004Z" fill="#87623A"/>
<path d="M501.765 220.945H447.056V225.41H501.765V220.945Z" fill="#D2A677"/>
<path d="M500.359 207.787H448.541V212.487H500.359V207.787Z" fill="#D2A677"/>
<path d="M500.359 214.758H448.541V219.457H500.359V214.758Z" fill="#D2A677"/>
<path fill-rule="evenodd" clip-rule="evenodd" d="M496.216 216.324C495.825 216.324 495.513 216.638 495.513 217.029C495.513 217.421 495.825 217.734 496.216 217.734C496.607 217.734 496.919 217.421 496.919 217.029C496.919 216.638 496.607 216.324 496.216 216.324Z" fill="#5E4224"/>
<path d="M452.683 217.813C453.071 217.813 453.386 217.497 453.386 217.108C453.386 216.718 453.071 216.403 452.683 216.403C452.294 216.403 451.979 216.718 451.979 217.108C451.979 217.497 452.294 217.813 452.683 217.813Z" fill="#5E4224"/>
<path fill-rule="evenodd" clip-rule="evenodd" d="M496.216 209.432C495.825 209.432 495.513 209.745 495.513 210.137C495.513 210.529 495.825 210.842 496.216 210.842C496.607 210.842 496.919 210.529 496.919 210.137C496.919 209.745 496.607 209.432 496.216 209.432Z" fill="#5E4224"/>
<path fill-rule="evenodd" clip-rule="evenodd" d="M452.683 209.432C452.292 209.432 451.979 209.745 451.979 210.137C451.979 210.529 452.292 210.842 452.683 210.842C453.074 210.842 453.386 210.529 453.386 210.137C453.386 209.745 453.074 209.432 452.683 209.432Z" fill="#5E4224"/>
</g>
<defs>
<clipPath id="clip0">
<rect width="541" height="280" fill="white"/>
</clipPath>
</defs>
</svg>
