<svg width="33" height="38" viewBox="0 0 33 38" fill="none" xmlns="http://www.w3.org/2000/svg">
<g clip-path="url(#clip0)">
<path d="M2.9 0C10.7 0 18.5 0 26.2 0C28.6 0.9 29.2 1.9 29.2 4.5C29.2 5.6 29.2 6.7 29.2 7.8C32.2 8.2 33.4 10.2 32.4 13.1C31.4 15.8 30.4 18.4 29.5 21.1C29.3 21.6 29.2 22.1 29.2 22.6C29.2 26.4 29.2 30.1 29.2 33.9C29.2 36.3 27.7 37.8 25.3 37.8C18.1 37.8 10.9 37.8 3.7 37.8C1.5 37.8 0 36.3 0 34C0 23.9 0 13.8 0 3.7C0 3 0.3 2.3 0.6 1.7C1.1 0.7 2 0.4 2.9 0ZM27.1 28.1C26.8 28.6 26.5 29 26.2 29.3C25.2 30.1 24.1 30.8 23.1 31.6C22.3 32.2 21.5 31.9 21.2 30.9C20.9 29.9 20.8 28.9 20.4 27.9C20.1 27 20.2 26.2 20.6 25.3C21.3 23.5 21.9 21.8 22.6 19.9C22.2 19.9 21.9 19.9 21.6 19.9C16.3 19.9 10.9 19.9 5.6 19.9C4.6 19.9 4 19.5 4 18.8C4 18.1 4.6 17.7 5.6 17.7C5.8 17.7 5.9 17.7 6.1 17.7C11.6 17.7 17.1 17.7 22.6 17.7C22.9 17.7 23.4 17.6 23.5 17.4C24 16.3 24.4 15.1 24.8 13.8C24.6 13.8 24.5 13.8 24.4 13.8C18.1 13.8 11.9 13.8 5.6 13.8C5.3 13.8 5 13.9 4.9 13.8C4.5 13.7 4.1 13.4 4 13C3.9 12.7 4.2 12.2 4.5 12C4.7 11.8 5.1 11.9 5.5 11.9C11.6 11.9 17.6 11.9 23.7 11.9C24.2 11.9 24.8 12.1 25.4 12.3C27.1 8.7 27.1 8.7 27.1 4.7C27.1 4.4 27.1 4.2 27.1 3.9C27.1 2.7 26.6 2.2 25.4 2.2C18.2 2.2 11 2.2 3.8 2.2C2.6 2.2 2.1 2.8 2.1 4C2.1 14 2.1 23.9 2.1 33.9C2.1 35.2 2.6 35.7 3.9 35.7C7 35.7 10.2 35.7 13.3 35.7C17.3 35.7 21.4 35.7 25.4 35.7C26.5 35.7 27.1 35.2 27.1 34.3C27.1 32.2 27.1 30.2 27.1 28.1ZM23 29.1C23.7 28.5 24.6 28 24.9 27.3C26.9 22.2 28.7 17 30.5 11.8C30.6 11.4 30.6 10.9 30.3 10.6C30.1 10.3 29.4 10 29.1 10.1C28.6 10.2 28.1 10.7 28 11.1C26.2 15.8 24.6 20.6 22.8 25.3C22.4 26.6 22.5 27.7 23 29.1Z" fill="black"/>
<path d="M14.5999 5.90002C17.7999 5.90002 20.8999 5.90002 24.0999 5.90002C24.9999 5.90002 25.4999 6.50002 25.2999 7.30002C24.9999 7.80002 24.5999 7.90002 23.9999 7.90002C21.5999 7.90002 19.1999 7.90002 16.7999 7.90002C13.0999 7.90002 9.39995 7.90002 5.69995 7.90002C5.49995 7.90002 5.29995 7.90002 4.99995 7.90002C4.29995 7.90002 3.79995 7.50002 3.89995 6.90002C3.89995 6.20002 4.29995 5.90002 5.09995 5.90002C7.49995 5.90002 9.99995 5.90002 12.3999 5.90002C13.0999 5.90002 13.7999 5.90002 14.5999 5.90002Z" fill="black"/>
<path d="M9.49994 25.9C8.09994 25.9 6.59994 25.9 5.19994 25.9C4.39994 25.9 3.79994 25.5 3.89994 24.8C3.99994 24.1 4.39994 23.8 5.19994 23.8C8.09994 23.8 10.8999 23.8 13.7999 23.8C14.5999 23.8 14.9999 24.2 14.9999 24.8C14.9999 25.5 14.5999 25.8 13.7999 25.8C12.3999 25.9 10.8999 25.9 9.49994 25.9Z" fill="black"/>
<path d="M9.50002 31.9C8.10002 31.9 6.60002 31.9 5.20002 31.9C4.40002 31.9 3.90002 31.5 3.90002 30.9C3.90002 30.3 4.40002 29.9 5.20002 29.9C8.10002 29.9 11 29.9 13.8 29.9C14.5 29.9 14.9 30.2 15 30.9C15 31.6 14.6 32 13.8 32C12.4 31.9 10.9 31.9 9.50002 31.9Z" fill="black"/>
</g>
<defs>
<clipPath id="clip0">
<rect width="32.8" height="37.8" fill="white"/>
</clipPath>
</defs>
</svg>
