<svg width="258" height="256" viewBox="0 0 258 256" fill="none" xmlns="http://www.w3.org/2000/svg">
<g clip-path="url(#clip0)">
<path fill-rule="evenodd" clip-rule="evenodd" d="M95.4 160.7C64.1 159.4 23 169.2 16 136C12.8 120.9 19.7 105.1 30.2 99.2C42.1 92.4 62.2 95.4 78.3 94.6L72.8 79.9C31.1 79.2 -0.90003 84.6 -2.98452e-05 129.4C0.39997 148.9 11.9 163.3 23.1 169.6C39 178.5 59.9 174.7 79.9 175.8C82.6 194.3 70.8 248.4 121.5 255.4C160.7 260.9 183.2 229.1 175 189.3C167.8 154.7 143.6 134.3 126.7 113.9C54.6 26.8 122 4.30003 147.7 19.6C183.3 40.9 136.8 138.4 183.4 168.4C237.5 203.3 284.5 123.5 239.9 89.2C229 80.8 205.2 74.9 189.7 81.4L188 94.7C207.6 95.1 224 92.5 234.4 104.6C253.7 127.1 236.1 172.3 196.2 158C154.7 143.1 195.5 51.7 166.6 15.6C147.4 -8.39997 102 -3.79997 87.9 20.2C54.5 77.2 132.6 134.6 151.8 169.5C167.1 197.3 168.6 240 128.8 240.3C85.2 240.9 97.9 194.8 95.4 160.7Z" fill="#EC1C24"/>
</g>
<defs>
<clipPath id="clip0">
<rect width="257.7" height="256" fill="white"/>
</clipPath>
</defs>
</svg>
