<svg width="207" height="210" viewBox="0 0 207 210" fill="none" xmlns="http://www.w3.org/2000/svg">
<path d="M75.7238 77.7261C73.4873 74.2343 71.5703 70.5563 69.8815 66.8317C66.5953 59.5223 64.2218 51.9335 63.7198 43.8325C63.4003 38.8043 63.8111 33.8693 65.1347 29.0273C66.504 23.9992 68.4666 19.2503 71.4334 14.9671C75.313 9.33366 80.6988 5.7022 86.8605 3.18812C92.6571 0.813701 98.7732 -0.163999 105.026 0.0222297C112.512 0.255015 119.541 2.02419 125.976 6.21433C129.673 8.6353 132.731 11.6615 135.15 15.3395C136.839 17.9002 138.071 20.7402 139.076 23.6733C142.225 33.0778 142.636 42.8083 142.681 52.5853C142.727 62.0364 141.997 71.4875 141.677 80.9386C141.495 86.572 141.358 92.1588 141.632 97.7923C141.905 103.891 142.59 109.944 144.69 115.717C146.241 120.093 148.706 123.864 152.358 126.704C154.001 127.961 155.826 128.892 157.789 129.591C162.901 131.36 168.104 132.291 173.49 131.453C177.096 130.894 180.428 129.591 183.44 127.403C188.415 123.818 191.519 118.929 193.345 113.11C195.17 107.29 195.262 101.377 193.573 95.5575C191.838 89.4585 188.552 84.3372 183.029 81.0782C180.382 79.5418 177.461 78.7038 174.449 78.1917C168.378 77.214 162.308 77.4933 156.237 77.5399C154.777 77.5399 153.362 77.4933 151.901 77.4933C151.353 77.4933 151.034 77.4002 151.08 76.7019C151.445 73.536 151.81 70.4166 152.175 67.2508C152.266 66.3662 153.133 66.2265 153.772 66.0403C156.557 65.1557 159.387 64.597 162.262 64.4108C167.237 64.0849 172.121 64.6436 176.913 65.854C182.345 67.2042 187.639 69.1596 192.204 72.5583C196.266 75.631 199.598 79.3556 202.154 83.8251C205.577 89.831 207.129 96.3024 206.992 103.146C206.9 109.804 205.257 116.089 202.336 122.049C200.419 126.006 198 129.684 195.033 132.896C190.56 137.645 185.357 141.323 179.104 143.325C172.988 145.281 166.872 145.42 160.71 143.884C156.055 142.72 151.764 140.671 147.702 138.064C143.092 135.085 139.441 131.22 136.702 126.471C134.511 122.7 132.96 118.65 131.91 114.367C129.399 104.031 129.08 93.509 129.354 82.894C129.536 76.5156 129.673 70.1373 129.993 63.759C130.358 55.4718 130.54 47.2312 129.673 38.9906C129.217 34.3814 128.35 29.8654 126.433 25.6752C124.059 20.3677 120.317 16.4103 114.794 14.3618C114.337 13.8031 113.607 13.9428 113.014 13.7566C108.267 12.4064 103.474 12.1271 98.6363 12.9186C92.7028 13.8963 87.3626 16.1776 82.9809 20.5074C78.0515 25.3028 75.815 31.2621 75.5868 38.106C75.313 45.3689 77.1843 52.1662 79.8772 58.8239C81.6116 63.1072 83.7112 67.2042 86.039 71.2081C88.5037 75.4448 91.2422 79.4953 94.0721 83.4527C97.4496 88.1549 101.055 92.7175 104.798 97.0939C107.993 100.865 111.416 104.45 114.611 108.221C116.893 110.875 119.175 113.529 121.366 116.322C125.428 121.49 129.262 126.797 132.412 132.57C133.872 135.271 135.196 138.064 136.383 140.904C137.569 143.744 138.619 146.584 139.441 149.517C141.769 157.758 142.864 166.092 141.951 174.658C141.312 180.245 139.943 185.646 137.341 190.627C134.374 196.307 130.358 200.963 124.972 204.408C117.852 208.971 110.047 210.414 101.786 209.902C96.5824 209.576 91.4704 208.552 86.6323 206.457C79.7859 203.524 74.5371 198.775 70.9769 192.07C67.5081 185.552 66.1388 178.476 65.4542 171.213C64.6326 162.972 65.1347 154.685 64.6783 146.398C64.5413 143.977 64.6326 144.396 62.5331 144.303C54.8651 143.977 47.1972 144.629 39.4836 144.303C34.6911 144.117 29.9443 143.651 25.3344 142.301C18.5793 140.299 13.1478 136.295 8.72052 130.755C4.47576 125.401 1.69157 119.302 0.596147 112.504C-0.134133 108.081 -0.134133 103.658 0.27665 99.189C0.687432 95.1385 1.41771 91.1811 2.87827 87.3634C4.65833 82.6612 7.48817 78.7504 11.3678 75.5845C15.1105 72.5583 19.3096 70.5563 23.8282 69.1596C30.4464 67.1111 37.2471 66.3662 44.1391 65.9472C48.4295 65.7144 52.7656 65.6678 57.056 65.6213C57.8775 65.6213 58.3796 65.8075 58.7447 66.7386C59.8858 70.0907 61.1638 73.3497 62.3961 76.6553C62.7613 77.633 62.3505 77.8192 61.5289 77.8192C55.3215 77.8192 49.1142 77.8658 42.9524 77.8658C38.1143 77.8658 33.3675 78.3314 28.6663 79.6815C23.4631 81.2179 19.6291 84.5235 16.7992 89.1326C13.0109 95.2782 11.596 102.029 12.4176 109.199C12.9653 114.087 14.5171 118.65 17.6665 122.514C20.9984 126.658 25.38 128.986 30.3551 130.336C38.9359 132.71 47.6992 132.431 56.417 132.198C62.8982 132.012 69.3794 131.732 75.8607 131.826C76.6822 131.826 76.9105 132.151 76.9561 132.896C77.1387 135.504 77.093 138.157 77.093 140.765C77.093 148.4 77.0017 155.989 77.0474 163.624C77.093 169.071 77.5495 174.518 79.01 179.826C80.0598 183.83 81.7942 187.461 84.5784 190.534C87.2257 193.421 90.5576 195.236 94.3003 196.168C101.192 197.89 108.084 197.797 114.839 195.469C118.993 194.026 122.553 191.558 125.2 187.88C127.391 184.808 128.806 181.409 129.582 177.731C130.86 171.632 130.632 165.579 129.536 159.527C128.76 155.337 127.574 151.333 126.113 147.329C124.424 142.86 122.279 138.623 119.678 134.666C117.35 131.174 114.794 127.822 112.146 124.516C107.582 118.836 102.835 113.296 98.1342 107.709C94.6198 103.472 91.1509 99.1424 87.7277 94.8126C83.8938 89.8775 80.3793 84.7563 76.9561 79.4953C76.8648 79.4022 76.8648 79.2159 76.8192 79.0763C76.4997 78.471 76.2258 78.0055 75.7238 77.7261Z" fill="white"/>
</svg>
