<svg width="203" height="71" viewBox="0 0 203 71" fill="none" xmlns="http://www.w3.org/2000/svg">
<g clip-path="url(#clip0)">
<path d="M26.1 25.9C25.4 24.7 24.7 23.5 24.2 22.2C23.1 19.7 22.4 17.2 22.3 14.5C22.2 12.8 22.4 11.2 22.9 9.60003C23.4 7.90003 24.1 6.40003 25.1 4.90003C26.5 3.00003 28.3 1.90003 30.4 1.10003C32.4 0.30003 34.5 0.10003 36.6 0.20003C39.2 0.30003 41.6 1.00003 43.7 2.40003C45 3.20003 46 4.30003 46.8 5.50003C47.4 6.40003 47.8 7.30003 48.1 8.30003C49.1 11.5 49.2 14.7 49.1 18C49 21.2 48.7 24.3 48.6 27.5C48.5 29.4 48.4 31.3 48.5 33.1C48.5 35.1 48.7 37.2 49.4 39.1C49.9 40.6 50.7 41.9 52 42.8C52.6 43.2 53.2 43.6 53.8 43.8C55.5 44.4 57.3 44.8 59.1 44.5C60.3 44.3 61.5 43.9 62.5 43.2C64.2 42 65.3 40.4 66 38.5C66.7 36.6 66.7 34.6 66.2 32.6C65.6 30.5 64.6 28.8 62.7 27.7C61.8 27.2 60.8 26.9 59.8 26.7C57.7 26.3 55.7 26.4 53.6 26.4C53.1 26.4 52.6 26.4 52.1 26.4C51.9 26.4 51.8 26.4 51.8 26.1C52 25 52.1 24 52.2 22.9C52.2 22.6 52.5 22.6 52.8 22.5C53.8 22.2 54.7 22.1 55.7 22C57.4 21.9 59.1 22.1 60.7 22.6C62.6 23.1 64.3 23.8 65.9 25C67.3 26.1 68.4 27.3 69.2 28.8C70.3 30.8 70.8 33 70.7 35.3C70.6 37.5 70 39.6 69 41.6C68.3 42.9 67.5 44.1 66.4 45.2C64.8 46.8 63 48 60.9 48.6C58.8 49.2 56.7 49.2 54.6 48.7C53 48.3 51.6 47.6 50.2 46.7C48.6 45.7 47.4 44.3 46.5 42.7C45.8 41.4 45.3 40 44.9 38.6C44.1 35.1 44.1 31.6 44.2 28C44.3 25.9 44.4 23.7 44.5 21.6C44.7 18.8 44.8 16.1 44.6 13.3C44.5 11.8 44.2 10.2 43.6 8.80003C42.8 7.00003 41.6 5.60003 39.7 4.90003C39.5 4.70003 39.3 4.80003 39.1 4.70003C37.7 4.20003 36 4.00003 34.4 4.30003C32.4 4.60003 30.5 5.30003 29 6.70003C27.3 8.30003 26.5 10.3 26.3 12.5C26.2 14.9 26.7 17.2 27.6 19.5C28.2 20.9 28.9 22.3 29.6 23.7C30.4 25.1 31.3 26.5 32.3 27.9C33.4 29.5 34.6 31.1 35.9 32.6C37 33.9 38.1 35.1 39.2 36.4C40 37.3 40.7 38.2 41.5 39.2C42.9 41 44.1 42.8 45.2 44.7C45.7 45.6 46.1 46.6 46.5 47.5C46.9 48.5 47.2 49.4 47.5 50.4C48.2 53.2 48.6 56 48.2 58.8C47.9 60.7 47.4 62.5 46.5 64.1C45.5 66 44 67.5 42.2 68.6C39.7 70.1 37.1 70.5 34.2 70.3C32.4 70.2 30.7 69.8 29 69C26.7 68 24.9 66.3 23.7 64.1C22.6 61.9 22.1 59.5 22 57.1C21.8 54.3 22 51.6 21.9 48.8C21.9 48 21.9 48.1 21.2 48.1C18.6 47.9 16 48.1 13.3 47.9C11.7 47.8 9.99999 47.6 8.49999 47.1C6.19999 46.4 4.39999 45 2.89999 43.1C1.49999 41.3 0.599988 39.2 0.199988 36.9C-1.22041e-05 35.4 -1.22041e-05 33.9 0.199988 32.4C0.399988 31 0.699988 29.7 1.19999 28.5C1.79999 26.9 2.79999 25.6 4.19999 24.6C5.49999 23.6 6.89999 23 8.49999 22.5C10.8 21.9 13.1 21.7 15.5 21.6C17 21.5 18.4 21.6 19.9 21.6C20.2 21.6 20.4 21.7 20.5 22C20.9 23.1 21.3 24.2 21.7 25.3C21.8 25.6 21.7 25.7 21.4 25.7C19.3 25.7 17.2 25.6 15 25.6C13.3 25.6 11.7 25.7 10.1 26.1C8.29999 26.6 6.99999 27.7 5.99999 29.2C4.69999 31.2 4.09999 33.5 4.39999 35.9C4.59999 37.5 5.09999 39.1 6.09999 40.4C7.19999 41.8 8.69999 42.6 10.4 43.1C13.3 44 16.3 43.9 19.3 43.9C21.5 43.9 23.7 43.8 25.9 43.9C26.2 43.9 26.3 44 26.3 44.3C26.3 45.2 26.3 46.1 26.3 46.9C26.2 49.5 26.2 52 26.1 54.6C26.1 56.4 26.2 58.3 26.7 60C27 61.3 27.6 62.6 28.5 63.6C29.4 64.6 30.5 65.2 31.8 65.6C34.1 66.2 36.5 66.2 38.8 65.5C40.2 65.1 41.5 64.2 42.4 63C43.2 62 43.7 60.9 44 59.6C44.5 57.6 44.4 55.5 44.1 53.5C43.9 52.1 43.5 50.7 43 49.4C42.5 47.9 41.8 46.5 40.9 45.1C40.1 43.9 39.3 42.8 38.4 41.6C36.9 39.7 35.3 37.8 33.7 35.9C32.5 34.5 31.4 33 30.2 31.5C28.9 29.8 27.8 28.1 26.6 26.3V26.2C26.4 26.1 26.3 26 26.1 25.9Z" fill="#D1463F"/>
<path d="M169.2 18.8001C169.2 18.3001 169.2 17.8001 169.2 17.3001C169.2 16.2001 169.9 15.6001 170.9 15.6001C171.5 15.6001 172.1 15.6001 172.7 15.6001C173.6 15.6001 174.3 16.2001 174.3 17.1001C174.4 18.3001 174.4 19.5001 174.2 20.6001C174.1 21.4001 173.7 21.8001 172.9 21.8001C172.1 21.8001 171.4 21.8001 170.6 21.8001C169.6 21.8001 169.1 21.2001 169.1 20.3001C169.1 19.8001 169.2 19.3001 169.2 18.8001Z" fill="#353335"/>
<path d="M135.1 36.8001C135.1 34.8001 135.2 32.8001 135.2 30.8001C135.2 30.1001 135.1 30.0001 134.4 29.9001C133.9 29.9001 133.3 29.9001 132.8 29.9001C131.9 29.9001 131.3 29.3001 131.3 28.4001C131.3 27.8001 131.3 27.3001 131.3 26.7001C131.3 25.8001 132 25.2001 132.8 25.2001C133.4 25.2001 133.9 25.2001 134.5 25.2001C135.1 25.2001 135.3 25.0001 135.3 24.4001C135.3 23.2001 135.3 21.9001 135.4 20.7001C135.4 19.6001 136.1 19.0001 137.2 19.0001C137.6 19.0001 138.1 19.0001 138.5 19.0001C139.7 18.9001 140.5 19.9001 140.5 21.0001C140.5 22.2001 140.5 23.4001 140.4 24.6001C140.4 25.1001 140.6 25.3001 141.1 25.3001C142.4 25.3001 143.7 25.3001 145 25.4001C146.3 25.4001 146.9 26.0001 146.8 27.3001C146.8 27.7001 146.8 28.1001 146.8 28.5001C146.8 29.7001 146.2 30.2001 145.1 30.2001C143.9 30.2001 142.6 30.2001 141.4 30.1001C140.4 30.1001 140.4 30.1001 140.4 31.1001C140.3 34.7001 140.3 38.4001 140.2 42.0001C140.2 42.6001 140.2 43.2001 140.4 43.8001C140.8 45.1001 141.8 45.9001 143.4 46.0001C143.9 46.0001 144.4 46.0001 145 46.0001C145.9 46.0001 146.4 46.4001 146.5 47.3001C146.6 48.1001 146.6 48.9001 146.4 49.7001C146.3 50.3001 145.8 50.7001 145.2 50.7001C143.1 50.8001 141.1 50.8001 139.1 49.9001C137.1 49.0001 136.1 47.4001 135.5 45.4001C135.2 44.2001 135.1 43.0001 135.1 41.8001C135 40.2001 135.1 38.5001 135.1 36.8001Z" fill="#353335"/>
<path d="M151.6 41.8C151.6 39.4 151.7 37 151.7 34.7C151.7 33 152 31.4 152.9 29.9C154.2 27.5 156.4 26.2 159 25.8C160.3 25.6 161.7 25.7 163 25.7C163.9 25.7 164.5 26.4 164.5 27.3C164.5 27.9 164.5 28.4 164.5 29C164.5 30 163.9 30.5 162.9 30.5C162.1 30.5 161.4 30.5 160.6 30.5C158.5 30.6 157.3 32.1001 156.9 33.9001C156.8 34.5001 156.8 35.1 156.7 35.7C156.6 40.1 156.6 44.5001 156.5 48.9001C156.5 49.3001 156.5 49.6 156.4 50C156.2 50.6 155.8 51 155.1 51C154.3 51 153.5 51.1 152.7 51C152 50.9 151.6 50.5 151.5 49.8C151.5 49.5 151.5 49.2001 151.5 48.9001C151.5 46.4001 151.6 44.1 151.6 41.8Z" fill="#353335"/>
<path d="M116.5 41.0001C116.5 38.4001 116.5 35.8001 116.6 33.2001C116.8 30.2001 118 27.7001 120.8 26.2001C122.2 25.4001 123.8 25.1001 125.4 25.1001C126.1 25.1001 126.9 25.1001 127.6 25.1001C128.7 25.1001 129.3 25.7001 129.3 26.8001C129.3 27.4001 129.3 28.0001 129.2 28.6001C129.2 29.3001 128.7 29.8001 128 29.8001C127.2 29.8001 126.3 29.8001 125.5 29.8001C123.6 29.8001 122.2 31.0001 121.8 32.9001C121.7 33.5001 121.6 34.2001 121.6 34.8001C121.5 39.4001 121.4 43.9001 121.4 48.5001C121.4 49.2001 121.2 49.9001 120.4 50.2001C119.3 50.5001 118.2 50.4001 117.2 50.2001C116.6 50.1001 116.3 49.5001 116.3 48.8001C116.4 46.2001 116.4 43.6001 116.5 41.0001Z" fill="#353335"/>
<path d="M168.8 38.4001C168.9 34.7001 168.9 31 169 27.3C169 26.4 169.7 25.8 170.6 25.8C171.2 25.8 171.8 25.8 172.4 25.8C173.4 25.8 174 26.5 174 27.5C173.9 34.3 173.8 41.2 173.7 48C173.7 48.7 173.7 49.3 173.6 50C173.5 50.7 173.1 51.1 172.4 51.1C171.6 51.2 170.8 51.2 170 51.1C169 51 168.6 50.5 168.6 49.6C168.6 48.8 168.6 48.1 168.6 47.3C168.7 44.4 168.7 41.4001 168.8 38.4001Z" fill="#353335"/>
<path d="M111.3 47.2001C110.5 44.6001 109.7 42.0001 109 39.4001C107.4 34.2001 105.8 28.9001 104.2 23.7001C103.1 20.2001 102.1 16.6001 101 13.1001C100.7 12.2001 100.2 11.8001 99.2 11.7001C98.5 11.7001 97.8 11.7001 97.1 11.7001C96.7 11.7001 96.3 11.7001 96 11.7001C95.6 11.7001 95.2 11.7001 94.9 11.7001C94 11.7001 93.6 12.0001 93.3 12.9001C92.5 15.2001 91.7 17.5001 90.9 19.8001C89.5 24.0001 88 28.3001 86.6 32.5001C85.1 36.8001 83.7 41.1001 82.2 45.4001C81.9 46.3001 81.5 47.3001 81.2 48.2001C80.9 49.2001 81.2 49.7001 82.2 49.8001C83.2 49.9001 84.3 49.8001 85.3 49.8001C86.2 49.8001 86.8 49.4001 87 48.5001C87.5 47.0001 87.9 45.5001 88.4 44.0001C88.7 43.0001 89 41.9001 89.4 40.9001C89.6 40.2001 90.1 40.1001 90.7 40.4001C91.8 41.1001 92.9 41.7001 94 42.4001C97.7 44.6001 101.4 46.9001 105.1 49.1001C105.9 49.6001 106.7 50.2001 107.7 50.4001C108.3 50.6001 108.9 50.5001 109.4 50.1001C109.7 49.8001 110.1 49.6001 110.4 49.3001C111.3 48.9001 111.6 48.2001 111.3 47.2001ZM103.6 41.8001C103.3 42.1001 103.1 41.9001 102.8 41.7001C101.4 40.9001 100 40.0001 98.6 39.1001C96.5 37.8001 94.4 36.6001 92.3 35.3001C91.8 35.0001 91.5 34.6001 91.6 34.0001C91.7 33.0001 92.1 32.1001 92.4 31.2001C93.2 28.5001 94.1 25.8001 94.9 23.1001C95.4 21.6001 95.8 20.2001 96.3 18.7001C96.3 18.6001 96.4 18.5001 96.4 18.4001C96.5 18.2001 96.7 18.0001 96.9 18.0001C97.2 18.0001 97.3 18.2001 97.4 18.5001C97.7 19.5001 98 20.5001 98.3 21.5001C99.1 24.4001 99.9 27.3001 100.7 30.1001C101.5 33.1001 102.4 36.1001 103.2 39.1001C103.3 39.6001 103.5 40.2001 103.7 40.7001C103.9 41.3001 103.9 41.6001 103.6 41.8001Z" fill="#353335"/>
<path d="M202.2 28.1001C202.2 26.8001 201.6 26.4001 200.3 26.3001C197.6 26.3001 194.9 26.2001 192.2 26.2001C190.6 26.2001 189 26.4001 187.5 27.1001C183.6 28.9001 181.4 32.0001 181.3 36.4001C181.2 38.3001 181.2 40.2001 181.2 42.1001C181.2 43.5001 181.3 44.9001 181.9 46.2001C182.8 48.3001 184 50.1001 186.1 51.2001C188.1 52.2001 190.1 52.2001 192.3 51.9001C193.8 51.6001 195.1 51.1001 196.1 49.8001C196.2 49.6001 196.4 49.6001 196.6 49.6001C196.8 49.7001 196.8 49.9001 196.9 50.1001C197 51.0001 197.5 51.5001 198.4 51.6001C199.2 51.7001 200 51.7001 200.8 51.6001C201.3 51.6001 201.6 51.3001 201.8 50.9001C202 50.5001 202 50.0001 202 49.5001C202.1 46.0001 202.1 42.5001 202.2 39.0001C202.2 36.5001 202.3 34.1001 202.3 31.6001C202.2 30.5001 202.2 29.3001 202.2 28.1001ZM196.8 42.1001C196.1 46.9001 191.9 48.2001 188.6 46.8001C187.1 46.2001 186.3 44.8001 186.2 43.2001C186.1 40.8001 186.1 38.4001 186.3 36.0001C186.6 33.4001 188.6 31.1001 191.6 31.0001C193.1 31.0001 194.7 31.0001 196.2 31.0001C196.8 31.0001 196.9 31.2001 196.9 31.8001C196.9 33.4001 196.8 35.0001 196.8 37.0001C196.9 38.4001 197.1 40.3001 196.8 42.1001Z" fill="#353335"/>
<path d="M108.4 62.8001H107.8V60.7001C107.8 60.5001 107.8 60.4001 107.8 60.2001C107.8 60.0001 107.8 59.9001 107.7 59.8001C107.6 59.7001 107.6 59.6001 107.5 59.6001C107.4 59.5001 107.3 59.5001 107.1 59.5001C106.9 59.5001 106.7 59.5001 106.6 59.6001C106.4 59.7001 106.2 59.8001 106.1 59.9001C106.1 60.0001 106.1 60.0001 106.1 60.1001C106.1 60.2001 106.1 60.2001 106.1 60.3001V62.7001H105.5V60.6001C105.5 60.4001 105.5 60.3001 105.5 60.1001C105.5 60.0001 105.5 59.8001 105.4 59.7001C105.3 59.6001 105.3 59.5001 105.2 59.5001C105.1 59.5001 105 59.4001 104.8 59.4001C104.6 59.4001 104.5 59.4001 104.3 59.5001C104.1 59.6001 103.9 59.7001 103.8 59.8001V62.6001H103.2L103.3 58.8001H103.9V59.2001C104.1 59.0001 104.3 58.9001 104.5 58.8001C104.7 58.7001 104.9 58.7001 105.1 58.7001C105.4 58.7001 105.6 58.8001 105.8 58.9001C106 59.0001 106.1 59.2001 106.2 59.4001C106.5 59.2001 106.7 59.0001 106.9 58.9001C107.1 58.8001 107.3 58.8001 107.6 58.8001C108 58.8001 108.3 58.9001 108.5 59.2001C108.7 59.5001 108.8 59.8001 108.8 60.3001L108.4 62.8001Z" fill="#353335"/>
<path d="M114.7 61.1H111.9C111.9 61.3 111.9 61.5 112 61.7C112.1 61.9 112.2 62 112.3 62.1C112.4 62.2 112.6 62.3 112.7 62.3C112.9 62.4 113 62.4 113.2 62.4C113.5 62.4 113.7 62.4 114 62.3C114.3 62.2 114.4 62.1 114.6 62V62.7C114.4 62.8 114.2 62.9 113.9 62.9C113.7 63 113.4 63 113.2 63C112.6 63 112.1 62.8 111.7 62.5C111.4 62.2 111.2 61.7 111.2 61C111.2 60.4 111.4 59.9 111.7 59.5C112 59.1 112.5 59 113 59C113.5 59 113.9 59.2 114.2 59.5C114.5 59.8 114.6 60.2 114.6 60.8L114.7 61.1ZM114.1 60.6C114.1 60.3 114 60 113.9 59.8C113.7 59.6 113.5 59.5 113.1 59.5C112.8 59.5 112.5 59.6 112.3 59.8C112.1 60 112 60.2 111.9 60.5L114.1 60.6Z" fill="#353335"/>
<path d="M120.6 63H120V62.6C119.8 62.8 119.6 62.9 119.4 63C119.2 63.1 119 63.1 118.8 63.1C118.3 63.1 118 62.9 117.7 62.6C117.4 62.2 117.3 61.8 117.3 61.2C117.3 60.9 117.4 60.6 117.5 60.3C117.6 60.1 117.7 59.8 117.9 59.7C118.1 59.5 118.2 59.4 118.4 59.3C118.6 59.2 118.8 59.2 119 59.2C119.2 59.2 119.4 59.2 119.5 59.3C119.7 59.3 119.8 59.4 120 59.5V57.9H120.6V63ZM120 62.1V59.9C119.8 59.8 119.7 59.8 119.5 59.7C119.4 59.7 119.2 59.7 119.1 59.6C118.7 59.6 118.5 59.7 118.3 60C118.1 60.2 118 60.6 118 61C118 61.4 118.1 61.8 118.2 62C118.3 62.2 118.6 62.4 118.9 62.4C119.1 62.4 119.3 62.4 119.4 62.3C119.7 62.3 119.9 62.2 120 62.1Z" fill="#353335"/>
<path d="M124.6 58.7H123.9V58H124.6V58.7ZM124.5 63.1H123.9L124 59.3H124.6L124.5 63.1Z" fill="#353335"/>
<path d="M130.4 63C130.2 63.1 130 63.2 129.8 63.2C129.6 63.3 129.4 63.3 129.2 63.3C128.9 63.3 128.7 63.3 128.5 63.2C128.3 63.1 128.1 63 127.9 62.8C127.7 62.6 127.6 62.4 127.5 62.2C127.4 62 127.4 61.7 127.4 61.3C127.4 60.7 127.6 60.2 127.9 59.9C128.2 59.6 128.7 59.4 129.3 59.4C129.5 59.4 129.7 59.4 129.9 59.5C130.1 59.6 130.3 59.6 130.5 59.7V60.4C130.3 60.2 130.1 60.1 129.9 60C129.7 59.9 129.5 59.9 129.3 59.9C128.9 59.9 128.7 60 128.4 60.2C128.2 60.4 128.1 60.8 128.1 61.3C128.1 61.8 128.2 62.1 128.4 62.4C128.6 62.6 128.9 62.8 129.3 62.8C129.4 62.8 129.6 62.8 129.7 62.8C129.8 62.8 130 62.7 130.1 62.7C130.2 62.7 130.3 62.6 130.4 62.6C130.5 62.5 130.5 62.5 130.6 62.5L130.4 63Z" fill="#353335"/>
<path d="M136.1 63.3H135.5V62.9C135.4 62.9 135.4 63 135.3 63.1C135.2 63.2 135.1 63.2 135 63.3C134.9 63.3 134.8 63.4 134.6 63.4C134.5 63.4 134.3 63.4 134.1 63.4C133.8 63.4 133.5 63.3 133.2 63C133 62.8 132.9 62.5 132.9 62.1C132.9 61.8 133 61.6 133.1 61.4C133.2 61.2 133.4 61.1 133.6 61C133.8 60.9 134.1 60.8 134.4 60.8C134.7 60.8 135.1 60.7 135.4 60.7V60.6C135.4 60.5 135.4 60.3 135.3 60.2C135.3 60.1 135.2 60 135.1 60C135 59.9 134.9 59.9 134.8 59.9C134.7 59.9 134.5 59.9 134.4 59.9C134.2 59.9 134 59.9 133.8 60C133.6 60 133.4 60.1 133.2 60.2V59.6C133.3 59.6 133.5 59.5 133.7 59.5C133.9 59.5 134.2 59.4 134.4 59.5C134.7 59.5 134.9 59.5 135.1 59.6C135.3 59.6 135.5 59.7 135.6 59.8C135.7 59.9 135.8 60 135.9 60.2C136 60.4 136 60.6 136 60.8L136.1 63.3ZM135.5 62.3V61.3C135.3 61.3 135.1 61.3 134.8 61.3C134.5 61.3 134.3 61.3 134.2 61.4C134 61.4 133.9 61.5 133.8 61.6C133.7 61.7 133.6 61.9 133.6 62C133.6 62.2 133.7 62.4 133.8 62.5C133.9 62.6 134.1 62.7 134.4 62.7C134.6 62.7 134.8 62.7 135 62.6C135.2 62.6 135.3 62.5 135.5 62.3Z" fill="#353335"/>
<path d="M139.9 63.3H139.3L139.4 58H140L139.9 63.3Z" fill="#353335"/>
<path d="M148.7 63.1001C148.7 63.7001 148.5 64.2001 148.2 64.5001C147.9 64.8001 147.5 64.9001 146.9 64.9001C146.7 64.9001 146.5 64.9001 146.3 64.8001C146.1 64.8001 145.9 64.7001 145.7 64.7001V64.1001C145.8 64.1001 146 64.2001 146.2 64.3001C146.4 64.4001 146.6 64.4001 146.9 64.4001C147.1 64.4001 147.3 64.4001 147.4 64.3001C147.5 64.3001 147.7 64.2001 147.7 64.1001C147.8 64.0001 147.8 63.9001 147.9 63.8001C147.9 63.7001 148 63.5001 148 63.4001V63.1001C147.8 63.2001 147.6 63.4001 147.4 63.4001C147.2 63.5001 147 63.5001 146.7 63.5001C146.2 63.5001 145.9 63.3001 145.6 63.0001C145.3 62.7001 145.2 62.2001 145.2 61.6001C145.2 61.3001 145.3 61.0001 145.4 60.8001C145.5 60.6001 145.6 60.4001 145.8 60.2001C145.9 60.0001 146.1 59.9001 146.3 59.8001C146.5 59.7001 146.7 59.7001 146.9 59.7001C147.1 59.7001 147.3 59.7001 147.4 59.8001C147.5 59.8001 147.7 59.9001 147.9 60.0001V59.8001H148.5L148.7 63.1001ZM148.1 62.4001V60.3001C147.9 60.2001 147.8 60.2001 147.6 60.1001C147.4 60.0001 147.3 60.0001 147.2 60.0001C146.9 60.0001 146.6 60.1001 146.4 60.3001C146.2 60.5001 146.1 60.9001 146.1 61.3001C146.1 61.7001 146.2 62.0001 146.3 62.3001C146.4 62.5001 146.7 62.6001 147 62.6001C147.2 62.6001 147.4 62.6001 147.6 62.5001C147.8 62.7001 147.9 62.6001 148.1 62.4001Z" fill="#353335"/>
<path d="M154.8 63.6001H154.2V63.2001C154.1 63.2001 154.1 63.3001 154 63.4001C153.9 63.5001 153.8 63.5001 153.7 63.6001C153.6 63.6001 153.5 63.7001 153.3 63.7001C153.2 63.7001 153 63.7001 152.8 63.7001C152.5 63.7001 152.2 63.6001 151.9 63.3001C151.7 63.1001 151.6 62.8001 151.6 62.4001C151.6 62.1001 151.7 61.9001 151.8 61.7001C151.9 61.5001 152.1 61.4001 152.3 61.3001C152.5 61.2001 152.8 61.1001 153.1 61.1001C153.4 61.1001 153.8 61.0001 154.1 61.0001V60.9001C154.1 60.8001 154.1 60.6001 154 60.5001C154 60.4001 153.9 60.3001 153.8 60.3001C153.7 60.2001 153.6 60.2001 153.5 60.2001C153.4 60.2001 153.2 60.2001 153.1 60.2001C152.9 60.2001 152.7 60.2001 152.5 60.3001C152.3 60.3001 152.1 60.4001 151.9 60.5001V59.9001C152 59.9001 152.2 59.8001 152.4 59.8001C152.6 59.8001 152.9 59.7001 153.1 59.8001C153.4 59.8001 153.6 59.8001 153.8 59.9001C154 59.9001 154.2 60.0001 154.3 60.1001C154.4 60.2001 154.5 60.3001 154.6 60.5001C154.7 60.7001 154.7 60.9001 154.7 61.1001L154.8 63.6001ZM154.2 62.7001V61.7001C154 61.7001 153.8 61.7001 153.5 61.7001C153.2 61.7001 153 61.7001 152.9 61.8001C152.7 61.8001 152.6 61.9001 152.5 62.0001C152.4 62.1001 152.3 62.3001 152.3 62.4001C152.3 62.6001 152.4 62.8001 152.5 62.9001C152.6 63.0001 152.8 63.1001 153.1 63.1001C153.3 63.1001 153.5 63.1001 153.7 63.0001C153.9 62.9001 154.1 62.8001 154.2 62.7001Z" fill="#353335"/>
<path d="M160 63.6C159.9 63.6 159.7 63.7001 159.6 63.7001C159.5 63.7001 159.3 63.7001 159.2 63.7001C158.8 63.7001 158.5 63.6001 158.3 63.4001C158.1 63.2001 158 62.9001 158 62.4001V60.4001H157.6V59.9001H158V58.8H158.6V59.9001H159.9V60.4001H158.6V62.1C158.6 62.3 158.6 62.5 158.6 62.6C158.6 62.7 158.6 62.8001 158.7 62.9001C158.7 63.0001 158.8 63.1 158.9 63.1C159 63.1 159.1 63.2001 159.3 63.2001C159.4 63.2001 159.5 63.2001 159.6 63.2001C159.7 63.2001 159.8 63.1 159.8 63.1L160 63.6Z" fill="#353335"/>
<path d="M165.8 61.9001H163C163 62.1001 163 62.3 163.1 62.5C163.2 62.7 163.3 62.8001 163.4 62.9001C163.5 63.0001 163.7 63.1 163.8 63.1C164 63.2 164.1 63.2001 164.3 63.2001C164.6 63.2001 164.8 63.2 165.1 63.1C165.4 63 165.5 62.9 165.7 62.8V63.5C165.5 63.6 165.3 63.7001 165 63.7001C164.8 63.8001 164.5 63.8 164.3 63.8C163.7 63.8 163.2 63.6 162.8 63.3C162.5 63 162.3 62.5 162.3 61.8C162.3 61.2 162.5 60.7 162.8 60.3C163.1 59.9 163.6 59.8 164.1 59.8C164.6 59.8 165 60 165.3 60.3C165.6 60.6 165.7 61 165.7 61.6L165.8 61.9001ZM165.2 61.5C165.2 61.2 165.1 60.9001 165 60.7001C164.8 60.5001 164.6 60.4001 164.3 60.4001C164 60.4001 163.7 60.5001 163.5 60.7001C163.3 60.9001 163.2 61.1001 163.1 61.4001L165.2 61.5Z" fill="#353335"/>
<path d="M173.5 60.1001L172.5 63.9001H171.9L171 61.0001L170 63.9001H169.4L168.5 60.1001H169.2L169.8 63.0001L170.8 60.1001H171.3L172.2 63.0001L172.9 60.1001H173.5Z" fill="#353335"/>
<path d="M179.2 64.0001H178.6V63.6001C178.5 63.6001 178.5 63.7001 178.4 63.8001C178.3 63.9001 178.2 63.9001 178.1 64.0001C178 64.0001 177.9 64.1001 177.7 64.1001C177.6 64.1001 177.4 64.1001 177.2 64.1001C176.9 64.1001 176.6 64.0001 176.3 63.7001C176.1 63.5001 176 63.2001 176 62.8001C176 62.5001 176.1 62.3001 176.2 62.1001C176.3 61.9001 176.5 61.8001 176.7 61.7001C176.9 61.6001 177.2 61.5001 177.5 61.5001C177.8 61.5001 178.2 61.4001 178.5 61.4001V61.3001C178.5 61.2001 178.5 61.0001 178.4 60.9001C178.4 60.8001 178.3 60.7001 178.2 60.7001C178.1 60.6001 178 60.6001 177.9 60.6001C177.8 60.6001 177.6 60.6001 177.5 60.6001C177.3 60.6001 177.1 60.6001 176.9 60.7001C176.7 60.7001 176.5 60.8001 176.3 60.9001V60.3001C176.4 60.3001 176.6 60.2001 176.8 60.2001C177 60.2001 177.3 60.1001 177.5 60.2001C177.8 60.2001 178 60.2001 178.2 60.3001C178.4 60.3001 178.6 60.4001 178.7 60.5001C178.8 60.6001 178.9 60.7001 179 60.9001C179.1 61.1001 179.1 61.3001 179.1 61.5001L179.2 64.0001ZM178.5 63.0001V62.0001C178.3 62.0001 178.1 62.0001 177.8 62.0001C177.5 62.0001 177.3 62.0001 177.2 62.1001C177 62.1001 176.9 62.2001 176.8 62.3001C176.7 62.4001 176.6 62.6001 176.6 62.7001C176.6 62.9001 176.7 63.1001 176.8 63.2001C176.9 63.3001 177.1 63.4001 177.4 63.4001C177.6 63.4001 177.8 63.4001 178 63.3001C178.2 63.3001 178.4 63.2001 178.5 63.0001Z" fill="#353335"/>
<path d="M185.6 60.3001L183.3 65.4001H182.6L183.3 63.8001L181.9 60.2001H182.6L183.7 63.0001L184.9 60.2001L185.6 60.3001Z" fill="#353335"/>
</g>
<defs>
<clipPath id="clip0">
<rect width="202.2" height="70.4" fill="white"/>
</clipPath>
</defs>
</svg>
