<svg width="253" height="295" viewBox="0 0 253 295" fill="none" xmlns="http://www.w3.org/2000/svg">
<g clip-path="url(#clip0)">
<path d="M251.463 16.3632C248.541 6.60669 239.7 0.230387 229.86 0.153564C191.038 -0.0769043 152.215 -0.0769043 113.393 0.153564C101.246 0.230387 91.2523 9.44914 90.9447 21.0494C90.5604 37.7968 90.4835 54.5442 90.2529 71.2916C90.176 76.2851 90.2529 81.2786 90.2529 86.8866C88.6385 86.8866 87.3316 86.8866 86.0247 86.8866C65.4218 86.8866 44.7421 87.1939 24.1392 86.8098C11.3778 86.5793 -0.153697 97.2577 5.54427e-05 109.857C0.384437 137.897 0.0769318 165.937 0.0769318 193.978C0.0769318 227.626 0.0769318 261.351 0.0769318 295C70.8032 295 141.529 295 212.256 295C212.256 275.41 212.179 255.82 212.179 236.23C212.179 194.592 212.102 153.031 212.179 111.393C212.179 97.565 201.954 86.6562 187.501 86.8098C163.055 87.1171 138.531 86.8866 114.085 86.8866C112.547 86.8866 111.086 86.8866 109.318 86.8866C109.241 85.2734 109.164 84.0442 109.088 82.815C109.088 63.4556 109.088 44.1731 109.088 24.8137C109.088 19.7434 110.471 18.2838 115.699 18.2838C152.83 18.2838 190.038 18.2838 227.17 18.2838C232.551 18.2838 234.473 20.2812 234.473 26.1197C234.473 47.8606 234.473 69.6783 234.473 91.4192C234.473 159.254 234.473 227.088 234.473 295C240.623 295 246.773 295 252.923 295C252.923 203.581 252.923 112.161 252.923 20.7421C252.462 19.2825 251.924 17.8228 251.463 16.3632ZM187.117 105.17C191.499 105.17 193.882 107.322 193.882 111.547C193.882 165.707 193.882 219.867 193.882 274.027C193.882 274.488 193.728 275.026 193.652 275.794C168.897 275.794 144.297 275.794 119.235 275.794C119.235 259.661 119.235 243.605 119.235 227.088C109.779 227.088 101.016 227.088 91.8673 227.088C91.8673 243.221 91.8673 259.277 91.8673 275.717C67.2668 275.717 43.0508 275.717 18.3735 275.717C18.3735 274.258 18.3735 272.952 18.3735 271.569C18.3735 218.331 18.3735 165.092 18.3735 111.777C18.3735 106.63 19.7573 105.247 24.908 105.247C79.0289 105.17 133.073 105.094 187.117 105.17Z" fill="#D6D6D6"/>
<path d="M210.334 68.1419C210.334 58.6159 210.334 49.3971 210.334 40.332C200.878 40.332 191.73 40.332 182.658 40.332C182.658 49.7044 182.658 58.8463 182.658 68.1419C191.96 68.1419 200.955 68.1419 210.334 68.1419Z" fill="#D6D6D6"/>
<path d="M159.595 68.1419C159.595 58.6927 159.595 49.474 159.595 40.332C150.37 40.332 141.529 40.332 132.688 40.332C132.688 49.7044 132.688 58.8463 132.688 68.1419C141.683 68.1419 150.447 68.1419 159.595 68.1419Z" fill="#D6D6D6"/>
<path d="M169.743 127.91C160.287 127.91 151.062 127.91 141.914 127.91C141.914 137.359 141.914 146.501 141.914 155.566C151.293 155.566 160.441 155.566 169.743 155.566C169.743 146.348 169.743 137.283 169.743 127.91Z" fill="#D6D6D6"/>
<path d="M68.8813 127.91C59.4255 127.91 50.2772 127.91 41.2827 127.91C41.2827 137.359 41.2827 146.501 41.2827 155.566C50.5848 155.566 59.6562 155.566 68.8813 155.566C68.8813 146.271 68.8813 137.206 68.8813 127.91Z" fill="#D6D6D6"/>
<path d="M118.851 127.91C109.626 127.91 100.785 127.91 91.9441 127.91C91.9441 137.283 91.9441 146.424 91.9441 155.72C100.939 155.72 109.779 155.72 118.851 155.72C118.851 146.194 118.851 136.975 118.851 127.91Z" fill="#D6D6D6"/>
<path d="M68.8813 177.845C59.3486 177.845 50.2003 177.845 41.2058 177.845C41.2058 187.064 41.2058 195.898 41.2058 204.656C50.5847 204.656 59.733 204.656 68.8813 204.656C68.8813 195.591 68.8813 186.833 68.8813 177.845Z" fill="#D6D6D6"/>
<path d="M169.666 177.768C160.287 177.768 151.139 177.768 141.837 177.768C141.837 186.833 141.837 195.668 141.837 204.733C151.37 204.733 160.518 204.733 169.666 204.733C169.666 195.591 169.666 186.756 169.666 177.768Z" fill="#D6D6D6"/>
<path d="M68.9581 229.24C68.9581 228.548 67.6512 227.242 66.9593 227.165C58.4261 227.012 49.8928 227.089 41.1289 227.089C41.1289 236.538 41.1289 245.526 41.1289 254.745C50.3541 254.745 59.3486 254.745 69.035 254.745C69.035 246.064 69.1119 237.613 68.9581 229.24Z" fill="#D6D6D6"/>
<path d="M141.914 254.668C151.293 254.668 160.441 254.668 169.743 254.668C169.743 245.526 169.743 236.615 169.743 227.396C160.21 227.396 151.062 227.396 141.914 227.396C141.914 236.691 141.914 245.68 141.914 254.668Z" fill="#D6D6D6"/>
<path d="M91.9441 204.733C101.092 204.733 110.01 204.733 119.005 204.733C119.005 195.668 119.005 186.91 119.005 177.845C109.703 177.845 100.785 177.845 91.9441 177.845C91.9441 187.064 91.9441 195.975 91.9441 204.733Z" fill="#D6D6D6"/>
</g>
<defs>
<clipPath id="clip0">
<rect width="253" height="295" fill="white"/>
</clipPath>
</defs>
</svg>
