<svg width="199" height="199" viewBox="0 0 199 199" fill="none" xmlns="http://www.w3.org/2000/svg">
<g clip-path="url(#clip0)">
<path d="M99.5214 199C72.931 199 47.9652 188.655 29.1553 169.845C10.3454 151.035 0 126.069 0 99.5214C0 72.931 10.3454 47.9652 29.1553 29.1553C47.9652 10.3454 72.931 0 99.5214 0C126.112 0 151.078 10.3454 169.887 29.1553C188.697 47.9652 199.043 72.931 199.043 99.5214C199.043 126.112 188.697 151.078 169.887 169.887C151.078 188.697 126.069 199 99.5214 199ZM99.5214 10.6874C50.5302 10.6874 10.6874 50.5302 10.6874 99.5214C10.6874 148.513 50.5302 188.355 99.5214 188.355C148.513 188.355 188.355 148.513 188.355 99.5214C188.313 50.5302 148.47 10.6874 99.5214 10.6874Z" fill="#67CC42"/>
<path d="M83.7895 138.808L51.8982 107.302L59.4221 99.6924L83.533 123.547L139.492 64.1674L147.23 71.4776L83.7895 138.808Z" fill="#67CC42"/>
</g>
<defs>
<clipPath id="clip0">
<rect width="199" height="199" fill="white"/>
</clipPath>
</defs>
</svg>
