<svg width="269" height="213" viewBox="0 0 269 213" fill="none" xmlns="http://www.w3.org/2000/svg">
<g clip-path="url(#clip0)">
<path d="M269 100.147C265.866 102.758 263.022 105.891 259.54 107.922C235.223 122.253 210.789 136.294 186.356 150.452C174.69 157.241 163.025 157.299 151.302 150.51C103.654 123.007 55.9473 95.5047 8.29924 67.9441C-2.08933 61.9098 -2.2054 54.8311 8.12512 48.7968C33.5452 34.0011 58.9072 19.1473 84.4434 4.58374C94.8319 -1.33454 106.033 -1.56663 116.422 4.35165C165.056 32.1444 213.575 60.2272 262.036 88.368C264.821 89.9926 266.737 93.0098 269.058 95.3887C269 96.9553 269 98.5219 269 100.147ZM36.5631 68.5824C37.0274 69.2786 37.1435 69.7428 37.4336 69.9169C73.9387 91.037 110.386 112.099 146.949 133.045C148.168 133.741 150.373 133.741 151.708 133.161C163.547 127.823 174.865 128.577 186.008 135.656C201.387 126.721 216.825 117.727 230.87 109.604C227.678 105.078 222.745 101.133 222.919 97.4195C223.093 93.3579 227.91 89.4124 230.812 85.2348C231.334 85.699 230.928 85.2348 230.464 84.9447C194.307 64.0566 158.15 43.1686 121.935 22.4546C120.368 21.5263 117.466 21.7584 115.667 22.5707C105.859 27.0964 95.9927 27.5026 86.3586 22.6867C83.1666 21.1201 81.0192 21.4102 78.2334 23.0929C70.2244 27.9087 62.0992 32.5505 54.0321 37.2503C48.1124 40.6736 42.1927 44.155 36.0408 47.8104C47.8802 55.4693 47.9383 61.6197 36.5631 68.5824Z" fill="#D6D6D6"/>
<path d="M0 86.9754C5.57152 82.1016 10.7368 81.6954 17.9333 85.873C51.1884 105.02 84.3853 124.168 117.64 143.315C133.31 152.367 148.98 161.302 164.534 170.528C168.016 172.616 170.628 172.616 174.168 170.528C199.53 155.616 224.95 140.82 250.486 126.257C253.562 124.516 257.625 123.82 261.165 123.994C263.429 124.052 265.576 126.605 267.781 127.997C266.272 129.854 265.228 132.407 263.254 133.567C243.232 145.404 223.093 156.95 202.954 168.613C195.061 173.197 187.11 177.78 179.275 182.422C172.891 186.194 166.507 186.368 160.065 182.654C108.238 152.773 56.4697 122.891 4.70097 92.9517C3.01791 91.9654 1.56699 90.5728 0 89.3543C0 88.6001 0 87.7877 0 86.9754Z" fill="#D6D6D6"/>
<path d="M0.000106563 114.478C5.97788 109.14 12.1298 110.01 18.5718 113.724C66.9164 141.691 115.319 169.483 163.606 197.624C167.958 200.177 171.034 200.177 175.329 197.624C200.111 182.886 225.008 168.439 250.08 154.223C253.446 152.309 257.973 151.786 261.92 151.786C263.893 151.786 265.808 154.397 267.781 155.848C266.388 157.589 265.402 159.91 263.603 160.954C244.451 172.268 225.182 183.409 205.914 194.607C197.151 199.713 188.329 204.703 179.624 209.925C173.065 213.87 166.565 214.102 159.891 210.215C108.064 180.333 56.2376 150.452 4.46893 120.512C2.78587 119.526 1.39299 118.075 -0.115967 116.857C0.000106563 116.045 0.000106563 115.29 0.000106563 114.478Z" fill="#D6D6D6"/>
<path d="M134.935 104.962C123.618 105.311 112.765 103.396 102.725 97.9417C99.9392 96.4331 97.2115 94.6925 94.89 92.6037C85.0238 83.9583 84.8497 72.5859 94.3677 63.5925C101.738 56.6878 110.85 53.3225 120.6 51.814C136.618 49.261 152.346 50.1313 166.972 58.0804C170.744 60.1111 174.342 62.8962 177.186 66.0874C184.092 73.8624 183.686 83.146 176.548 90.7469C167.378 100.437 155.306 103.454 142.712 104.904C140.159 105.195 137.547 104.962 134.935 104.962ZM112.649 86.1051C111.605 87.3816 110.618 88.6001 109.341 90.2247C111.489 91.0951 113.81 92.7197 114.622 92.1975C119.846 88.8322 125.069 91.5593 130.292 91.3852C133.194 91.2691 136.212 90.5148 138.882 89.2964C144.163 86.9175 145.034 83.146 141.958 78.1561C140.797 76.2414 139.578 74.3266 138.243 72.1798C143.525 68.6985 147.413 71.0774 149.967 74.1526C153.855 78.8524 156.757 76.6475 160.704 74.3266C159.137 72.4699 157.86 71.0193 156.583 69.5108C157.57 68.2923 158.498 67.1899 159.833 65.5652C157.396 64.7529 155.596 63.7085 153.797 63.6505C149.793 63.5925 145.846 64.0567 141.842 64.4048C138.882 64.6949 135.864 64.7529 133.078 65.6813C126.404 67.9442 125.533 71.4255 129.074 77.4598C130.234 79.3746 130.35 81.9275 130.931 84.1324C128.261 84.0163 125.533 84.2484 122.922 83.7262C121.529 83.4361 119.846 82.2757 119.091 81.0572C115.609 75.429 111.953 77.4018 107.6 80.3609C109.515 82.5078 111.082 84.2484 112.649 86.1051Z" fill="#D6D6D6"/>
<path d="M86.0685 57.152C78.6398 57.21 72.8942 53.9608 72.8362 49.7251C72.8362 45.4315 78.7559 42.0082 86.0105 42.1242C86.1846 42.1242 86.4168 42.1242 86.5909 42.1242C93.5553 42.4723 98.6625 45.6636 98.6625 49.6091C98.7205 53.7287 93.091 57.0359 86.0685 57.152Z" fill="#D6D6D6"/>
<path d="M183.396 113.492C176.083 113.434 170.86 110.416 170.86 106.123C170.86 101.945 176.199 98.812 183.454 98.754C191.057 98.6959 196.628 101.829 196.628 106.181C196.628 110.591 191.231 113.55 183.396 113.492Z" fill="#D6D6D6"/>
</g>
<defs>
<clipPath id="clip0">
<rect width="269" height="213" fill="white"/>
</clipPath>
</defs>
</svg>
