<svg width="173" height="160" viewBox="0 0 173 160" fill="none" xmlns="http://www.w3.org/2000/svg">
<g clip-path="url(#clip0)">
<path d="M171.4 6.6C169.1 2.5 165.7 0.1 160.8 0.1C111.1 0.1 61.4 0.1 11.7 0C6.2 0 0 5.6 0 11.9C0.3 48.9 0.1 85.8 0.1 122.8C0.1 130.6 3.8 134.3 11.7 134.3C28.1 134.3 44.5 134.3 60.9 134.3C62.7 134.3 64.5 134.3 67.4 134.3C66.4 137.2 66 139.6 64.8 141.6C62.3 146.2 58 148.6 53 149.9C51.9 150.2 50.8 150.5 49.7 150.7C43.8 152 42.7 155.3 46.7 159.8C72.9 159.8 99.1 159.8 125.3 159.8C129.3 154.8 128.3 151.9 122 150.5C115.8 149.2 110.3 147 107.1 141.1C106.1 139.3 105.7 137.1 104.9 134.6C107.2 134.4 108.9 134.2 110.5 134.2C126.2 134.2 142 134 157.7 134.4C164.8 134.6 170 132.8 172.9 126C172.9 87.2 172.9 48.3 172.9 9.5C172.4 8.6 171.9 7.6 171.4 6.6ZM86.3 128.7C82.8 128.7 79.7 125.5 79.9 122C80 118.8 83 115.8 86.1 115.7C89.5 115.6 92.7 118.8 92.7 122.3C92.6 125.6 89.7 128.6 86.3 128.7ZM162.8 102.6C162.8 107.6 162.5 107.9 157.5 107.9C133.7 107.9 110 107.9 86.2 107.9C62.5 107.9 38.9 107.9 15.2 107.9C9.7 107.9 9.4 107.7 9.4 102C9.4 73.1 9.4 44.1 9.4 15.2C9.4 10.2 10 9.6 14.9 9.6C62.3 9.6 109.8 9.6 157.2 9.6C162.2 9.6 162.7 10.1 162.7 15.1C162.9 44.2 162.9 73.4 162.8 102.6Z" fill="#D2334A"/>
<path d="M127.5 63.7001C135.1 63.1001 142.6 56.9001 144.7 49.3001C138.6 47.3001 132.8 45.3001 126.9 43.5001C124.5 42.8001 123.6 41.6001 123.7 39.1001C123.9 33.7001 123.8 28.3001 123.7 22.9001C123.7 21.6001 124 19.9001 121.7 20.2001C109.6 21.9001 101.6 31.8001 102.5 43.1001C103.7 57.1001 113.7 64.9001 127.5 63.7001Z" fill="#D2334A"/>
<path d="M132 18.1999C130.3 17.9999 128.4 17.6999 128.5 20.4999C128.6 26.0999 128.4 31.6999 128.6 37.2999C128.6 38.0999 129.6 39.4999 130.4 39.6999C136.4 41.7999 142.6 43.5999 149.3 45.6999C149.3 41.5999 149.7 38.1999 149.2 34.8999C147.9 26.7999 139.9 19.2999 132 18.1999Z" fill="#D2334A"/>
<path d="M28 68.8H18.8C17.7 68.8 16.9 69.7 16.9 70.7V96.8C16.9 97.9 17.8 98.7 18.8 98.7H28C29.1 98.7 29.9 97.8 29.9 96.8V70.7C29.9 69.7 29.1 68.8 28 68.8Z" fill="#D2334A"/>
<path d="M46.8 49.6001H37.6C36.5 49.6001 35.7 50.5001 35.7 51.5001V96.9001C35.7 98.0001 36.6 98.8001 37.6 98.8001H46.8C47.9 98.8001 48.7 97.9001 48.7 96.9001V51.5001C48.7 50.4001 47.9 49.6001 46.8 49.6001Z" fill="#D2334A"/>
<path d="M65.6 29.2H56.4C55.3 29.2 54.5 30.1 54.5 31.1V96.8C54.5 97.9 55.4 98.7 56.4 98.7H65.6C66.7 98.7 67.5 97.8 67.5 96.8V31.1C67.5 30 66.6 29.2 65.6 29.2Z" fill="#D2334A"/>
<path d="M84.4 46.3H75.2C74.1 46.3 73.3 47.2001 73.3 48.2001V96.9001C73.3 98.0001 74.2 98.8001 75.2 98.8001H84.4C85.5 98.8001 86.3 97.9001 86.3 96.9001V48.2001C86.3 47.1001 85.4 46.3 84.4 46.3Z" fill="#D2334A"/>
<path d="M100.5 77.6999H132.5C133.6 77.6999 134.4 76.7999 134.4 75.7999V72.7999C134.4 71.6999 133.5 70.8999 132.5 70.8999H100.5C99.4 70.8999 98.6 71.7999 98.6 72.7999V75.7999C98.5 76.7999 99.4 77.6999 100.5 77.6999Z" fill="#D2334A"/>
<path d="M147.4 80.7H100.5C99.4 80.7 98.6 81.6 98.6 82.6V85.6C98.6 86.7 99.5 87.5 100.5 87.5H147.4C148.5 87.5 149.3 86.6 149.3 85.6V82.6C149.3 81.5 148.4 80.7 147.4 80.7Z" fill="#D2334A"/>
<path d="M134.9 90.5H100.5C99.4 90.5 98.6 91.4 98.6 92.4V95.4C98.6 96.5 99.5 97.3 100.5 97.3H134.9C136 97.3 136.8 96.4 136.8 95.4V92.4C136.8 91.3 136 90.5 134.9 90.5Z" fill="#D2334A"/>
</g>
<defs>
<clipPath id="clip0">
<rect width="173" height="159.8" fill="white"/>
</clipPath>
</defs>
</svg>
