<svg width="189" height="156" viewBox="0 0 189 156" fill="none" xmlns="http://www.w3.org/2000/svg">
<g clip-path="url(#clip0)">
<path d="M188.1 59.8C185.1 48.1 178.9 39.4 166.6 36.1C165.1 35.7 163.6 35.2 162.2 34.6C160.5 33.8 159.8 27.6 161.5 27.3C164.7 26.7 163.9 24.5 163.9 22.6C164 18.5 163.7 14.3 164 10.2C164.3 5.5 162.6 2.2 158.5 0C141.6 0 124.7 0 107.9 0C105 1.7 102.4 3.6 102.4 7.4C102.4 13.7 102.4 20.1 102.4 26.4C102.8 26.3 103.2 26.1 103.7 26C104.4 27.5 105.3 29 105.7 30.6C106.7 34.2 103.9 34.8 101.4 35.6C84.9 41.2 77.6 51.5 77.5 69C77.5 75.5 77.5 82 77.5 88.5C80.5 85 84.4 82.2 88.8 80.5C104.1 74.6 120.7 81.9 126.7 97.1C128 100.4 128.7 104 128.6 107.8C128.6 108.9 128.6 110 128.6 111.1C128.6 111.4 128.6 111.7 128.6 112C134.9 115.6 138.8 121.3 140 128.6C141.9 140.6 134.1 152 122.2 154.7C115.8 156.1 109.2 154.9 103.8 151.2C98.4 147.5 94.9 141.9 93.9 135.4C92.5 126 97.2 116.6 105.3 112C105.3 111.9 105.3 111.9 105.3 111.8C105.3 110 105.3 108.3 105.2 106.7C105.2 106.4 105.1 106.1 105 105.8H94C93.8 106.4 93.7 107 93.7 107.6C93.7 109.5 93.7 111.5 93.7 113.4V113.6C93.7 116.8 93.7 120 93.7 123.3C93.5 132.1 90.4 139.6 84.5 145.7C84.2 146 84 146.2 83.7 146.5C88.5 152.2 95.6 155.8 103.6 155.8H153.3C157.9 155.9 162.5 155.9 167 155.5C175.2 154.8 181.6 150.3 185.6 143C187 140.4 187.8 137.5 188.9 134.8C188.9 110.7 188.9 86.5 188.9 62.4C188.6 61.5 188.3 60.6 188.1 59.8ZM173 82.6C159.2 85.5 145.6 84.5 132.4 80C122.8 76.7 113 75.5 102.9 76.2C98.4 76.5 94 77.1 89.4 77.6C89.4 72.9 88.8 68.1 89.5 63.6C90.7 55.6 94.5 49.2 103.2 47.1C106.2 46.4 109.1 45.1 112 44.2C115.7 43 117.6 40.8 117.3 36.7C117.1 33.5 117.3 30.4 117.3 27.1C128.2 27.1 138.4 27.1 149.1 27.1C149.1 30.9 149.1 34.3 149.1 37.6C149.1 40.7 150.5 42.7 153.5 43.8C156.9 45 160.3 46.4 163.8 47.3C171.2 49.1 175.1 54.3 176.4 61.1C177.4 66.4 176.9 71.9 177.4 77.3C177.7 81 176.1 82 173 82.6Z" fill="#D2334A"/>
<path d="M99.3 101.7C96.7 101.8 94.7 103.5 93.9 105.8C97.6 105.8 101.3 105.8 105 105.8C104.4 103.4 101.9 101.6 99.3 101.7Z" fill="#D2334A"/>
<path d="M134.3 129.6C133.3 123.1 129.5 118.6 123.4 116C122.9 115.8 122.8 115.6 122.8 115.1C122.8 112.7 122.8 110.2 122.8 107.8C122.8 104.9 122.3 102 121.3 99.3001C116.5 87.2001 103.1 81.3001 90.9 86.0001C82.3 89.4001 76.4 97.7001 76.2 107C76.1 112.3 76.2 117.7 76.2 123C76.2 123.9 76.2 124.7 76 125.6C74.7 133.4 67.9 138.6 60.2 137.9V137.8C59.5 137.7 58.8 137.7 58.1 137.5C57.6 137.4 57.1 137.2 56.7 137.1V137.2C48.4 135.1 41.7 127.7 41.3 118.8C41 113.5 41.2 108.3 41.1 103C41.1 102 41.6 101.8 42.5 101.6C58.4 98.1001 70 84.8001 70.5 69.0001C70.8 58.6001 70.6 48.2001 70.6 37.9001C70.6 34.2001 68.1 31.9001 64.4 31.8001C60.8 31.8001 57.2 31.8001 53.7 31.8001C50 31.8001 47.3 34.2001 47.3 37.6001C47.3 41.0001 49.8 43.4001 53.6 43.4001C55.3 43.4001 57.1 43.4001 58.9 43.4001C59 43.9001 59 44.1001 59 44.4001C59 52.5001 59 60.6001 59 68.6001C59 69.1001 59 69.6001 58.9 70.1001C56.9 83.6001 44.9 92.4001 31.4 90.3001C21.1 88.7001 12.5 79.5001 12.1 69.1001C11.8 60.9001 12 52.7001 11.9 44.6001C11.9 43.5001 12.5 43.4001 13.4 43.4001C15.3 43.4001 17.2 43.5001 19.1 43.3001C21.8 43.0001 23.9 40.1001 23.8 37.3001C23.6 34.3001 21.2 31.9001 18.1 31.8001C14.4 31.7001 10.7 31.8001 7.10001 31.8001C2.70001 31.8001 0.400006 34.1001 0.400006 38.5001C6.10948e-06 43.9001 6.09644e-06 49.2001 6.09644e-06 54.5001C0.100006 60.3001 -0.299994 66.1001 0.400006 71.8001C2.20001 86.6001 13 98.1001 27.6 101.4C29.1 101.8 29.5 102.4 29.5 103.8C29.5 109.7 29.2 115.6 29.9 121.4C31.8 137.3 45.2 148.8 60.3 149.4C60.4 149.4 60.4 149.4 60.5 149.4C68.2 149.7 74.9 147.1 80.3 141.6C85.3 136.5 87.7 130.3 87.9 123.2C88 118 87.9 112.8 87.9 107.6C87.9 101.2 92.8 96.2001 99.1 95.9001C105.2 95.6001 110.5 100.2 111.1 106.2C111.4 109.1 111.2 112 111.2 115C111.2 115.6 111 115.8 110.5 116C103.1 118.9 98.5 126.8 99.7 134.6C101.3 144.7 110.9 151.3 120.9 149.1C129.7 147.1 135.7 138.5 134.3 129.6ZM116.3 140.1C111.8 140.1 108.1 136.4 108.1 131.9C108.1 127.4 111.8 123.7 116.3 123.7C120.8 123.7 124.5 127.4 124.5 131.9C124.5 136.4 120.8 140.1 116.3 140.1Z" fill="#D2334A"/>
</g>
<defs>
<clipPath id="clip0">
<rect width="188.9" height="155.8" fill="white"/>
</clipPath>
</defs>
</svg>
