<svg width="208" height="160" viewBox="0 0 208 160" fill="none" xmlns="http://www.w3.org/2000/svg">
<g clip-path="url(#clip0)">
<path d="M180.7 70.8999C180.7 82.5999 180.7 94.0999 180.7 105.8C129.4 105.8 78.2 105.8 27 105.8C27 105.2 27 104.7 27 104.1C27 98.9999 26.9 93.9999 26.9 88.8999C26.9 88.6999 27 88.4999 27 88.2999C27 83.7999 27 79.2999 27 74.7999C27 73.4999 27 72.1999 27 70.8999C22.4 70.8999 18 70.8999 13.4 70.8999C13.5 72.5999 13.6 74.1999 13.7 75.8999C13.6 76.2999 13.5 76.5999 13.5 76.9999C13.5 80.5999 13.5 84.1999 13.5 87.7999C13.5 94.6999 13.4 101.5 13.5 108.4C13.5 109.7 13.8 111.1 14.3 112.3C16.4 117.1 20.2 119.4 25.5 119.4C37.6 119.3 49.8 119.3 61.9 119.3C66.5 119.3 71.2 119.4 75.8 119.4C98.3 119.4 120.8 119.4 143.3 119.4C146.9 119.4 150.5 119.4 154 119.4C163.7 119.4 173.4 119.5 183.1 119.4C189.6 119.3 194.3 114.4 194.3 107.8C194.3 97.8999 194.3 87.9999 194.3 78.0999C194.3 75.6999 194.3 73.2999 194.3 70.8999C189.7 70.8999 185.3 70.8999 180.7 70.8999Z" fill="#D2334A"/>
<path d="M206.9 59.1999C205.9 57.7999 204.5 57.2999 202.8 57.2999C191.3 57.2999 179.9 57.2999 168.4 57.2999C167.2 57.2999 166.1 57.3999 164.9 57.3999C158.7 57.3999 152.5 57.3999 146.4 57.3999C144.9 57.3999 143.7 58.0999 142.9 59.2999C138.3 65.8999 133.6 72.4999 129 79.0999C127.7 80.8999 126.4 82.6999 125 84.6999C124.5 83.6999 124 82.8999 123.6 81.9999C120.8 76.3999 117.9 70.7999 115.1 65.1999C111.3 57.6999 107.5 50.2999 103.7 42.7999C100.3 36.0999 96.9 29.3999 93.5 22.6999C91.8 19.3999 87.5 19.2999 85.6 22.4999C83.3 26.2999 81 30.0999 78.7 33.8999C74.2 41.2999 69.7 48.6999 65.3 56.1999C64.7 57.0999 64.2 57.2999 63.2 57.2999C44 57.2999 24.8 57.2999 5.6 57.2999C5 57.2999 4.4 57.2999 3.9 57.3999C1.6 57.5999 -0.100001 59.7999 0.0999992 61.9999C0.299999 64.7999 2.1 66.2999 5.2 66.2999C15.6 66.2999 25.9 66.2999 36.3 66.2999C46.5 66.2999 56.7 66.2999 66.9 66.2999C68.9 66.2999 70.3 65.4999 71.4 63.7999C76.4 55.3999 81.5 46.8999 86.6 38.4999C87.5 37.0999 88.4 35.5999 89.3 34.0999C91.2 37.6999 93 41.1999 94.7 44.6999C97 49.2999 99.3 53.8999 101.7 58.4999C104.9 64.7999 108.2 71.1999 111.4 77.4999C114.5 83.4999 117.5 89.5999 120.6 95.5999C122.1 98.4999 126.3 98.6999 128.1 96.0999C130 93.3999 131.9 90.6999 133.8 87.9999C138.6 81.0999 143.4 74.2999 148.2 67.3999C148.8 66.5999 149.4 66.2999 150.4 66.2999C167.7 66.2999 184.9 66.2999 202.2 66.2999C202.8 66.2999 203.4 66.2999 204 66.1999C207.3 65.6999 208.9 61.8999 206.9 59.1999Z" fill="#D2334A"/>
<path d="M13.5 52.6999C18 52.6999 22.4 52.6999 27 52.6999C27 39.6999 27 26.6999 27 13.5999C27.5 13.5999 27.9 13.4999 28.2 13.4999C31.6 13.4999 35.1 13.4999 38.5 13.4999C54.4 13.4999 70.2 13.4999 86.1 13.4999C86.5 13.4999 86.9 13.3999 87.3 13.2999C87.7 13.3999 88.1 13.4999 88.5 13.4999C99.6 13.4999 110.7 13.4999 121.8 13.4999C140.9 13.4999 159.9 13.4999 179 13.4999C179.5 13.4999 180 13.4999 180.6 13.4999C180.6 26.5999 180.6 39.5999 180.6 52.5999C185.2 52.5999 189.6 52.5999 194 52.5999C194 52.3999 194.1 52.1999 194.1 52.0999C194.1 38.0999 194.1 24.0999 194.1 9.9999C194.1 7.7999 193.4 5.7999 192 4.0999C189.8 1.1999 186.8 -0.100098 183.2 -0.100098C158.5 -0.100098 133.8 -0.100098 109.2 -0.100098C106.8 -0.100098 104.4 -0.100098 102 -0.100098C101.5 -0.100098 101 -9.76548e-05 100.5 -9.76548e-05C100 -9.76548e-05 99.5 -0.100098 99 -0.100098C74.1 -9.76548e-05 49 -9.76548e-05 23.9 0.0999023C18 0.0999023 13.5 4.6999 13.5 10.5999C13.5 24.2999 13.5 37.9999 13.5 51.6999C13.5 51.9999 13.5 52.2999 13.5 52.6999Z" fill="#D2334A"/>
<path d="M142.2 147.5C136.3 147.5 130.4 147.5 124.5 147.5C123.7 147.5 123.4 147.3 123.1 146.5C120.9 139.5 118.5 132.4 116.3 125.4C116 124.5 115.7 124.3 114.8 124.3C107.6 124.3 100.4 124.3 93.1 124.3C92.1 124.3 91.7 124.6 91.4 125.5C89.8 130.5 88.2 135.5 86.6 140.6C86 142.6 85.4 144.6 84.8 146.6C84.5 147.4 83.9 147.5 83.1 147.5C77 147.5 70.9 147.4 64.8 147.5C61.9 147.5 59.8 149 58.4 151.5C56.9 154.1 57.7 156.8 57.5 159.5C57.9 159.5 58.2 159.6 58.4 159.6C71.2 159.6 84.1 159.6 96.9 159.6C97.1 159.6 97.4 159.4 97.6 159.3C98.1 159.4 98.6 159.6 99.1 159.6C103.4 159.6 107.7 159.6 111.9 159.6C124.2 159.6 136.5 159.6 148.7 159.6C149.1 159.6 149.6 159.5 150.1 159.5C150.1 158.1 150.1 156.8 150.1 155.4C150.2 150.8 146.9 147.5 142.2 147.5Z" fill="#D2334A"/>
</g>
<defs>
<clipPath id="clip0">
<rect width="207.8" height="159.7" fill="white"/>
</clipPath>
</defs>
</svg>
