<svg width="142" height="159" viewBox="0 0 142 159" fill="none" xmlns="http://www.w3.org/2000/svg">
<g clip-path="url(#clip0)">
<path d="M84.3 145C77.8 145 71.3 145 64.8 145C51 145 37.2 145 23.4 145C20.2 145 16.9 145 13.7 144.9C9.89998 144.7 7.69998 142.7 7.19998 138.9C7.09998 137.9 7.09998 137 7.09998 136C7.09998 109.4 7.09998 82.9001 7.09998 56.3001C7.09998 56.0001 7.09998 55.7001 7.19998 55.4001C47.5 55.4001 87.7 55.4001 127.9 55.4001C127.9 55.7001 127.9 55.8001 127.9 56.0001C127.9 60.7001 127.9 65.4001 127.9 70.1001C127.9 80.5001 127.9 90.8001 127.9 101.2C127.9 101.5 128.2 102 128.5 102.2C130.1 103.4 131.8 104.5 133.5 105.7C134 106 134.4 106.5 135 107C135 106.4 135 106.1 135 105.7C135 95.7001 135 85.7001 135 75.7001C135 61.9001 135 48.2001 135 34.4001C135 32.7001 135 31.1001 135 29.4001C134.8 23.5001 130.7 18.4001 124.9 17.3001C121.9 16.7001 118.8 16.9001 115.7 16.8001C114.3 16.7001 112.9 16.8001 111.4 16.8001C111.4 17.3001 111.4 17.6001 111.4 18.0001C111.4 21.6001 111.3 25.3001 111.3 28.9001C111.2 32.7001 109.1 35.5001 105.4 36.4001C104.1 36.7001 102.7 36.8001 101.3 36.8001C96.3 36.7001 93.1 33.5001 93 28.4001C93 25.0001 93 21.6001 93 18.2001C93 17.8001 93 17.5001 93 17.1001C91.3 17.1001 89.7 17.1001 88.1 17.1001C88.1 17.5001 88.1 17.8001 88.1 18.2001C88.1 21.9001 88.1 25.6001 88 29.3001C88 31.3001 87.3 33.0001 86 34.5001C84 36.6001 81.4 37.1001 78.7 37.0001C73 36.9001 69.9 33.2001 70 28.1001C70.1 24.8001 70 21.5001 70 18.2001C70 17.9001 70 17.5001 70 17.2001C68.4 17.2001 66.9 17.2001 65.2 17.2001C65.2 17.6001 65.2 17.9001 65.2 18.3001C65.2 21.7001 65.3 25.1001 65.2 28.5001C65.1 31.3001 64.4 33.9001 61.8 35.5001C58.3 37.6001 54.6 37.7001 51 35.9001C48 34.4001 47 31.6001 47 28.5001C46.9 25.1001 47 21.7001 47 18.3001C47 18.0001 47 17.6001 47 17.3001C45.3 17.3001 43.8 17.3001 42.1 17.3001C42.1 17.7001 42.1 18.0001 42.1 18.4001C42.1 21.9001 42.1 25.5001 42.1 29.0001C42 33.1001 39.7 36.1001 35.8 36.9001C34.4 37.2001 33 37.2001 31.6 37.1001C26.9 36.8001 24 33.6001 23.9 28.8001C23.9 26.1001 23.8 23.4001 23.8 20.7001C23.8 19.6001 23.8 18.6001 23.8 17.5001C23.6 17.4001 23.5 17.4001 23.4 17.4001C19.6 17.4001 15.8 17.3001 12 17.4001C7.69998 17.5001 4.39998 19.4001 2.09998 23.1001C0.699976 25.4001 0.0999756 27.9001 0.0999756 30.6001C-2.44156e-05 48.0001 -2.44137e-05 65.5001 -2.44137e-05 83.0001C-2.44137e-05 99.1001 -2.44137e-05 115.2 -2.44137e-05 131.3C-2.44137e-05 134 -0.100024 136.8 0.0999756 139.5C0.399976 144 2.19998 147.7 6.19998 150.1C8.59998 151.5 11.2 152 14 152C31.8 152 49.5 151.9 67.3 151.9C74.6 151.9 81.8 151.9 89.1 152C89.4 152 89.7 152 90 152C88.5 149.9 87.1 147.9 85.7 145.8C85.3 145.2 84.9 145 84.3 145Z" fill="#D2334A"/>
<path d="M113.4 101.4C97.5 101.3 84.7 113.9 84.6 129.9C84.5 145.4 97.2 158.3 112.9 158.4C128.6 158.6 141.5 145.8 141.7 130.1C141.7 114.5 129 101.6 113.4 101.4ZM112.7 151.4C100.9 151.3 91.4 141.5 91.6 129.5C91.7 118.1 101 108.2 113.3 108.3C125.6 108.4 134.6 118.3 134.7 129.8C134.5 142 124.8 151.6 112.7 151.4Z" fill="#D2334A"/>
<path d="M100 33.6C101.1 33.8 102.3 33.8 103.4 33.8C106.5 33.6 108.1 31.9 108.2 28.8C108.3 24.9 108.2 21 108.2 17.1C108.2 13 108.2 9.00004 108.2 4.90004C108.2 2.50004 106.9 0.900042 104.7 0.500042C103.3 0.200042 101.8 0.200042 100.4 0.300042C98.4 0.500042 97 1.70004 96.5 3.60004C96.3 4.30004 96.2 5.10004 96.2 5.80004C96.2 9.70004 96.1 13.6 96.1 17.5C96.1 21.4 96.1 25.4 96.2 29.3C96.4 31.5 97.7 33.1 100 33.6Z" fill="#D2334A"/>
<path d="M27 29.7C27.2 31.6 28.3 33 30.2 33.5C31.4 33.8 32.7 33.9 34 33.8C37.2 33.6 38.8 31.8 38.9 28.5C38.9 24.7 38.9 20.9 38.9 17C38.9 13 38.9 9 38.9 5.1C38.9 2.4 37.4 0.6 34.8 0.1C34 0 33.3 0 32.6 0C28.4 0.1 26.8 1.8 26.8 6C26.8 12.6 26.8 19.2 26.8 25.8C26.8 27.1 26.8 28.4 27 29.7Z" fill="#D2334A"/>
<path d="M73.3 30.2999C74 32.5999 75.7 33.5999 78 33.7999C83.6 34.1999 85 31.8 85 27.5C84.9 24 85 20.4 85 16.9C85 12.9999 85 9.09995 85 5.19995C85 2.29995 83.6 0.599951 80.8 0.0999512C79.6 -0.100049 78.3 -0.100049 77.2 0.0999512C74.6 0.499951 73.3 1.89995 73.2 4.59995C73.1 8.59995 73.2 12.7 73.2 16.7C73.2 16.7 73.2 16.7 73.1 16.7C73.1 20.5 73.1 24.3 73.1 28.1C73.1 28.9 73.1 29.5999 73.3 30.2999Z" fill="#D2334A"/>
<path d="M50.1 28.9C50.2 31.5 51.6 33.3 54.1 33.6C55.4 33.8 56.7 33.8 57.9 33.6C60.1 33.3 61.4 32 61.8 29.7C61.9 28.9 62 28.1 62 27.4C62 20.3 62 13.2 62 6.10002C62 5.70002 62 5.20002 62 4.80002C61.8 2.50002 60.5 0.600022 58.6 0.300022C57.3 0.100022 55.9 2.14987e-05 54.6 0.100022C52 0.300022 50.6 1.80002 50.2 4.20002C50 4.70002 50 5.30002 50 5.90002C50 9.50002 50 13.2 50 16.8C50 16.8 50 16.8 50.1 16.8C50.1 20.8 50 24.9 50.1 28.9Z" fill="#D2334A"/>
<path d="M45.3 107.2C51.4 107.2 57.4 107.2 63.6 107.2C63.6 101 63.6 94.9999 63.6 88.8999C57.5 88.8999 51.4 88.8999 45.3 88.8999C45.3 94.9999 45.3 101.1 45.3 107.2Z" fill="#D2334A"/>
<path d="M89.8 88.8999C83.6 88.8999 77.6 88.8999 71.5 88.8999C71.5 94.9999 71.5 101 71.5 107.1C77.6 107.1 83.7 107.1 89.8 107.1C89.8 101 89.8 94.9999 89.8 88.8999Z" fill="#D2334A"/>
<path d="M63.5999 132.4C63.5999 126.3 63.5999 120.3 63.5999 114.2C63.3999 114.2 63.1999 114.2 63.0999 114.2C57.4999 114.2 51.8999 114.2 46.2999 114.2C45.4999 114.2 45.2 114.5 45.2 115.3C45.2 119.6 45.2 123.8 45.2 128.1C45.2 129.5 45.2 131 45.2 132.5C51.4 132.4 57.4999 132.4 63.5999 132.4Z" fill="#D2334A"/>
<path d="M45.3 81.7999C51.4 81.7999 57.5 81.7999 63.6 81.7999C63.6 75.6999 63.6 69.5999 63.6 63.5999C57.5 63.5999 51.4 63.5999 45.3 63.5999C45.3 69.6999 45.3 75.6999 45.3 81.7999Z" fill="#D2334A"/>
<path d="M19.1 132.4C25.2 132.4 31.3 132.4 37.3 132.4C37.3 126.3 37.3 120.3 37.3 114.2C31.2 114.2 25.2 114.2 19.1 114.2C19.1 120.3 19.1 126.3 19.1 132.4Z" fill="#D2334A"/>
<path d="M37.2999 107.2C37.2999 101.1 37.2999 94.9999 37.2999 88.8999C31.1999 88.8999 25.2 88.8999 19.2 88.8999C19.2 95.0999 19.2 101.2 19.2 107.2C25.2 107.2 31.1999 107.2 37.2999 107.2Z" fill="#D2334A"/>
<path d="M89.9 63.5999C83.7 63.5999 77.7 63.5999 71.5 63.5999C71.5 69.6999 71.5 75.6999 71.5 81.7999C77.6 81.7999 83.7 81.7999 89.9 81.7999C89.9 75.6999 89.9 69.6999 89.9 63.5999Z" fill="#D2334A"/>
<path d="M116.1 63.5999C110 63.5999 103.9 63.5999 97.9 63.5999C97.9 69.6999 97.9 75.7999 97.9 81.7999C104 81.7999 110 81.7999 116.1 81.7999C116.1 75.6999 116.1 69.5999 116.1 63.5999Z" fill="#D2334A"/>
<path d="M37.3 63.5999C31.2 63.5999 25.2 63.5999 19.1 63.5999C19.1 69.6999 19.1 75.7999 19.1 81.7999C25.2 81.7999 31.2 81.7999 37.3 81.7999C37.3 75.6999 37.3 69.6999 37.3 63.5999Z" fill="#D2334A"/>
<path d="M71.6 114.2C71.6 120.3 71.6 126.4 71.6 132.5C74.9 132.5 78.1 132.5 81.5 132.5C81 125.9 82.4 119.9 85.6 114.2C80.8 114.2 76.2 114.2 71.6 114.2Z" fill="#D2334A"/>
<path d="M97.8 102.1C103.5 99 109.5 97.8 116 98.3C116 95.1 116 92 116 88.8C109.9 88.8 103.8 88.8 97.8 88.8C97.8 93.3 97.8 97.6 97.8 102.1Z" fill="#D2334A"/>
<path d="M128.6 122C125 123.4 121.4 124.8 117.8 126.3C117.2 126.6 116.7 126.6 116.1 126.1C114.4 124.7 112 124.7 110.2 126C108.5 127.2 107.7 129.5 108.4 131.5C109.1 133.6 111 134.9 113.2 134.9C115.9 134.9 118 132.9 118.2 130.1C118.2 129.5 118.4 129.2 119 129C120.7 128.4 122.3 127.8 124 127.1C125.9 126.4 127.8 125.6 129.7 124.9C130.4 124.6 131 124.3 131.1 123.4C131 122.1 130 121.4 128.6 122Z" fill="#D2334A"/>
</g>
<defs>
<clipPath id="clip0">
<rect width="141.6" height="158.4" fill="white"/>
</clipPath>
</defs>
</svg>
