<svg width="153" height="171" viewBox="0 0 153 171" fill="none" xmlns="http://www.w3.org/2000/svg">
<g clip-path="url(#clip0)">
<path d="M33.3 0C51.8 0 70.2 0 88.7 0C91.9 1.8 94.7 4 94.7 8.1C94.7 15 94.7 22 94.7 28.9C94.2 28.8 93.8 28.6 93.3 28.5C92.5 30.2 91.6 31.8 91.1 33.5C90 37.4 93 38.1 95.7 39C113.8 45.1 121.9 56.4 121.9 75.5C121.9 86.6 121.9 97.7 121.9 108.7C121.9 110.9 121.9 113.2 121.9 115.8C119.9 115.8 118.4 115.8 116.8 115.8C101.6 115.8 86.4 115.6 71.2 115.9C53.2 116.3 39.2 133 41.4 150.8C42.3 158.2 45.6 164.4 50.9 170.3C41.5 170.3 32.7 170.9 24 170.1C15 169.4 8 164.4 3.6 156.5C2 153.7 1.2 150.5 0 147.5C0 121.1 0 94.6 0 68.2C0.3 67.3 0.6 66.3 0.9 65.4C4.1 52.6 11 43.1 24.4 39.5C26 39.1 27.7 38.5 29.2 37.9C31.1 37.1 31.8 30.3 30 29.9C26.4 29.2 27.4 26.8 27.4 24.8C27.3 20.3 27.6 15.7 27.3 11.2C26.9 6.1 28.8 2.4 33.3 0ZM43.5 29.7C43.5 33.9 43.5 37.6 43.5 41.2C43.5 44.6 41.9 46.8 38.7 47.9C34.9 49.2 31.3 50.8 27.4 51.7C19.3 53.7 15.1 59.3 13.6 66.8C12.5 72.6 13.1 78.7 12.5 84.6C12.1 88.5 13.9 89.6 17.3 90.3C32.4 93.5 47.2 92.4 61.8 87.5C72.3 83.9 83.1 82.6 94.1 83.3C99 83.6 103.9 84.3 108.9 84.9C108.9 79.7 109.5 74.6 108.8 69.6C107.4 60.8 103.4 53.8 93.8 51.5C90.5 50.7 87.4 49.3 84.1 48.3C80 47 78 44.5 78.3 40.1C78.5 36.6 78.3 33.2 78.3 29.6C66.5 29.7 55.3 29.7 43.5 29.7Z" fill="#D2334A"/>
<path d="M101.6 124.3C110.7 124.3 119.8 124.2 128.8 124.3C142.8 124.5 152.8 134.3 152.7 147.7C152.6 160.7 142.4 170.5 128.7 170.6C110 170.7 91.2 170.7 72.5 170.6C60.5 170.5 51.1 161.6 49.7 149.5C48.4 138.6 56.1 127.8 67.2 125C69.5 124.4 72 124.4 74.4 124.3C83.5 124.2 92.5 124.3 101.6 124.3ZM101 157.7C101 150.5 101 143.9 101 137.1C90.7 137.1 80.6 136.8 70.6 137.2C65.6 137.4 62.1 142.4 62.2 147.5C62.3 152.6 66.2 157.5 71.3 157.6C81.2 157.9 91 157.7 101 157.7Z" fill="#D2334A"/>
</g>
<defs>
<clipPath id="clip0">
<rect width="152.7" height="170.6" fill="white"/>
</clipPath>
</defs>
</svg>
