<svg width="188" height="117" viewBox="0 0 188 117" fill="none" xmlns="http://www.w3.org/2000/svg">
<g clip-path="url(#clip0)">
<path d="M187.3 86.3001C185.7 87.1001 184.1 87.8001 182.5 88.6001C181.8 87.1001 180.5 85.5001 180.5 84.0001C180.4 60.1001 180.4 36.3001 180.5 12.4001C180.5 9.3001 179.7 8.3001 176.5 8.0001C151.1 5.3001 125.9 7.4001 100.7 9.9001C78.1 12.1001 55.5 12.8001 32.9 10.1001C30.3 9.8001 26.4 10.2001 27 6.0001C27.6 1.8001 31.1 3.3001 33.8 3.6001C55.4 6.0001 77 5.4001 98.7 3.4001C109.5 2.4001 120.3 1.6001 131.1 0.700098C132.5 0.600098 134 0.300098 135.4 0.100098C144.9 0.100098 154.4 0.100098 163.9 0.100098C170 0.800098 176.2 1.3001 182.3 2.2001C184 2.5001 185.6 3.7001 187.3 4.5001C187.3 31.7001 187.3 59.0001 187.3 86.3001Z" fill="#D2334A"/>
<path d="M-1.49757e-06 71.4001C-1.49757e-06 58.8001 -1.49757e-06 46.3001 -1.49757e-06 33.7001C-1.49757e-06 28.6001 0.899998 27.8001 5.7 28.3001C31.5 31.3001 57.3 29.9001 83 27.3001C107.3 24.8001 131.6 23.9001 155.9 27.0001C158.8 27.4001 160.2 28.6001 160.2 31.7001C160.1 57.7001 160.2 83.6001 160.2 109.6C160.2 113.1 158.8 114.3 155.4 113.9C130 110.5 104.6 112 79.2 114.6C54.3 117.1 29.4 118.4 4.4 115.1C0.999999 114.7 -0.200002 113.2 -0.100001 109.9C0.0999985 97.0001 -1.49757e-06 84.2001 -1.49757e-06 71.4001ZM6.8 36.0001C6.8 59.8001 6.8 84.0001 6.8 108.4C7.8 108.6 8.7 108.8 9.7 108.9C32.8 111.5 55.9 110.1 79 107.8C100.1 105.7 121.2 104.1 142.4 105.9C146 106.2 149.6 106.4 153.4 106.7C153.4 82.2001 153.4 58.0001 153.4 33.7001C152.3 33.5001 151.2 33.2001 150.2 33.1001C133.8 31.5001 117.4 31.3001 100.9 32.6001C83 34.0001 65 35.8001 47 36.5001C33.8 37.1001 20.5 36.2001 6.8 36.0001Z" fill="#D2334A"/>
<path d="M166.9 21.3001C157.4 20.8001 148.3 19.6001 139.3 20.0001C119.5 20.8001 99.7 22.2001 79.9 23.7001C59.4 25.3001 39 25.5001 18.6 23.2001C18 23.1001 17.4 23.0001 16.8 22.9001C14.5 22.6001 13.1 21.3001 13.5 19.0001C13.9 16.7001 15.7 16.1001 18 16.3001C26.7 17.0001 35.5 18.4001 44.2 18.1001C63.7 17.5001 83.1 16.4001 102.5 14.9001C124.8 13.2001 147 12.4001 169.2 15.2001C172.4 15.6001 173.7 17.0001 173.7 20.1001C173.7 45.8001 173.7 71.5001 173.7 97.2001C173.7 99.6001 173.3 101.9 170.4 102C167.3 102 166.8 99.6001 166.8 97.1001C166.8 73.6001 166.8 50.1001 166.8 26.6001C166.9 25.1001 166.9 23.7001 166.9 21.3001Z" fill="#D2334A"/>
<path d="M87.9 61.4001C87.4 61.9001 86.3 63.8001 85 63.9001C83.9 64.0001 81.7 62.4001 81.5 61.2001C80.8 58.1001 78.9 57.4001 76.4 57.9001C75.2 58.1001 73.3 59.2001 73.2 60.1001C73.1 61.2001 74.1 63.0001 75.2 63.7001C77.7 65.4001 80.6 66.4001 83.2 68.0001C89.9 72.1001 89.6 80.9001 82.6 84.5001C80.9 85.4001 80.2 86.3001 79.9 88.2001C79.6 89.5001 77.8 90.6001 76.6 91.7001C75.5 90.5001 73.7 89.3001 73.5 88.0001C73.3 86.0001 72.1 85.4001 70.9 84.2001C68.9 82.3001 67.3 79.8001 66.3 77.2001C65.9 76.2001 67.4 73.8001 68.6 73.1001C70.5 72.2001 72.2 73.4001 72.5 75.6001C73 78.9001 75.4 79.4001 77.9 78.9001C79.1 78.7001 80.5 77.5001 80.9 76.4001C81.2 75.7001 80 74.0001 79.1 73.4001C76.9 72.0001 74.3 71.0001 72 69.7001C64.1 65.3001 64 57.0001 71.7 52.1001C72.6 51.5001 73.2 50.1001 73.4 49.0001C73.8 46.8001 74.6 44.8001 76.9 45.4001C78.2 45.7001 79.1 47.7001 80.2 48.9001C81.1 50.0001 81.6 51.5001 82.7 52.2001C85.9 54.2001 87.9 56.9001 87.9 61.4001Z" fill="#D2334A"/>
<path d="M132.8 45.2C130.4 45.2 127.2 45.3 124.1 45.2C121.8 45.1 119.9 44.3 120.1 41.6C120.2 39.1 122.1 38.5 124.2 38.5C130.4 38.7 136.6 39 142.7 39.2C145.1 39.3 147.3 40.1 146.9 43C146.5 45.8 144.3 46.1 141.9 45.9C139.1 45.6 136.3 45.4 132.8 45.2Z" fill="#D2334A"/>
<path d="M26.9 97.1002C30.2 97.1002 33.5 96.8002 36.7 97.3002C38 97.5002 39.1 99.3002 40.3 100.4C39.1 101.5 37.9 103.6 36.7 103.6C30.1 103.7 23.6 103.3 17 103C14.8 102.9 12.9 101.5 13.5 99.3002C13.8 98.1002 15.9 96.7002 17.3 96.5002C20.4 96.2002 23.6 96.7002 26.8 96.8002C26.9 96.8002 26.9 97.0002 26.9 97.1002Z" fill="#D2334A"/>
</g>
<defs>
<clipPath id="clip0">
<rect width="187.3" height="117" fill="white"/>
</clipPath>
</defs>
</svg>
