<svg width="172" height="184" viewBox="0 0 172 184" fill="none" xmlns="http://www.w3.org/2000/svg">
<g clip-path="url(#clip0)">
<path d="M94.6 170.8C94.6 173.8 94.6 176.7 94.6 179.7C94.6 180.3 94.6 180.9 94.6 181.5C94.3 183.9 92.7 184.6 90.8 183.2C86.6 180.2 82.5 177.2 78.4 174.3C74 171.1 69.6 167.9 65.2 164.8C62.8 163.1 62.7 161.1 65.1 159.4C73.6 153.2 82.2 147.1 90.8 141C91.5 140.5 92.8 140.1 93.4 140.4C94.1 140.8 94.7 142 94.7 142.9C94.9 145.9 94.8 148.9 94.8 152.3C97 151.9 99.1 151.6 101.2 151.1C127.3 145.1 147.8 123.1 152.1 96.7C157.3 64.8 139.6 34.2 109.3 22.7C84 13.2 55 20 36.8 39.6C26.6 50.5 20.4 63.3 18.9 78C16.5 102 24.7 121.8 43.1 137.5C46.4 140.3 47.7 144.2 46.3 148C45 151.8 41.5 154.2 37.6 154.2C35.4 154.2 33.5 153.5 31.8 152.1C16.8 139.8 6.69999 124.2 2.39999 105.2C-3.20001 80.8 0.999994 57.9 15.2 37.2C28.4 17.9 46.8 5.89997 69.9 1.59997C92.5 -2.60003 113.7 1.59996 132.8 14.4C152.1 27.2 164.5 45.1 169.2 67.8C174.9 95.5 168.4 120.4 150 141.8C136.9 157 120.2 166.3 100.4 169.8C98.5 170.1 96.6 170.4 94.6 170.8Z" fill="#D2334A"/>
<path d="M80.7 60.4999C80.7 56.0999 80.7 51.6999 80.7 47.2999C80.7 44.2999 82.8 42.0999 85.6 42.0999C88.5 42.0999 90.5 44.2999 90.5 47.2999C90.5 56.1999 90.5 65.1999 90.5 74.0999C90.5 74.8999 90.6 75.5999 91.4 76.0999C95.7 78.8999 97.6 83.4999 96.5 88.2999C95.5 92.7999 91.6 96.1999 86.7 96.7999C85.7 96.8999 85.2 97.2999 84.8 98.0999C80.9 105.3 76.9 112.5 73 119.7C71.4 122.6 68.5 123.6 66 122.2C63.4 120.8 62.6 117.8 64.2 114.8C68.1 107.7 72 100.6 75.9 93.4999C76.4 92.5999 76.5 91.9999 75.9 90.9999C72.9 85.7999 74.6 79.2999 79.7 76.0999C80.5 75.5999 80.8 75.0999 80.7 74.1999C80.7 69.5999 80.7 65.0999 80.7 60.4999Z" fill="#D2334A"/>
<path d="M88.2 33.0999C88.2 35.3999 87.2 36.5999 85.5 36.4999C83.6 36.3999 82.7 34.7999 83.1 32.0999C83.3 30.4999 84.5 29.4999 86.1 29.6999C87.5 29.8999 88.2 30.9999 88.2 33.0999Z" fill="#D2334A"/>
<path d="M112.2 134.3C110.7 134.3 108.7 131.9 108.8 130.2C108.9 128.8 110 127.7 111.5 127.7C113 127.7 114.9 130.2 114.9 131.9C114.8 133.4 113.7 134.4 112.2 134.3Z" fill="#D2334A"/>
<path d="M58.9 134.4C57.4 134.4 56.3 133.3 56.3 131.9C56.3 130.1 58.3 127.8 59.8 127.9C61.2 127.9 62.4 129.1 62.4 130.5C62.4 132.1 60.4 134.4 58.9 134.4Z" fill="#D2334A"/>
<path d="M36.9 112.3C36.9 110.8 39.3 108.9 41 108.9C42.4 108.9 43.5 110.1 43.5 111.5C43.5 113 41.1 115 39.4 114.9C37.9 114.8 36.8 113.7 36.9 112.3Z" fill="#D2334A"/>
<path d="M138.1 88.0999C136.6 88.2999 135.1 87.8999 134.9 86.2999C134.8 85.3999 135.3 84.1999 135.9 83.5999C136.8 82.6999 139.8 82.8999 140.7 83.7999C141.6 84.6999 141.8 85.7999 141.2 86.8999C140.6 88.0999 139.4 88.1999 138.1 88.0999Z" fill="#D2334A"/>
<path d="M134.4 112.3C134.4 113.8 133.4 114.9 132 114.9C130.3 114.9 127.9 113 127.9 111.5C127.9 110.1 129 108.9 130.4 108.9C132 108.8 134.4 110.8 134.4 112.3Z" fill="#D2334A"/>
<path d="M111.4 43.3C110 43.3 108.8 42.2 108.8 40.8C108.8 39 110.8 36.8 112.3 36.8C113.7 36.8 114.8 38.0001 114.8 39.4001C114.9 41.1001 113 43.3 111.4 43.3Z" fill="#D2334A"/>
<path d="M59.7 43.2999C58.2 43.2999 56.3 41 56.3 39.2C56.3 37.8 57.5 36.7 58.9 36.7C60.4 36.7 62.4 39.0999 62.3 40.7999C62.3 42.2999 61.2 43.2999 59.7 43.2999Z" fill="#D2334A"/>
<path d="M33.1 88.2C32.5 88.1 31.8 88.2 31.2 87.9C30.1 87.5 29.4 86.5 29.7 85.4C30 84.6 30.7 83.5 31.4 83.2C32.8 82.7 34.5 82.5 35.8 83.8C36.6 84.6 36.9 85.8 36.1 86.7C35.4 87.5 34.3 87.9 33.4 88.4C33.3 88.4 33.2 88.3 33.1 88.2Z" fill="#D2334A"/>
<path d="M131.8 56.3999C133.3 56.3999 134.3 57.2999 134.3 58.7999C134.3 60.3999 132.2 62.1999 130.3 62.2999C128.9 62.2999 127.8 61.2999 127.7 59.7999C127.8 58.1999 129.9 56.3999 131.8 56.3999Z" fill="#D2334A"/>
<path d="M39.4 56.3999C41.4 56.4999 43.4 58.1999 43.3 59.8999C43.3 61.2999 42.1 62.3999 40.7 62.2999C38.8 62.1999 36.7 60.3999 36.8 58.7999C36.9 57.2999 37.9 56.2999 39.4 56.3999Z" fill="#D2334A"/>
<path d="M88.3 138.1C88.2 138.7 88.2 139.4 88 140C87.5 141.4 85.9 142 84.5 141.4C83.1 140.8 82.5 138.6 83.2 136.7C83.6 135.4 84.6 134.7 86 134.9C87.5 134.9 88.2 136 88.3 138.1Z" fill="#D2334A"/>
</g>
<defs>
<clipPath id="clip0">
<rect width="171.2" height="183.8" fill="white"/>
</clipPath>
</defs>
</svg>
