<svg width="142" height="184" viewBox="0 0 142 184" fill="none" xmlns="http://www.w3.org/2000/svg">
<g clip-path="url(#clip0)">
<path d="M18.3 87.1001C18.3 89.5001 18.3 91.6001 18.3 93.8001C36.8 93.8001 55.3 93.8001 73.7 93.8001L68.5 87.1001C51.7 87.1001 35 87.1001 18.3 87.1001Z" fill="#D2334A"/>
<path d="M18.2 101.5C18.2 103.8 18.2 105.9 18.2 108.2C40.6 108.2 62.7 108.2 84.9 108.2L79.7 101.5C59.1 101.5 38.7 101.5 18.2 101.5Z" fill="#D2334A"/>
<path d="M18.2 72.8999C18.2 75.1999 18.2 77.2999 18.2 79.2999C33 79.2999 47.7 79.2999 62.5 79.2999L57.5 72.8999C44.4 72.8999 31.3 72.8999 18.2 72.8999Z" fill="#D2334A"/>
<path d="M18.2 116C18.2 118.3 18.2 120.3 18.2 122.4C44.2 122.4 70 122.4 95.8 122.4L90.8 116C66.6 116 42.4 116 18.2 116Z" fill="#D2334A"/>
<path d="M32.5 43.3C29.6 43.3 26.6 43.3 23.7 43.3C23.7 46.6 23.7 49.6 23.7 52.7C26.7 52.7 29.6 52.7 32.5 52.7C32.5 55.6 32.5 58.6 32.5 61.5C35.8 61.5 38.6 61.5 41.9 61.5C41.9 58.5 41.9 55.6 41.9 52.7L32.5 40.5C32.5 41.4 32.5 42.3 32.5 43.3Z" fill="#D2334A"/>
<path d="M141.7 0H13.4V11.7C53.1 11.7 92.8 11.7 132.6 11.7C132.6 63.5 132.6 115.4 132.6 167.2H141.7V0Z" fill="#D2334A"/>
<path d="M13.4 11.5C9.6 11.5 4.2 11.5 0.4 11.5C0.4 14.1 0.4 14.1 0.4 15.4C0.2 33 0.1 50.6 0 68.2C0 90.7 0 113.3 0.1 135.8C0.1 137.3 0.7 139.2 1.7 140.2C15.5 153.8 29.5 167.3 43.3 180.9C45.1 182.7 47 183.5 49.5 183.5C77.2 183.6 104.9 183.7 132.6 183.9C132.6 177.4 132.6 170.9 132.6 164.4C132.6 113.5 132.6 62.5 132.6 11.6C92.9 11.5 53.2 11.5 13.4 11.5ZM125.2 176.6C100.4 176.6 75.9 176.6 51.1 176.6C51.1 175.3 51.1 174.1 51.1 172.9C51.1 162 51.1 151.1 51 140.3C51 134.4 50.5 134.1 44.7 134.1C32.4 134.1 20.1 134.1 7.5 134.1C7.5 95.7 7.5 57.4 7.5 18.9C10.3 18.9 13.1 18.9 15.9 18.9C52.3 18.9 88.7 18.9 125.2 18.9C125.2 66.2 125.2 113.3 125.2 160.6C125.2 165.9 125.2 171.2 125.2 176.6Z" fill="#D2334A"/>
<path d="M114.4 87.1001C99 87.1001 83.8 87.1001 68.5 87.1001L73.7 93.8001C87.3 93.8001 100.8 93.8001 114.4 93.8001C114.4 91.5001 114.4 89.4001 114.4 87.1001Z" fill="#D2334A"/>
<path d="M114.3 101.5C102.7 101.5 91.2 101.5 79.7 101.5L84.9 108.2C94.7 108.2 104.5 108.2 114.3 108.2C114.3 105.9 114.3 103.7 114.3 101.5Z" fill="#D2334A"/>
<path d="M114.4 72.8999C95.4 72.8999 76.5 72.8999 57.6 72.8999L62.6 79.2999C79.9 79.2999 97.2 79.2999 114.4 79.2999C114.4 76.9999 114.4 74.9999 114.4 72.8999Z" fill="#D2334A"/>
<path d="M114.3 116C106.5 116 98.7 116 90.8 116L95.8 122.4C102 122.4 108.1 122.4 114.3 122.4C114.3 120.1 114.3 118.1 114.3 116Z" fill="#D2334A"/>
<path d="M61.3 61.5C79.1 61.5 96.7 61.5 114.4 61.5C114.4 59.2 114.4 57.1 114.4 54.8C96.5 54.8 78.9 54.8 61.3 54.8C61.3 57.1 61.3 59.3 61.3 61.5Z" fill="#D2334A"/>
<path d="M114.4 40.5C96.5 40.5 78.9 40.5 61.2 40.5C61.2 42.8 61.2 44.8 61.2 47C79 47 96.7 47 114.4 47C114.4 44.8 114.4 42.8 114.4 40.5Z" fill="#D2334A"/>
<path d="M50.8 43.3C47.8 43.3 44.9 43.3 42 43.3C42 40.4 42 37.4 42 34.5C38.7 34.5 35.7 34.5 32.6 34.5C32.6 36.5 32.6 38.5 32.6 40.5L42 52.7C44.9 52.7 47.9 52.7 50.8 52.7C50.8 49.4 50.8 46.5 50.8 43.3Z" fill="#D2334A"/>
</g>
<defs>
<clipPath id="clip0">
<rect width="141.7" height="183.8" fill="white"/>
</clipPath>
</defs>
</svg>
