<svg width="132" height="180" viewBox="0 0 132 180" fill="none" xmlns="http://www.w3.org/2000/svg">
<g clip-path="url(#clip0)">
<path d="M121.8 13C113.2 13 104.6 13 96 13C95.8 13 95.5 13 95.2 13.1C101.4 17.9 102.5 19.7 104 27.6C108.4 27.6 112.8 27.6 117.2 27.6C117.2 73.4 117.2 119.1 117.2 164.8C83 164.8 48.9 164.8 14.7 164.8C14.7 119.1 14.7 73.4 14.7 27.5C19.2 27.5 23.6 27.5 28 27.5C28.5 21.2 31.5 16.4 36.9 13C36.5 13 36.2 13 36 13C27.3 13 18.7 13 10 13C4.2 13 0 17.2 0 23C0 71.8 0 120.7 0 169.5C0 175.1 4.3 179.4 9.9 179.4C47.3 179.4 84.7 179.4 122 179.4C122.5 179.4 123.1 179.4 123.6 179.3C128.6 178.5 131.9 174.5 131.9 169.4C131.9 120.6 131.9 71.9 131.9 23.1C131.9 17.2 127.7 13 121.8 13ZM5.5 22.9C4.3 22.9 3.5 22.1 3.6 20.9C3.7 18.8 6.1 16.4 8.1 16.2C9.4 16.1 10.3 16.7 10.3 18C10.4 20.2 7.8 22.9 5.5 22.9Z" fill="#D2334A"/>
<path d="M33.9 23.7C33.4 24.9 33.2 26.2 32.9 27.5C55.1 27.5 76.9 27.5 98.9 27.5C98.9 27.1 98.9 26.9 98.8 26.6C97.9 20.4 92.6 15.8 86.4 15.7C85.3 15.7 84.2 15.7 83 15.7C81.9 5.90004 74 0.300042 66.5 4.15044e-05C58.7 -0.299959 50 5.40004 48.9 15.7C47.8 15.7 46.7 15.7 45.6 15.7C40.4 15.7 35.8 18.9 33.9 23.7ZM66 7.10004C69.2 7.10004 71.9 9.80004 71.9 13C71.9 16.2 69.2 19 66 19C62.7 19 60 16.3 60 13.1C60 9.80004 62.7 7.00004 66 7.10004ZM37.2 22C39 19.5 41.5 18.2 44.1 17.8C45.9 17.8 46.5 18.7 45.6 19.9C43.8 22.4 41.3 23.8 38.3 24.1C37.9 24.1 37.2 23.9 37 23.5C36.8 23.1 36.9 22.4 37.2 22Z" fill="#D2334A"/>
<path d="M104 84.1001C84.6 84.1001 65.2 84.1001 45.8 84.1001C45.5 84.1001 45.2 84.1001 44.9 84.1001C43.6 84.2001 42.6 85.3001 42.6 86.5001C42.6 87.8001 43.5 88.9001 44.8 89.0001C45.2 89.0001 45.5 89.0001 45.9 89.0001C55.6 89.0001 65.2 89.0001 74.9 89.0001C84.6 89.0001 94.2 89.0001 103.9 89.0001C106.1 89.0001 107.2 88.1001 107.2 86.5001C107.3 85.0001 106.2 84.1001 104 84.1001Z" fill="#D2334A"/>
<path d="M106.2 142.8C105.9 142.8 105.6 142.8 105.3 142.8C85.8 142.8 66.3 142.8 46.8 142.8C46.5 142.8 46.3 142.8 46 142.8C44.7 142.9 43.7 144 43.7 145.2C43.7 146.5 44.6 147.6 45.9 147.7C46.2 147.7 46.6 147.7 46.9 147.7C56.6 147.7 66.3 147.7 76 147.7C85.6 147.7 95.3 147.7 104.9 147.7C105.3 147.7 105.7 147.7 106.1 147.7C107.4 147.6 108.3 146.6 108.3 145.3C108.4 144 107.5 143 106.2 142.8Z" fill="#D2334A"/>
<path d="M105.8 113.4C105.4 113.3 105 113.3 104.6 113.3C85.2 113.3 65.9 113.3 46.5 113.3C46.1 113.3 45.7 113.3 45.3 113.4C43.9 113.6 43.1 114.8 43.2 116.1C43.3 117.4 44.4 118.3 45.9 118.3C55.8 118.3 65.6 118.3 75.5 118.3C82.8 118.3 90 118.3 97.3 118.3C100 118.3 102.6 118.3 105.3 118.3C106.7 118.3 107.7 117.4 107.8 116.1C108 114.7 107.1 113.6 105.8 113.4Z" fill="#D2334A"/>
<path d="M104.3 55C103.8 54.9 103.4 55 102.9 55C83.6 55 64.4 55 45.1 55C44.7 55 44.2 55 43.8 55.1C42.7 55.3 41.9 56.2 41.8 57.3C41.7 58.4 42.3 59.6 43.4 59.9C43.9 60 44.4 60 44.9 60C54.7 60 64.4 60 74.2 60C83.9 60 93.7 60 103.4 60C103.7 60 103.9 60 104.2 60C105.5 59.9 106.4 58.9 106.5 57.7C106.5 56.2 105.7 55.2 104.3 55Z" fill="#D2334A"/>
<path d="M24.8 146.4C28.8 146.4 32.6 146.4 36.6 146.4C36.6 142.4 36.6 138.5 36.6 134.6C32.6 134.6 28.7 134.6 24.8 134.6C24.8 138.6 24.8 142.5 24.8 146.4Z" fill="#D2334A"/>
<path d="M36.6 105.2C32.6 105.2 28.7 105.2 24.8 105.2C24.8 109.2 24.8 113.1 24.8 117C28.8 117 32.6 117 36.6 117C36.6 113 36.6 109.1 36.6 105.2Z" fill="#D2334A"/>
<path d="M24.8 46.8C24.8 50.8 24.8 54.7 24.8 58.6C28.8 58.6 32.6 58.6 36.6 58.6C36.6 54.6 36.6 50.7 36.6 46.8C32.6 46.8 28.7 46.8 24.8 46.8Z" fill="#D2334A"/>
<path d="M36.6 76C32.6 76 28.7 76 24.8 76C24.8 79.9 24.8 83.8 24.8 87.8C28.7 87.8 32.7 87.8 36.6 87.8C36.6 83.8 36.6 79.9 36.6 76Z" fill="#D2334A"/>
<path d="M20 31C18.7 31 17.9 32 17.9 33.8C17.9 42.7 17.9 51.6 17.9 60.5C17.9 61 17.9 61.4 18 61.9C18.2 62.9 19 63.5 20.1 63.5C21.2 63.4 21.9 62.6 21.9 61.2C21.9 56.6 21.9 51.9 21.9 47.3C21.9 42.8 21.9 38.3 21.9 33.9C22 32 21.3 31.1 20 31Z" fill="#D2334A"/>
</g>
<defs>
<clipPath id="clip0">
<rect width="131.9" height="179.4" fill="white"/>
</clipPath>
</defs>
</svg>
