<svg width="45" height="35" viewBox="0 0 45 35" fill="none" xmlns="http://www.w3.org/2000/svg">
<g clip-path="url(#clip0)">
<path d="M30.8 17.3C30.2 10.1 23.9 3.70001 16.8 2.90001C16.3 2.80001 15.8 2.90001 15.3 2.70001C14.9 2.60001 14.5 2.20001 14.1 2.00001C14.4 1.60001 14.7 1.10001 15.1 0.900009C17.7 -0.0999906 20.5 -0.299991 23.2 0.100009C31.7 1.40001 37.7 7.80001 38.7 16.5C38.7 16.7 38.7 16.9 38.8 17.2C40.3 17.2 41.7 17.2 43.1 17.2C43.5 17.2 44.1 17.5 44.3 17.8C44.4 18 44.1 18.7 43.8 19C41.2 21.7 38.5 24.3 35.9 27C35.2 27.7 34.7 27.6 34 27C31.4 24.3 28.7 21.7 26.1 19C25.8 18.7 25.5 18 25.7 17.8C25.9 17.5 26.5 17.2 26.9 17.2C28.2 17.3 29.5 17.3 30.8 17.3Z" fill="black"/>
<path d="M13.6 16.8C14.2 24.1 20.5 30.4 27.6 31.2C28.1 31.3 28.6 31.2 29.1 31.4C29.5 31.5 29.9 31.9 30.3 32.1C30 32.5 29.8 33 29.4 33.1C26.7 34.1 24 34.3 21.2 33.9C12.5 32.5 6.7 26.1 5.6 16.8C4.2 16.8 2.8 16.9 1.4 16.8C0.9 16.8 0.5 16.4 0 16.2C0.2 15.8 0.3 15.2 0.6 14.9C3.2 12.3 5.8 9.69999 8.4 7.09999C9.1 6.29999 9.7 6.39999 10.4 7.09999C13 9.69999 15.6 12.3 18.2 14.9C18.5 15.2 18.8 15.9 18.7 16.2C18.6 16.5 17.9 16.8 17.5 16.8C16.2 16.9 15 16.8 13.6 16.8Z" fill="black"/>
</g>
<defs>
<clipPath id="clip0">
<rect width="44.4" height="34.1" fill="white"/>
</clipPath>
</defs>
</svg>
