<svg width="130" height="124" viewBox="0 0 130 124" fill="none" xmlns="http://www.w3.org/2000/svg">
<path d="M83.9001 80.5C81.9001 80.5 80.0001 80.5 78.0001 80.5C74.7001 80.5 71.5001 80.6 68.2001 80.5C68.1001 80.5 68.0001 80.5 67.9001 80.5C62.9001 80.5 58.0001 80.5 53.1001 80.5C50.9001 80.5 48.7001 80.5 46.5001 80.5H45.5001C42.0001 80.5 39.1001 83.4 39.1001 86.9C39.1001 99 39.1001 111.1 39.1001 123.6C48.4001 123.6 57.5001 123.6 66.7001 123.6C67.3001 123.6 67.8001 123.6 68.4001 123.6C75.7001 123.6 83.0001 123.6 90.2001 123.6V86.9C90.3001 83.4 87.5001 80.5 83.9001 80.5Z" fill="white"/>
<path d="M35 58.6C35 56.2 35 53.9 35 51.6C27.9 51.6 20.8 51.6 13.7 51.6C13.7 54 13.7 56.3 13.7 58.6C20.9 58.6 28 58.6 35 58.6Z" fill="white"/>
<path d="M35.1 84.1C28 84.1 20.9 84.1 13.8 84.1C13.8 86.5 13.8 88.8 13.8 91.1C21 91.1 28.1 91.1 35.1 91.1C35.1 88.7 35.1 86.4 35.1 84.1Z" fill="white"/>
<path d="M35.1 36.3C27.9 36.3 20.8 36.3 13.7 36.3C13.7 38.7 13.7 40.9 13.7 43.2C20.9 43.2 28 43.2 35.1 43.2C35.1 40.9 35.1 38.6 35.1 36.3Z" fill="white"/>
<path d="M15 99.4C14.3 99.4 13.7 99.4 13.7 100.4C13.7 102.4 13.7 104.4 13.7 106.5C20.9 106.5 28 106.5 35.1 106.5C35.1 104.1 35.1 101.8 35.1 99.5C31.3 99.5 27.6 99.5 23.9 99.5C20.9 99.4 18 99.4 15 99.4Z" fill="white"/>
<path d="M60.6 58.6C60.6 56.2 60.6 53.9 60.6 51.6C53.5 51.6 46.4 51.6 39.3 51.6C39.3 54 39.3 56.3 39.3 58.6C46.4 58.6 53.5 58.6 60.6 58.6Z" fill="white"/>
<path d="M60.6 36.3C53.4 36.3 46.3 36.3 39.2 36.3C39.2 38.7 39.2 40.9 39.2 43.2C46.4 43.2 53.5 43.2 60.6 43.2C60.6 40.9 60.6 38.6 60.6 36.3Z" fill="white"/>
<path d="M87.4001 58.6C87.4001 56.2 87.4001 53.9 87.4001 51.6C80.3001 51.6 73.2001 51.6 66.1001 51.6C66.1001 54 66.1001 56.3 66.1001 58.6C73.2001 58.6 80.3001 58.6 87.4001 58.6Z" fill="white"/>
<path d="M87.4 36.3C80.2 36.3 73.1 36.3 66 36.3C66 38.7 66 40.9 66 43.2C73.2 43.2 80.3 43.2 87.4 43.2C87.4 40.9 87.4 38.6 87.4 36.3Z" fill="white"/>
<path d="M116 58.6C116 56.2 116 53.9 116 51.6C108.9 51.6 101.8 51.6 94.7 51.6C94.7 54 94.7 56.3 94.7 58.6C101.9 58.6 109 58.6 116 58.6Z" fill="white"/>
<path d="M116 84.1C108.9 84.1 101.8 84.1 94.7 84.1C94.7 86.5 94.7 88.8 94.7 91.1C101.9 91.1 109 91.1 116 91.1C116 88.7 116 86.4 116 84.1Z" fill="white"/>
<path d="M116.1 36.3C108.9 36.3 101.8 36.3 94.7 36.3C94.7 38.7 94.7 40.9 94.7 43.2C101.9 43.2 109 43.2 116.1 43.2C116.1 40.9 116.1 38.6 116.1 36.3Z" fill="white"/>
<path d="M94.7 106.5C101.9 106.5 109 106.5 116.1 106.5C116.1 104.1 116.1 101.8 116.1 99.5C112.3 99.5 108.6 99.5 104.9 99.5C101.9 99.5 99 99.5 96 99.5C95.3 99.5 94.7 99.5 94.7 100.5C94.6 102.4 94.7 104.4 94.7 106.5Z" fill="white"/>
<path d="M129.2 28.2C129.2 25.5 129.2 22.9 129.2 20.2C116.6 20.2 98.6 20.2 85.9 20.2C85.9 22.8 85.9 25.4 85.9 28.1C95.5 28.1 110.5 28.1 120.2 28.1C120.2 41.2 120.2 54.1 120.2 67.2C111.7 67.2 103.2 67.2 94.7 67.2C93.9 67.2 92.8 67.2 91.3 67.2C74.7 67.2 18.3 67.2 9.5 67.2C9.5 54.1 9.5 41.2 9.5 28.1C19.2 28.1 34.4 28.1 44.1 28.1C44.1 25.4 44.1 22.8 44.1 20.2C31.4 20.2 13.1 20.2 0.5 20.2C0.5 22.9 0.5 25.5 0.5 28.2C2.2 28.2 3.9 28.2 5.5 28.2C5.5 41.3 5.5 54.2 5.5 67.3C3.8 67.3 2.2 67.3 0.5 67.3C0.5 70 0.5 72.6 0.5 75.3C2.2 75.3 3.89998 75.3 5.59998 75.3C5.59998 76 5.59998 76.5 5.59998 77C5.59998 91.6 5.59998 106.2 5.59998 120.8C5.59998 123 6.10005 123.5 8.30005 123.5C18.6 123.5 28.9 123.5 39.2 123.5V119.6C29.2 119.6 19.3 119.6 9.40002 119.6C9.40002 104.8 9.40002 90.1 9.40002 75.2C18.3 75.2 74.7 75.2 91.2 75.2C92.7 75.2 93.8 75.2 94.6 75.2C103.1 75.2 111.6 75.2 120.1 75.2C120.1 90.1 120.1 104.8 120.1 119.6C110.2 119.6 100.3 119.6 90.3 119.6V123.5C100.6 123.5 110.9 123.5 121.2 123.5C123.4 123.5 123.9 123 123.9 120.8C123.9 106.2 123.9 91.6 123.9 77C123.9 76.5 123.9 76 123.9 75.3C125.6 75.3 127.3 75.3 129 75.3C129 72.5 129 70 129 67.3C127.3 67.3 125.7 67.3 124 67.3C124 54.2 124 41.3 124 28.2C125.8 28.2 127.4 28.2 129.2 28.2Z" fill="white"/>
<path d="M50.9 31.1H78.7C80.4 31.1 81.9 29.7 81.9 27.9V3.59999C81.9 1.89999 80.5 0.399994 78.7 0.399994H50.9C49.2 0.399994 47.7 1.79999 47.7 3.59999V27.9C47.7 29.7 49.1 31.1 50.9 31.1ZM61.9 12.8C61.7 12.4 61.5 12 61.3 11.6C61 10.8 60.7 9.99999 60.7 9.09999C60.7 8.59999 60.7 7.99999 60.9 7.49999C61.1 6.99999 61.3 6.49999 61.6 5.99999C62 5.39999 62.6 4.99999 63.3 4.79999C63.9 4.59999 64.6 4.49999 65.3 4.49999C66.1 4.49999 66.9 4.7 67.6 5.2C68 5.5 68.3 5.8 68.6 6.2C68.8 6.5 68.9 6.79999 69 7.09999C69.3 8.09999 69.3 9.1 69.3 10.2C69.3 11.2 69.2 12.2 69.1 13.2C69.1 13.8 69 14.4 69.1 15C69.1 15.6 69.2 16.3 69.4 16.9C69.6 17.4 69.8 17.8 70.2 18.1C70.4 18.2 70.6 18.3 70.8 18.4C71.3 18.6 71.9 18.7 72.5 18.6C72.9 18.5 73.3 18.4 73.6 18.2C74.1 17.8 74.5 17.3 74.7 16.7C74.9 16.1 74.9 15.5 74.8 14.8C74.6 14.1 74.3 13.6 73.7 13.2C73.4 13 73.1 12.9 72.8 12.9C72.1 12.8 71.5 12.8 70.8 12.8C70.6 12.8 70.5 12.8 70.3 12.8C70.2 12.8 70.2 12.8 70.2 12.7C70.2 12.4 70.3 12 70.3 11.7C70.3 11.6 70.4 11.6 70.5 11.6C70.8 11.5 71.1 11.5 71.4 11.4C71.9 11.4 72.5 11.4 73 11.6C73.6 11.8 74.2 12 74.6 12.3C75 12.6 75.4 13 75.7 13.5C76.1 14.1 76.2 14.8 76.2 15.6C76.2 16.3 76 17 75.7 17.6C75.5 18 75.2 18.4 74.9 18.7C74.4 19.2 73.8 19.6 73.2 19.8C72.5 20 71.9 20 71.2 19.8C70.7 19.7 70.2 19.4 69.8 19.2C69.3 18.9 68.9 18.5 68.6 17.9C68.4 17.5 68.2 17.1 68.1 16.6C67.8 15.5 67.8 14.4 67.9 13.3C67.9 12.6 68 11.9 68 11.3C68.1 10.4 68.1 9.5 68 8.7C68 8.2 67.9 7.69999 67.7 7.29999C67.5 6.69999 67.1 6.29999 66.5 6.09999C66.4 5.99999 66.4 6.09999 66.3 5.99999C65.8 5.79999 65.3 5.79999 64.7 5.89999C64.1 5.99999 63.5 6.2 63 6.7C62.5 7.2 62.2 7.79999 62.2 8.49999C62.2 9.29999 62.3 10 62.6 10.7C62.8 11.2 63 11.6 63.2 12C63.5 12.5 63.7 12.9 64 13.3C64.4 13.8 64.7 14.3 65.1 14.8C65.4 15.2 65.8 15.6 66.1 16C66.3 16.3 66.6 16.6 66.8 16.9C67.2 17.5 67.6 18 68 18.7C68.2 19 68.3 19.3 68.4 19.6C68.5 19.9 68.6 20.2 68.7 20.5C68.9 21.4 69 22.3 68.9 23.2C68.8 23.8 68.7 24.4 68.4 24.9C68.1 25.5 67.6 26 67 26.3C66.2 26.8 65.4 26.9 64.5 26.8C63.9 26.8 63.4 26.6 62.9 26.4C62.2 26.1 61.6 25.6 61.2 24.8C60.8 24.1 60.7 23.3 60.6 22.6C60.5 21.7 60.6 20.8 60.6 20C60.6 19.7 60.6 19.8 60.4 19.8C59.6 19.8 58.7 19.8 57.9 19.8C57.4 19.8 56.9 19.7 56.4 19.6C55.7 19.4 55.1 18.9 54.6 18.3C54.1 17.7 53.9 17.1 53.8 16.3C53.7 15.8 53.7 15.4 53.8 14.9C53.9 14.5 53.9 14.1 54.1 13.7C54.3 13.2 54.6 12.8 55 12.5C55.4 12.2 55.9 12 56.4 11.8C57.1 11.6 57.9 11.5 58.6 11.5C59.1 11.5 59.5 11.5 60 11.5C60.1 11.5 60.1 11.5 60.2 11.6C60.3 12 60.4 12.3 60.6 12.7C60.6 12.8 60.6 12.8 60.5 12.8C59.8 12.8 59.2 12.8 58.5 12.8C58 12.8 57.5 12.8 57 13C56.4 13.2 56 13.5 55.7 14C55.3 14.6 55.1 15.4 55.2 16.1C55.3 16.6 55.4 17.1 55.7 17.5C56.1 17.9 56.5 18.2 57.1 18.4C58 18.7 59 18.7 59.9 18.7C60.6 18.7 61.3 18.7 62 18.7C62.1 18.7 62.1 18.7 62.1 18.8C62.1 19.1 62.1 19.4 62.1 19.6C62.1 20.4 62.1 21.2 62 22C62 22.6 62 23.2 62.2 23.7C62.3 24.1 62.5 24.5 62.8 24.8C63.1 25.1 63.4 25.3 63.8 25.4C64.5 25.6 65.3 25.6 66 25.4C66.5 25.3 66.8 25 67.1 24.6C67.3 24.3 67.5 23.9 67.6 23.5C67.8 22.9 67.7 22.2 67.6 21.6C67.5 21.2 67.4 20.7 67.3 20.3C67.1 19.8 66.9 19.4 66.6 18.9C66.4 18.5 66.1 18.2 65.8 17.8C65.3 17.2 64.8 16.6 64.3 16C63.9 15.5 63.6 15.1 63.2 14.6C62.8 14.1 62.4 13.5 62.1 13C61.9 12.9 61.9 12.8 61.9 12.8Z" fill="white"/>
</svg>
