<svg width="129" height="128" viewBox="0 0 129 128" fill="none" xmlns="http://www.w3.org/2000/svg">
<path d="M49.5 25.8C47.2 21.3 46.7 16.7 48.3 11.9C49.5 8.39999 51.7 5.49999 54.7 3.39999C60.7 -0.80001 68.9 -0.600017 74.7 3.79998C78.1 6.39998 80.2 9.69999 81.1 13.9C81.9 17.8 81.6 19.6 79.4 25.9C79.8 25.9 80.2 25.9 80.5 26C83.4 26 86.3 26 89.3 26C92.8 26 94.8 28 94.8 31.5C94.8 61.5 94.8 91.6 94.8 121.6C94.8 122.6 94.8 123.5 94.8 124.6C103.6 124.6 112.4 124.6 121.2 124.6C121.2 112.6 121.2 100.7 121.2 88.6C113.4 88.6 105.6 88.6 97.7 88.6C97.7 86.4 97.7 84.3 97.7 82.1C105.5 82.1 113.3 82.1 121.1 82.1C121.1 71.5 121.1 61 121.1 50.4C113.3 50.4 105.5 50.4 97.6 50.4C97.6 48.2 97.6 46.1 97.6 43.9C107.8 43.9 118 43.9 128.4 43.9C128.4 46 128.4 48.1 128.4 50.3C127.1 50.3 125.8 50.3 124.4 50.3C124.4 60.9 124.4 71.4 124.4 82C125.7 82 127 82 128.4 82C128.4 84.2 128.4 86.3 128.4 88.5C127.1 88.5 125.8 88.5 124.3 88.5C124.3 89 124.3 89.4 124.3 89.8C124.3 101.6 124.3 113.5 124.3 125.3C124.3 127.2 123.9 127.6 122 127.6C83.6 127.6 45.1 127.6 6.70002 127.6C4.90002 127.6 4.50002 127.2 4.50002 125.4C4.50002 113.6 4.50002 101.7 4.50002 89.9C4.50002 89.5 4.50002 89.1 4.50002 88.5C3.10002 88.5 1.80002 88.5 0.400024 88.5C0.400024 86.3 0.400024 84.2 0.400024 82C1.70002 82 3.10002 82 4.50002 82C4.50002 71.4 4.50002 60.9 4.50002 50.3C3.20002 50.3 1.80002 50.3 0.400024 50.3C0.400024 48.1 0.400024 46 0.400024 43.8C10.7 43.8 20.9 43.8 31.2 43.8C31.2 45.9 31.2 48 31.2 50.2C23.4 50.2 15.6 50.2 7.70002 50.2C7.70002 60.8 7.70002 71.3 7.70002 81.9C15.5 81.9 23.3 81.9 31.1 81.9C31.1 84.1 31.1 86.2 31.1 88.4C23.3 88.4 15.5 88.4 7.60002 88.4C7.60002 100.5 7.60002 112.4 7.60002 124.4C16.4 124.4 25.1 124.4 34 124.4C34 124 34 123.6 34 123.1C34 112.7 34 102.2 34 91.8C34 71.6 34 51.5 34 31.3C34 28.1 36.2 25.6 39.6 25.7C42.8 25.8 45.9 25.7 49.1 25.7C49.2 25.9 49.2 25.9 49.5 25.8ZM48.9 124.6C59.3 124.6 69.6 124.6 80.1 124.6C80.1 124.2 80.1 123.7 80.1 123.3C80.1 114.4 80.1 105.4 80.1 96.5C80.1 93.7 78.8 92.4 76 92.4C68.4 92.4 60.8 92.4 53.1 92.4C50.2 92.4 48.9 93.6 48.9 96.6C48.9 103.9 48.9 111.2 48.9 118.5C48.9 120.5 48.9 122.5 48.9 124.6ZM64.4 31.5C72.2 31.5 78.5 25.3 78.5 17.6C78.5 9.8 72.3 3.5 64.5 3.5C56.7 3.5 50.4 9.8 50.4 17.6C50.4 25.2 56.7 31.5 64.4 31.5ZM64.5 50.6C65.4 50.6 66.3 50.6 67.2 50.6C67.3 50.6 67.3 50.6 67.4 50.6C68.8 50.5 69.6 49.8 69.6 48.4C69.6 46.5 69.6 44.5 69.6 42.6C69.6 41.2 68.8 40.4 67.4 40.4C65.4 40.4 63.4 40.4 61.4 40.4C60 40.4 59.3 41.2 59.3 42.6C59.3 44.6 59.3 46.6 59.3 48.6C59.3 50 60.1 50.7 61.5 50.8C62.5 50.6 63.5 50.6 64.5 50.6ZM64.4 67.1C65.3 67.1 66.3 67.1 67.2 67.1H67.3C68.7 67.1 69.5 66.3 69.5 64.9C69.5 63 69.6 61 69.6 59.1C69.6 57.7 68.8 56.8 67.3 56.8C65.3 56.8 63.3 56.8 61.4 56.8C60 56.8 59.3 57.6 59.2 58.9C59.2 60.9 59.2 62.9 59.2 64.8C59.2 66.2 60 67 61.4 67C62.5 67.1 63.5 67.1 64.4 67.1ZM87 45.4C87.1 45.4 87.1 45.4 87 45.4C87 44.5 87 43.5 87 42.6C87 41.2 86.3 40.3 84.9 40.3C82.8 40.2 80.7 40.2 78.6 40.3C77.4 40.3 76.6 41.2 76.6 42.4C76.6 44.4 76.6 46.4 76.6 48.4C76.6 49.8 77.3 50.5 78.7 50.5C80.7 50.5 82.7 50.5 84.7 50.5C86 50.5 86.8 49.7 86.8 48.3C87.1 47.4 87 46.4 87 45.4ZM41.9 61.9C41.9 62.8 41.9 63.7 41.9 64.6C41.9 64.7 41.9 64.7 41.9 64.8C41.9 66.3 42.6 67 44 67.1C46 67.1 48 67.1 49.9 67.1C51.4 67.1 52.1 66.3 52.1 64.9C52.1 63 52.1 61.1 52.1 59.2C52.1 57.6 51.4 56.9 49.8 56.9C47.9 56.9 45.9 56.9 44 56.9C42.6 56.9 41.9 57.7 41.9 59.1C41.8 60 41.9 60.9 41.9 61.9ZM87 62C87 61.5 87 61 87 60.4C87 59.9 87 59.4 87 58.8C87 57.5 86.2 56.7 85 56.7C82.9 56.7 80.8 56.7 78.7 56.7C77.4 56.7 76.7 57.5 76.7 58.8C76.7 60.8 76.7 62.8 76.7 64.9C76.7 66.2 77.4 67 78.7 67C80.8 67.1 82.9 67.1 85.1 67C86.4 67 87 66.2 87 64.9C87.1 64 87 63 87 62ZM64.4 83.3C65.4 83.3 66.4 83.3 67.4 83.3C68.7 83.3 69.5 82.6 69.6 81.3C69.7 79.2 69.6 77.2 69.6 75.1C69.6 73.8 68.8 73 67.5 73C65.5 73 63.5 73 61.4 73C60.1 73 59.3 73.8 59.3 75C59.2 77.1 59.2 79.2 59.3 81.3C59.3 82.6 60.1 83.3 61.4 83.3C62.4 83.4 63.4 83.3 64.4 83.3ZM47 50.6C48 50.6 49 50.6 50 50.6C51.3 50.5 52.1 49.8 52.1 48.5C52.1 46.5 52.1 44.5 52.1 42.4C52.1 41.1 51.3 40.3 50 40.3C47.9 40.3 45.9 40.2 43.8 40.3C42.5 40.3 41.8 41.1 41.8 42.5C41.8 44.5 41.8 46.5 41.8 48.4C41.8 49.8 42.6 50.5 43.9 50.6C45 50.6 46 50.6 47 50.6ZM46.9 83.4C46.9 83.3 46.9 83.3 46.9 83.4C47.4 83.4 47.9 83.4 48.4 83.4C48.9 83.4 49.4 83.4 49.9 83.4C51.4 83.4 52.2 82.7 52.2 81.2C52.2 79.3 52.2 77.4 52.2 75.5C52.2 74 51.5 73.2 50 73.2C48.1 73.2 46.1 73.2 44.2 73.2C42.8 73.2 42 74 42 75.4C42 77.4 42 79.4 42 81.4C42 82.8 42.8 83.5 44.2 83.5C45 83.4 46 83.4 46.9 83.4ZM87 78.3C87 77.3 87 76.2 87 75.2C87 73.9 86.2 73.1 85 73.1C82.9 73.1 80.8 73.1 78.7 73.1C77.5 73.1 76.7 73.9 76.7 75.2C76.7 77.3 76.7 79.3 76.7 81.4C76.7 82.6 77.5 83.4 78.7 83.4C80.7 83.4 82.7 83.4 84.8 83.4C86.2 83.4 86.9 82.6 87 81.2C87.1 80.2 87 79.2 87 78.3Z" fill="white"/>
<path d="M12.2001 69.3C18.0001 69.3 23.7001 69.3 29.5001 69.3C29.5001 71.2 29.5001 73 29.5001 75C23.8001 75 18.0001 75 12.2001 75C12.2001 73.1 12.2001 71.2 12.2001 69.3Z" fill="white"/>
<path d="M99.4 69.3C105.2 69.3 110.9 69.3 116.7 69.3C116.7 71.2 116.7 73.1 116.7 75C110.9 75 105.2 75 99.4 75C99.4 73.1 99.4 71.3 99.4 69.3Z" fill="white"/>
<path d="M12.1 95.6C17.9 95.6 23.6 95.6 29.4 95.6C29.4 97.5 29.4 99.4 29.4 101.3C23.7 101.3 17.9 101.3 12.1 101.3C12.1 99.4 12.1 97.6 12.1 95.6Z" fill="white"/>
<path d="M99.4 101.3C99.4 99.4 99.4 97.5 99.4 95.6C105.2 95.6 110.9 95.6 116.7 95.6C116.7 97.5 116.7 99.3 116.7 101.3C111 101.3 105.2 101.3 99.4 101.3Z" fill="white"/>
<path d="M29.5001 56.9C29.5001 58.8 29.5001 60.6 29.5001 62.5C23.7001 62.5 18.0001 62.5 12.2001 62.5C12.2001 60.6 12.2001 58.8 12.2001 56.9C17.9001 56.9 23.7001 56.9 29.5001 56.9Z" fill="white"/>
<path d="M99.4 62.5C99.4 60.6 99.4 58.8 99.4 56.9C105.2 56.9 110.9 56.9 116.7 56.9C116.7 58.8 116.7 60.6 116.7 62.5C111 62.5 105.2 62.5 99.4 62.5Z" fill="white"/>
<path d="M29.4 113.8C23.7 113.8 17.9 113.8 12.1 113.8C12.1 112.1 12.1 110.5 12.1 108.9C12.1 108.2 12.6 108.1 13.2 108.1C15.6 108.1 18 108.1 20.4 108.1C23.4 108.1 26.4 108.1 29.5 108.1C29.4 110 29.4 111.9 29.4 113.8Z" fill="white"/>
<path d="M116.8 108.1C116.8 110 116.8 111.8 116.8 113.7C111 113.7 105.3 113.7 99.5 113.7C99.5 111.8 99.5 110 99.5 108.1C105.2 108.1 111 108.1 116.8 108.1Z" fill="white"/>
<path d="M62.0001 14.5C61.8001 14.1 61.6001 13.7 61.4001 13.3C61.1001 12.5 60.8001 11.7 60.8001 10.8C60.8001 10.3 60.8001 9.70001 61.0001 9.20001C61.2001 8.70001 61.4001 8.20001 61.7001 7.70001C62.1001 7.10001 62.7001 6.7 63.4001 6.5C64.0001 6.3 64.7001 6.20001 65.4001 6.20001C66.2001 6.20001 67.0001 6.39999 67.7001 6.89999C68.1001 7.19999 68.4001 7.49999 68.7001 7.89999C68.9001 8.19999 69.0001 8.49999 69.1001 8.79999C69.4001 9.79999 69.4001 10.8 69.4001 11.9C69.4001 12.9 69.3001 13.9 69.2001 14.9C69.2001 15.5 69.1001 16.1 69.2001 16.7C69.2001 17.3 69.3001 18 69.5001 18.6C69.7001 19.1 69.9001 19.5 70.3001 19.8C70.5001 19.9 70.7001 20 70.9001 20.1C71.4001 20.3 72.0001 20.4 72.6001 20.3C73.0001 20.2 73.4001 20.1 73.7001 19.9C74.2001 19.5 74.6001 19 74.8001 18.4C75.0001 17.8 75.0001 17.2 74.9001 16.5C74.7001 15.8 74.4001 15.3 73.8001 14.9C73.5001 14.7 73.2001 14.6 72.9001 14.6C72.2001 14.5 71.6001 14.5 70.9001 14.5C70.7001 14.5 70.6001 14.5 70.4001 14.5C70.3001 14.5 70.3001 14.5 70.3001 14.4C70.3001 14.1 70.4001 13.7 70.4001 13.4C70.4001 13.3 70.5001 13.3 70.6001 13.3C70.9001 13.2 71.2001 13.2 71.5001 13.1C72.0001 13.1 72.6001 13.1 73.1001 13.3C73.7001 13.5 74.3001 13.7 74.7001 14C75.1001 14.3 75.5001 14.7 75.8001 15.2C76.2001 15.8 76.3001 16.5 76.3001 17.3C76.3001 18 76.1001 18.7 75.8001 19.3C75.6001 19.7 75.3001 20.1 75.0001 20.4C74.5001 20.9 73.9001 21.3 73.3001 21.5C72.6001 21.7 72.0001 21.7 71.3001 21.5C70.8001 21.4 70.3001 21.1 69.9001 20.9C69.4001 20.6 69.0001 20.2 68.7001 19.6C68.5001 19.2 68.3001 18.8 68.2001 18.3C67.9001 17.2 67.9001 16.1 68.0001 15C68.0001 14.3 68.1001 13.6 68.1001 13C68.2001 12.1 68.2001 11.2 68.1001 10.4C68.1001 9.89999 68.0001 9.4 67.8001 9C67.6001 8.4 67.2001 7.99999 66.6001 7.79999C66.5001 7.69999 66.5001 7.80001 66.4001 7.70001C65.9001 7.50001 65.4001 7.50001 64.8001 7.60001C64.2001 7.70001 63.6001 7.89999 63.1001 8.39999C62.6001 8.89999 62.3001 9.50001 62.3001 10.2C62.3001 11 62.4001 11.7 62.7001 12.4C62.9001 12.9 63.1001 13.3 63.3001 13.7C63.6001 14.2 63.8001 14.6 64.1001 15C64.5001 15.5 64.8001 16 65.2001 16.5C65.5001 16.9 65.9001 17.3 66.2001 17.7C66.4001 18 66.7001 18.3 66.9001 18.6C67.3001 19.2 67.7001 19.7 68.1001 20.4C68.3001 20.7 68.4001 21 68.5001 21.3C68.6001 21.6 68.7001 21.9 68.8001 22.2C69.0001 23.1 69.1001 24 69.0001 24.9C68.9001 25.5 68.8001 26.1 68.5001 26.6C68.2001 27.2 67.7001 27.7 67.1001 28C66.3001 28.5 65.5001 28.6 64.6001 28.5C64.0001 28.5 63.5001 28.3 63.0001 28.1C62.3001 27.8 61.7001 27.3 61.3001 26.5C60.9001 25.8 60.8001 25 60.7001 24.3C60.6001 23.4 60.7001 22.5 60.7001 21.7C60.7001 21.4 60.7001 21.5 60.5001 21.5C59.7001 21.5 58.8001 21.5 58.0001 21.5C57.5001 21.5 57.0001 21.4 56.5001 21.3C55.8001 21.1 55.2001 20.6 54.7001 20C54.2001 19.4 54.0001 18.8 53.9001 18C53.8001 17.5 53.8001 17.1 53.9001 16.6C54.0001 16.2 54.0001 15.8 54.2001 15.4C54.4001 14.9 54.7001 14.5 55.1001 14.2C55.5001 13.9 56.0001 13.7 56.5001 13.5C57.2001 13.3 58.0001 13.2 58.7001 13.2C59.2001 13.2 59.6001 13.2 60.1001 13.2C60.2001 13.2 60.2001 13.2 60.3001 13.3C60.4001 13.7 60.5001 14 60.7001 14.4C60.7001 14.5 60.7001 14.5 60.6001 14.5C59.9001 14.5 59.3001 14.5 58.6001 14.5C58.1001 14.5 57.6001 14.5 57.1001 14.7C56.5001 14.9 56.1001 15.2 55.8001 15.7C55.4001 16.3 55.2001 17.1 55.3001 17.8C55.4001 18.3 55.5001 18.8 55.8001 19.2C56.2001 19.6 56.6001 19.9 57.2001 20.1C58.1001 20.4 59.1001 20.4 60.0001 20.4C60.7001 20.4 61.4001 20.4 62.1001 20.4C62.2001 20.4 62.2001 20.4 62.2001 20.5C62.2001 20.8 62.2001 21.1 62.2001 21.3C62.2001 22.1 62.2001 22.9 62.1001 23.7C62.1001 24.3 62.1001 24.9 62.3001 25.4C62.4001 25.8 62.6001 26.2 62.9001 26.5C63.2001 26.8 63.5001 27 63.9001 27.1C64.6001 27.3 65.4001 27.3 66.1001 27.1C66.6001 27 66.9001 26.7 67.2001 26.3C67.4001 26 67.6001 25.6 67.7001 25.2C67.9001 24.6 67.8001 23.9 67.7001 23.3C67.6001 22.9 67.5001 22.4 67.4001 22C67.2001 21.5 67.0001 21.1 66.7001 20.6C66.5001 20.2 66.2001 19.9 65.9001 19.5C65.4001 18.9 64.9001 18.3 64.4001 17.7C64.0001 17.2 63.7001 16.8 63.3001 16.3C62.9001 15.8 62.5001 15.2 62.2001 14.7C62.1001 14.6 62.1001 14.6 62.0001 14.5Z" fill="white"/>
</svg>
