<svg width="132" height="130" viewBox="0 0 132 130" fill="none" xmlns="http://www.w3.org/2000/svg">
<g opacity="0.6">
<path opacity="0.6" d="M15.2999 21.4H0.699951V36H15.2999V21.4Z" fill="white"/>
<path opacity="0.6" d="M36.3999 21.4H21.7999V36H36.3999V21.4Z" fill="white"/>
<path opacity="0.6" d="M57.4999 21.4H42.8999V36H57.4999V21.4Z" fill="white"/>
<path opacity="0.6" d="M78.6 21.4H64V36H78.6V21.4Z" fill="white"/>
<path opacity="0.6" d="M15.2999 42.3H0.699951V56.9H15.2999V42.3Z" fill="white"/>
<path opacity="0.6" d="M36.3999 42.3H21.7999V56.9H36.3999V42.3Z" fill="white"/>
<path opacity="0.6" d="M57.4999 42.3H42.8999V56.9H57.4999V42.3Z" fill="white"/>
<path opacity="0.6" d="M78.6 42.3H64V56.9H78.6V42.3Z" fill="white"/>
<path opacity="0.6" d="M15.2999 63.3H0.699951V77.9H15.2999V63.3Z" fill="white"/>
<path opacity="0.6" d="M36.3999 63.3H21.7999V77.9H36.3999V63.3Z" fill="white"/>
<path opacity="0.6" d="M57.4999 63.3H42.8999V77.9H57.4999V63.3Z" fill="white"/>
<path opacity="0.6" d="M78.6 63.3H64V77.9H78.6V63.3Z" fill="white"/>
<path opacity="0.6" d="M15.2999 84.3H0.699951V98.9H15.2999V84.3Z" fill="white"/>
<path opacity="0.6" d="M36.3999 84.3H21.7999V98.9H36.3999V84.3Z" fill="white"/>
<path opacity="0.6" d="M57.4999 84.3H42.8999V98.9H57.4999V84.3Z" fill="white"/>
<path opacity="0.6" d="M78.6 84.3H64V98.9H78.6V84.3Z" fill="white"/>
<path opacity="0.6" d="M15.2999 105.2H0.699951V119.8H15.2999V105.2Z" fill="white"/>
<path opacity="0.6" d="M36.3999 105.2H21.7999V119.8H36.3999V105.2Z" fill="white"/>
<path opacity="0.6" d="M57.4999 105.2H42.8999V119.8H57.4999V105.2Z" fill="white"/>
<path opacity="0.6" d="M78.6 105.2H64V119.8H78.6V105.2Z" fill="white"/>
<path opacity="0.6" d="M19.9999 0.700012V16.9H83.2V124.1H0.699951V129.2H83.2H131.8V124.1V16.9V14.7V0.700012H19.9999ZM121.3 33.5H127.5V39.7H121.3V33.5ZM121.3 42.4H127.5V48.6H121.3V42.4ZM121.3 54.6H127.5V60.8H121.3V54.6ZM121.3 63.5H127.5V69.7H121.3V63.5ZM121.3 75.8H127.5V82H121.3V75.8ZM121.3 84.6H127.5V90.8H121.3V84.6ZM121.3 96.9H127.5V103.1H121.3V96.9ZM121.3 105.8H127.5V112H121.3V105.8ZM112.4 103.1V96.9H118.6V103.1H112.4ZM118.6 105.8V112H112.4V105.8H118.6ZM112.4 90.9V84.7H118.6V90.9H112.4ZM112.4 82V75.8H118.6V82H112.4ZM112.4 69.8V63.6H118.6V69.8H112.4ZM112.4 60.9V54.7H118.6V60.9H112.4ZM112.4 48.6V42.4H118.6V48.6H112.4ZM112.4 39.8V33.6H118.6V39.8H112.4ZM98.4999 33.5H104.7V39.7H98.4999V33.5ZM98.4999 42.4H104.7V48.6H98.4999V42.4ZM98.4999 54.6H104.7V60.8H98.4999V54.6ZM98.4999 63.5H104.7V69.7H98.4999V63.5ZM98.4999 75.8H104.7V82H98.4999V75.8ZM98.4999 84.6H104.7V90.8H98.4999V84.6ZM98.4999 96.9H104.7V103.1H98.4999V96.9ZM98.4999 105.8H104.7V112H98.4999V105.8ZM89.5999 33.5H95.7999V39.7H89.5999V33.5ZM89.5999 42.4H95.7999V48.6H89.5999V42.4ZM89.5999 54.6H95.7999V60.8H89.5999V54.6ZM89.5999 63.5H95.7999V69.7H89.5999V63.5ZM89.5999 75.8H95.7999V82H89.5999V75.8ZM89.5999 84.6H95.7999V90.8H89.5999V84.6ZM89.5999 96.9H95.7999V103.1H89.5999V96.9ZM89.5999 105.8H95.7999V112H89.5999V105.8ZM104.4 15.8C104.2 15.4 104 15 103.8 14.6C103.5 13.8 103.2 13 103.2 12.1C103.2 11.6 103.2 11 103.4 10.5C103.6 10 103.8 9.5 104.1 9C104.5 8.4 105.1 7.99999 105.8 7.79999C106.4 7.59999 107.1 7.5 107.8 7.5C108.6 7.5 109.4 7.70001 110.1 8.20001C110.5 8.50001 110.8 8.80001 111.1 9.20001C111.3 9.50001 111.4 9.80001 111.5 10.1C111.8 11.1 111.8 12.1 111.8 13.2C111.8 14.2 111.7 15.2 111.6 16.2C111.6 16.8 111.5 17.4 111.6 18C111.6 18.6 111.7 19.3 111.9 19.9C112.1 20.4 112.3 20.8 112.7 21.1C112.9 21.2 113.1 21.3 113.3 21.4C113.8 21.6 114.4 21.7 115 21.6C115.4 21.5 115.8 21.4 116.1 21.2C116.6 20.8 117 20.3 117.2 19.7C117.4 19.1 117.4 18.5 117.3 17.8C117.1 17.1 116.8 16.6 116.2 16.2C115.9 16 115.6 15.9 115.3 15.9C114.6 15.8 114 15.8 113.3 15.8C113.1 15.8 113 15.8 112.8 15.8C112.7 15.8 112.7 15.8 112.7 15.7C112.7 15.4 112.8 15 112.8 14.7C112.8 14.6 112.9 14.6 113 14.6C113.3 14.5 113.6 14.5 113.9 14.4C114.4 14.4 115 14.4 115.5 14.6C116.1 14.8 116.7 15 117.1 15.3C117.5 15.6 117.9 16 118.2 16.5C118.6 17.1 118.7 17.8 118.7 18.6C118.7 19.3 118.5 20 118.2 20.6C118 21 117.7 21.4 117.4 21.7C116.9 22.2 116.3 22.6 115.7 22.8C115 23 114.4 23 113.7 22.8C113.2 22.7 112.7 22.4 112.3 22.2C111.8 21.9 111.4 21.5 111.1 20.9C110.9 20.5 110.7 20.1 110.6 19.6C110.3 18.5 110.3 17.4 110.4 16.3C110.4 15.6 110.5 14.9 110.5 14.3C110.6 13.4 110.6 12.5 110.5 11.7C110.5 11.2 110.4 10.7 110.2 10.3C110 9.69999 109.6 9.30001 109 9.10001C108.9 9.00001 108.9 9.1 108.8 9C108.3 8.8 107.8 8.79999 107.2 8.89999C106.6 8.99999 106 9.20001 105.5 9.70001C105 10.2 104.7 10.8 104.7 11.5C104.7 12.3 104.8 13 105.1 13.7C105.3 14.2 105.5 14.6 105.7 15C106 15.5 106.2 15.9 106.5 16.3C106.9 16.8 107.2 17.3 107.6 17.8C107.9 18.2 108.3 18.6 108.6 19C108.8 19.3 109.1 19.6 109.3 19.9C109.7 20.5 110.1 21 110.5 21.7C110.7 22 110.8 22.3 110.9 22.6C111 22.9 111.1 23.2 111.2 23.5C111.4 24.4 111.5 25.3 111.4 26.2C111.3 26.8 111.2 27.4 110.9 27.9C110.6 28.5 110.1 29 109.5 29.3C108.7 29.8 107.9 29.9 107 29.8C106.4 29.8 105.9 29.6 105.4 29.4C104.7 29.1 104.1 28.6 103.7 27.8C103.3 27.1 103.2 26.3 103.1 25.6C103 24.7 103.1 23.8 103.1 23C103.1 22.7 103.1 22.8 102.9 22.8C102.1 22.8 101.2 22.8 100.4 22.8C99.8999 22.8 99.3999 22.7 98.8999 22.6C98.1999 22.4 97.5999 21.9 97.0999 21.3C96.5999 20.7 96.3999 20.1 96.2999 19.3C96.1999 18.8 96.1999 18.4 96.2999 17.9C96.3999 17.5 96.3999 17.1 96.5999 16.7C96.7999 16.2 97.0999 15.8 97.4999 15.5C97.8999 15.2 98.3999 15 98.8999 14.8C99.5999 14.6 100.4 14.5 101.1 14.5C101.6 14.5 102 14.5 102.5 14.5C102.6 14.5 102.6 14.5 102.7 14.6C102.8 15 102.9 15.3 103.1 15.7C103.1 15.8 103.1 15.8 103 15.8C102.3 15.8 101.7 15.8 101 15.8C100.5 15.8 99.9999 15.8 99.4999 16C98.8999 16.2 98.5 16.5 98.2 17C97.8 17.6 97.6 18.4 97.7 19.1C97.8 19.6 97.9 20.1 98.2 20.5C98.6 20.9 98.9999 21.2 99.5999 21.4C100.5 21.7 101.5 21.7 102.4 21.7C103.1 21.7 103.8 21.7 104.5 21.7C104.6 21.7 104.6 21.7 104.6 21.8C104.6 22.1 104.6 22.4 104.6 22.6C104.6 23.4 104.6 24.2 104.5 25C104.5 25.6 104.5 26.2 104.7 26.7C104.8 27.1 105 27.5 105.3 27.8C105.6 28.1 105.9 28.3 106.3 28.4C107 28.6 107.8 28.6 108.5 28.4C109 28.3 109.3 28 109.6 27.6C109.8 27.3 110 26.9 110.1 26.5C110.3 25.9 110.2 25.2 110.1 24.6C110 24.2 109.9 23.7 109.8 23.3C109.6 22.8 109.4 22.4 109.1 21.9C108.9 21.5 108.6 21.2 108.3 20.8C107.8 20.2 107.3 19.6 106.8 19C106.4 18.5 106.1 18.1 105.7 17.6C105.3 17.1 104.9 16.5 104.6 16C104.5 15.9 104.5 15.9 104.4 15.8Z" fill="white"/>
</g>
</svg>
