<svg width="102" height="124" viewBox="0 0 102 124" fill="none" xmlns="http://www.w3.org/2000/svg">
<g opacity="0.6">
<g opacity="0.6">
<path opacity="0.6" d="M50 16.9C50.2 16.9 50.3001 16.8 50.4001 16.7V16.6C50.3001 16.5 50.1 16.5 50 16.7C50 16.8 49.9 16.8 50 16.9C49.9 16.9 49.9 16.9 50 16.9Z" fill="white"/>
<path opacity="0.6" d="M88.5 118.9C88.4 117.4 88.4 117.5 88.5 114.8C88.5 79.1 88.5 43.9 88.5 8.59998C63.3 8.59998 38.4 8.59998 13.2 8.59998C13.2 44 13.2 79.3 13.2 114.9C13 118 13.1 117.8 13 119.3C10.8 119.3 2.29995 119.3 0.199951 119.3C0.199951 120.8 0.199951 122.1 0.199951 123.4C34.1 123.4 67.9 123.4 101.7 123.4C101.7 121.9 101.7 120.7 101.7 119.1C99.3 119 90.5 118.9 88.5 118.9ZM57.5 19.1C57.9 19.1 58.3 19.1 58.7 19.2C58.9 19.2 59 19.4 58.9 19.6C58.8 19.9 58.7 20.2 58.5 20.5C58.2 21.1 57.9 21.5 57.4 22C57.6 21 57.6 20.1 57.5 19.1ZM48.5 17.7C48.6 17.7 48.6 17.7 48.7 17.6C48.8 17.6 48.9 17.5 48.9 17.3C48.9 17 49.1 16.7 49.4 16.5C49.9 16.1 50.6 15.8 51.3 15.8C51.7 15.8 52.2 15.7 52.6 15.7C53 15.7 53.4 15.7 53.7 15.7C53.9 15.7 54.1 15.7 54.3 15.8C55.7 16 56.6 16.8 56.9 18.2C57.2 19.2 57.2 20.2 57.1 21.2C57 22.4 56.4 23.5 55.6 24.4C54.8 25.2 53.9 25.7 53 26.2C52.6 26.4 52.2 26.6 51.8 26.8C51.8 26.8 51.7 26.8 51.7 26.9C51.7 26.8 51.7 26.8 51.7 26.8C51.7 26.4 51.7 26.1 51.7 25.7C51.7 25.6 51.7 25.6 51.8 25.5C52.5 25.2 53.1 24.8 53.8 24.4C54.4 24 54.9 23.5 55.3 23C55.7 22.4 55.9 21.8 56 21C56 20.2 56 19.4 55.8 18.7C55.7 18.5 55.7 18.2 55.5 18C55.2 17.5 54.8 17.3 54.2 17.1C53.7 17 53.2 17 52.7 17C52.5 17 52.3 17 52.1 17.1C52 17.1 51.9 17.2 51.9 17.2C51.6 17.6 51.1 17.8 50.6 17.9C50.3 17.9 50 17.9 49.6 17.9C49.4 17.9 49.3 17.8 49.1 17.8C49 17.8 48.9 17.8 48.8 17.8C48.5 17.9 48.2 18 47.9 18.1C47.8 18.1 47.7 18.1 47.7 18.1C47.8 18.1 47.9 18.1 48 18C47.9 18 47.8 17.9 47.7 17.9C48 17.8 48.3 17.8 48.5 17.7ZM46.6 39.4C46.4 39.4 46.3 39.3 46.2 39.2C46.1 39.1 46 38.9 46.1 38.7C46.1 38.4 46.3 38.3 46.6 38.3C47 38.3 47.4 38.3 47.9 38.3C48.5 38.3 49.1 38.3 49.8 38.3C50.1 38.3 50.3 38.1 50.3 37.8C50.3 37.7 50.3 37.6 50.3 37.5C50.7 37.5 51 37.5 51.4 37.5V37.6C51.4 38 51.6 38.2 52 38.2C52.6 38.2 53.2 38.2 53.9 38.2C54.3 38.2 54.6 38.2 55 38.2C55.2 38.2 55.4 38.3 55.5 38.5C55.6 38.7 55.5 38.9 55.4 39.1C55.3 39.2 55.2 39.3 55 39.3C52.2 39.4 49.4 39.4 46.6 39.4ZM53.1 67.6C56.8 67.6 60.3 67.6 64.1 67.6C64.1 72 64.1 76.3 64.1 80.9C60.4 80.9 56.8 80.9 53.1 80.9C53.1 76.4 53.1 72.2 53.1 67.6ZM48.5 29.3C48.8 29.6 49.2 29.7 49.6 29.8C50.1 29.9 50.6 29.9 51.1 30C51.8 30.1 52.4 30.1 53.1 30.4C53.5 30.6 53.9 30.9 54.1 31.2C54.3 31.4 54.3 31.6 54.4 31.9C54.5 32.6 54.1 33.1 53.5 33.5C53 33.8 52.4 34 51.8 34.1H51.7V34C51.7 33.8 51.7 33.5 51.7 33.3C51.7 33.2 51.7 33.2 51.8 33.1C52.2 33 52.6 32.9 53 32.6C53.1 32.5 53.2 32.5 53.3 32.4C53.5 32.2 53.5 31.9 53.3 31.7C53.2 31.6 53 31.5 52.8 31.4C52.3 31.2 51.8 31.1 51.3 31.1C50.7 31.1 50 31.1 49.4 30.9C48.9 30.8 48.4 30.6 48 30.3C47.5 29.9 47.3 29.5 47.3 28.9C47.3 28.4 47.5 28 47.9 27.7C48.3 27.3 48.8 27 49.3 26.8C49.6 26.7 49.8 26.5 50.1 26.4C50.1 26.5 50.1 26.5 50.1 26.6C50.1 27 50.1 27.3 50.1 27.7C50.1 27.7 50.1 27.8 50 27.8C49.7 28 49.4 28.1 49.2 28.3C49 28.4 48.8 28.6 48.7 28.7C48.2 28.8 48.2 29.1 48.5 29.3ZM48.3 35.7C48.5 35.9 48.7 36 49 36.1C49.5 36.3 50.1 36.4 50.6 36.4C51.2 36.4 51.9 36.5 52.5 36.5C52.7 36.5 52.9 36.6 53 36.6C53.1 36.6 53.1 36.6 53.2 36.7L53.3 36.8L53.2 36.9C53 37 52.9 37 52.7 37C51.7 37.1 50.7 37.2 49.7 37.1C49 37 48.4 36.8 47.8 36.4C46.9 35.8 46.9 34.7 47.7 34C48.1 33.7 48.5 33.5 48.9 33.4C49.2 33.3 49.4 33.2 49.7 33.3C49.7 33.6 49.7 33.9 49.7 34.2C49.5 34.3 49.2 34.3 49 34.4C48.7 34.5 48.5 34.6 48.3 34.7C48.2 34.8 48.1 34.9 48 35C48.1 35.2 48.1 35.5 48.3 35.7ZM50.3 36.1C50.3 34.5 50.3 32.9 50.3 31.3C50.7 31.3 51 31.3 51.4 31.4C51.4 33 51.4 34.6 51.4 36.2C51 36.1 50.6 36.1 50.3 36.1ZM43 19.2C43.6 19.2 44.3 19.2 44.9 19.2C48.1 19.2 51.4 19.2 54.6 19.2C54.9 19.2 55.1 19.2 55.4 19.2C55.5 19.2 55.5 19.2 55.5 19.3C55.5 19.9 55.6 20.6 55.5 21.2C55.4 21.9 55 22.6 54.5 23.1C54.2 23.5 53.7 23.7 53.3 23.7C52.6 23.8 52 23.9 51.3 23.9C51.3 25.7 51.3 27.6 51.3 29.4C50.9 29.4 50.6 29.4 50.2 29.3C50.2 27.5 50.2 25.6 50.2 23.8C49.8 23.8 49.5 23.7 49.2 23.7C47.9 23.6 46.7 23.3 45.6 22.7C44.5 22.1 43.6 21.3 43 20.2C42.9 19.9 42.8 19.7 42.7 19.4C42.6 19.3 42.7 19.2 43 19.2ZM32.9 81.1C29.2 81.1 25.7 81.1 22 81.1C22 76.6 22 72.3 22 67.6C25.6 67.6 29.1 67.6 32.9 67.6C32.9 72 32.9 76.4 32.9 81.1ZM32.9 61.8C29.3 61.8 25.7 61.8 22 61.8C22 57.3 22 52.9 22 48.3C25.6 48.3 29.2 48.3 32.9 48.3C32.9 52.8 32.9 57.2 32.9 61.8ZM37.6 48.2C41.2 48.2 44.7 48.2 48.4 48.2C48.4 52.8 48.4 57.2 48.4 61.8C44.8 61.8 41.3 61.8 37.6 61.8C37.6 57.2 37.6 52.8 37.6 48.2ZM48.5 67.5C48.5 72 48.5 76.4 48.5 81C44.9 81 41.4 81 37.7 81C37.7 76.5 37.7 72.1 37.7 67.5C41.3 67.5 44.8 67.5 48.5 67.5ZM64.1 119.9H37.6V98.8C37.6 96.6 39.4 94.8 41.6 94.8H60.1C60.2 94.8 60.4 94.8 60.5 94.8H60.6C62.3 95 63.7 96.4 64 98.1V98.2C64 98.4 64 98.5 64 98.7V119.9H64.1ZM64.1 61.9C60.4 61.9 56.8 61.9 53.1 61.9C53.1 57.3 53.1 52.9 53.1 48.3C56.8 48.3 60.3 48.3 64.1 48.3C64.1 52.9 64.1 57.3 64.1 61.9ZM79.5 81.1C75.8 81.1 72.3 81.1 68.6 81.1C68.6 76.6 68.6 72.2 68.6 67.6C72.2 67.6 75.8 67.6 79.5 67.6C79.5 72 79.5 76.4 79.5 81.1ZM79.5 61.9C75.8 61.9 72.4 61.9 68.5 61.9C68.5 57.2 68.5 52.9 68.5 48.3C72.2 48.3 75.7 48.3 79.5 48.3C79.5 52.9 79.5 57.3 79.5 61.9Z" fill="white"/>
</g>
<path opacity="0.6" d="M94 0.599976H7.69995V5.89996H94V0.599976Z" fill="white"/>
</g>
</svg>
