<svg width="137" height="156" viewBox="0 0 137 156" fill="none" xmlns="http://www.w3.org/2000/svg">
<path d="M88.3 80.2C88.6 80.2 88.9 80.3 89.2 80.5C89.9 80.9 90.5 81.4 91.2 81.7C93.3 82.9 95.4 84.1 97.5 85.3C97.9 85.5 98.1 85.7 98.1 86.2C98.1 88.7 98.1 91.2 98.1 93.7C98.1 94 97.9 94.4 97.7 94.4C91.8 96.6 88.9 101.3 87.7 107.2C86.2 114.3 84.7 121.5 83.2 128.6C82.7 131.1 83.5 133 85.4 134.5C86.1 135 86.9 135.4 87.6 135.8C88.6 136.3 89.6 136.8 90.5 137.4C91.3 138 92.1 138.2 92.9 138.2C94.4 138.2 95.8 137.2 96.3 135.5C96.9 133.6 94.9 131.2 92.9 131.2C92.7 131.2 92.6 131.2 92.4 131.2C91.9 131.3 91.5 131.5 91.1 131.7C90.7 131.9 90.3 132 89.9 132C88.8 132 87.7 131.4 87.3 130.3C87.2 130 87.2 129.7 87.2 129.4C88.5 123.3 89.7 117.2 91 111.2C91.5 108.9 92.1 106.7 92.9 104.5C93.4 103.1 94.3 101.8 95.3 100.7C96.8 99 98.6 98.1 100.5 98.1C102.4 98.1 104.3 99 105.8 100.9C107.6 103 108.6 105.5 109.1 108.2C110.5 114.8 111.9 121.4 113.3 128C113.4 128.3 113.4 128.6 113.4 128.9C113.6 130.6 112.8 131.8 111.2 132.1C111.1 132.1 111.1 132.1 111 132.1C110.5 132.1 110 131.9 109.6 131.7C109 131.5 108.4 131.3 107.9 131.3C107 131.3 106.2 131.6 105.5 132.3C104.2 133.6 104 135.6 105.2 137C105.9 137.8 106.9 138.2 108 138.2C108.7 138.2 109.5 138 110.1 137.6C111.1 136.9 112.1 136.3 113.2 135.9C115.5 134.9 117.3 133.4 117.7 130.9C117.9 129.8 117.7 128.7 117.5 127.6C115.9 120.2 114.3 112.8 112.7 105.4C112.1 102.7 110.7 100.4 109 98.3C107.5 96.4 105.4 95.3 103.3 94.5C103.1 94.4 102.7 94.2 102.7 94.1C102.4 92.1 102.5 90.1 102.7 88.1C102.9 88.1 103 88.1 103.1 88.2C108.9 90.8 114.9 93.2 120.4 96.4C120.8 96.7 121.2 97 121.7 97.2C125.6 99.2 127.2 102.8 128.3 106.7C129.7 111.6 130.4 116.6 130.9 121.7C131.3 126.7 131.6 131.8 131.9 136.8C131.9 137 132 137.3 132 137.5C132 139.6 132 141.8 132 143.9C131.9 144.5 131.8 145.1 131.6 145.7C131.3 147.2 130.1 148.2 129.2 149.3C128.5 150.2 127.6 150.7 126.5 150.8C123.5 151 120.5 151.1 117.5 151.3C116.8 151.3 116.1 151.4 115.4 151.4C84.2 151.4 52.9 151.4 21.7 151.4C21 151.4 20.3 151.3 19.6 151.3C16.6 151.1 13.6 151 10.6 150.8C9.50002 150.7 8.6 150.1 7.8 149.3C5.7 147.3 5.00002 144.9 5.10002 142.2C5.30002 136.3 5.60001 130.3 6.00001 124.4C6.30001 119.5 6.90001 114.7 8.00001 110C8.60001 107.7 9.30002 105.4 10.1 103.2C11.1 100.7 12.8 98.6 15.2 97.4C19.5 95.2 23.8 93.1 28.2 90.9C29.9 90.1 31.6 89.4 33.3 88.6C33.6 88.5 33.9 88.4 34.3 88.2C34.3 89.9 34.3 91.5 34.3 93.1C34.3 101.9 34.3 110.7 34.3 119.6C34.3 120.1 34.1 120.4 33.6 120.6C30.7 121.6 28.6 123.6 27.6 126.6C25.7 132.1 29.9 138.5 36.2 138.5C36.3 138.5 36.5 138.5 36.6 138.5C41.3 138.3 44.5 134.9 45.2 131.4C46.1 127.3 44.2 123.2 40.3 121.4C38.8 120.7 38.3 119.8 38.3 118.2C38.4 107.8 38.4 97.4 38.3 86.9C38.3 86.3 38.5 86 39 85.7C41.4 84.3 43.9 82.9 46.3 81.5C46.8 81.2 47.2 80.9 47.7 80.7C48 80.6 48.2 80.5 48.4 80.5C48.8 80.5 49.1 80.7 49.3 81.3C50 82.7 50.7 84.1 51.3 85.5C54.8 92.9 58.4 100.4 61.9 107.8C62.1 108.3 62.4 108.7 62.8 109.1C63 108.3 63.1 107.5 63.3 106.7C63.7 104.5 64 102.3 64.4 100C64.5 99.5 64.4 99.1 64 98.8C62.8 97.5 61.8 96 61.5 94.3C61.4 93.3 61.3 92.3 61.5 91.4C61.9 89.3 63.2 87.7 65.4 87.5C66.4 87.4 67.5 87.3 68.5 87.3C69.4 87.3 70.3 87.4 71.2 87.5C74.1 87.9 75.6 90.4 75.3 93.5C75.1 95.6 74.1 97.4 72.7 98.9C72.4 99.3 72.2 99.6 72.3 100.1C72.8 103 73.3 105.9 73.8 108.8C73.8 108.9 73.9 109 73.9 109.3C74.2 108.7 74.5 108.3 74.7 107.9C78.4 100.1 82.1 92.4 85.8 84.6C86.3 83.6 86.8 82.5 87.3 81.5C87.6 80.5 87.9 80.2 88.3 80.2ZM88.3 75.6C87 75.6 84.7 76 83.2 79C82.7 79.9 82.2 81 81.6 82.2C80.7 84.1 79.8 86 78.9 87.9C77.6 85.1 75 83.1 71.8 82.6C70.8 82.5 69.7 82.4 68.5 82.4C67.4 82.4 66.2 82.5 65 82.6C61.7 82.9 59 84.9 57.7 87.9C57 86.3 56.2 84.8 55.5 83.2C54.9 82 54.2 80.5 53.4 78.9C51.9 75.9 49.4 75.6 48.3 75.6C47.4 75.6 46.5 75.8 45.6 76.3C45.1 76.6 44.6 76.8 44.3 77.1C44.2 77.2 44.1 77.2 43.9 77.3C43.3 77.7 42.6 78 42 78.4C40.3 79.4 38.5 80.5 36.7 81.5C36.1 81.9 35.6 82.3 35.1 82.7L32.3 83.8C32.1 83.9 32 83.9 31.9 84C31.6 84.1 31.3 84.2 31.1 84.3C30.6 84.5 30.1 84.7 29.6 84.9C28.4 85.4 27.1 86 25.9 86.6L25.3 86.9C21.2 88.9 17 91 12.8 93.1C9.4 94.9 6.90001 97.7 5.50001 101.4C4.50001 104.1 3.70002 106.5 3.20002 108.7C2.10002 113.2 1.40002 118.2 1.10002 123.9C0.700018 129.8 0.500025 135.7 0.200025 141.8C2.46167e-05 146.2 1.40001 149.8 4.40001 152.5C5.30001 153.3 7.10002 155 10.1 155.2C12.2 155.3 14.3 155.4 16.3 155.5C17.2 155.5 18.1 155.6 19.1 155.6C19.6 155.6 20 155.7 20.5 155.7H21.2H21.3H21.4H115.1H115.2H115.3H116C116.5 155.7 116.9 155.6 117.4 155.6C118.3 155.6 119.2 155.5 120.1 155.5C122.2 155.4 124.3 155.3 126.4 155.2C128.7 155.1 130.8 154 132.4 152.1C132.6 151.9 132.7 151.7 132.9 151.6C133.9 150.5 135.2 149 135.8 146.6C135.9 146.1 136 145.6 136.1 145.2C136.1 145 136.2 144.9 136.2 144.7L136.3 144.3V143.8V137.4V137L136.2 136.6C136.2 136.5 136.2 136.4 136.1 136.2V136.1C136 134.6 135.9 133 135.8 131.5C135.6 128.1 135.4 124.6 135.1 121.1C134.6 115.1 133.7 110 132.4 105.3C131.2 101.1 129.1 95.9 123.5 93C123.4 93 123.3 92.9 123.1 92.8C122.8 92.6 122.6 92.5 122.3 92.3C117.5 89.5 112.5 87.4 107.6 85.2C106.6 84.8 105.6 84.3 104.6 83.9C103.9 83.6 103.2 83.5 103 83.5L101.8 83.3C101.4 82.6 100.7 81.9 99.7 81.4C97.5 80.1 95.3 78.9 93.4 77.8C93.2 77.7 92.9 77.5 92.7 77.4C92.3 77.1 91.8 76.8 91.3 76.5C90.8 76.1 89.7 75.6 88.3 75.6ZM36 133.7C34 133.7 32.9 132.4 32.4 131.8C31.5 130.6 31.3 129.1 31.7 127.9C32.3 126.3 33.2 125.4 34.9 124.8C35.4 124.6 35.8 124.4 36.2 124.2C36.8 124.6 37.4 125 38.1 125.4C40 126.3 40.9 128.2 40.4 130.2C40.1 131.4 38.9 133.6 36.1 133.7C36.1 133.7 36 133.7 36 133.7Z" fill="white"/>
<path d="M66.4 77.4C61.9 76.8 58.3 74.6 55 71.6C51.1 67.9 48.4 63.3 46.4 58.3C45.9 57 45.3 55.8 44.3 54.8C41.9 52.5 40.4 49.7 39.7 46.5C39 43.8 38.5 41 39.7 38.3C39.8 38.1 39.8 37.9 39.8 37.6C39.9 35.1 40 32.6 40.1 30.1C40.2 25.9 40.5 21.6 42.2 17.7C44.3 12.7 47 4.89999 55 3.99999C59.1 -0.200006 68.3 -0.200006 72.1 0.599994C77.9 1.69999 82.4 3.39999 86.8 7.29999C92.4 12.3 95.4 19.2 96.2 26.7C96.5 29.5 96.4 32.4 96.5 35.2C96.6 36.7 96.5 38.1 97.2 39.5C97.4 39.9 97.5 40.4 97.5 40.9C97.6 42.7 97.4 44.5 96.9 46.2C96.1 49.2 95 52.1 92.7 54.2C91.5 55.4 90.7 56.7 90.1 58.2C88 63.8 84.8 68.7 80.2 72.6C76.7 75.5 72.8 77.4 68 77.5C67.7 77.5 67 77.5 66.4 77.4ZM88.6 28.5C85.6 20.3 72.3 18.7 64.3 19.4C59.9 19.8 55.7 17.7 55.3 17.7C52.4 18.1 47.3 30.1 47.1 33.8C46.6 41.4 47.4 48.8 50 56C51.5 60.4 53.9 64.5 57.1 67.9C59.9 70.8 63.3 72.8 67.3 73.5C69.9 73.9 72.3 73 74.5 71.7C79.1 69.2 82.2 65.3 84.5 60.8C87 55.9 88.5 50.7 89.1 45.3C89.3 43.2 89.5 41.1 89.6 39.9C89.6 35.4 89.6 31.9 88.6 28.5Z" fill="white"/>
<path d="M68.3 32.5C70.7301 32.5 72.7 30.53 72.7 28.1C72.7 25.6699 70.7301 23.7 68.3 23.7C65.87 23.7 63.9 25.6699 63.9 28.1C63.9 30.53 65.87 32.5 68.3 32.5Z" fill="white"/>
<path d="M60.4 25.2H43.9V32H60C59.8 31.2 59.8 30.3 59.8 29.4C59.7 28 60 26.5 60.4 25.2Z" fill="white"/>
<path d="M92.5001 25.2H76.3C76.7 26.5 77.0001 27.9 77.0001 29.5C77.0001 30.4 76.9 31.2 76.8 32.1H92.6001V25.2H92.5001Z" fill="white"/>
<path d="M68.2001 36.1C72.0108 36.1 75.1001 33.0108 75.1001 29.2C75.1001 25.3892 72.0108 22.3 68.2001 22.3C64.3893 22.3 61.3 25.3892 61.3 29.2C61.3 33.0108 64.3893 36.1 68.2001 36.1Z" fill="white"/>
</svg>
