<svg width="113" height="119" viewBox="0 0 113 119" fill="none" xmlns="http://www.w3.org/2000/svg">
<path d="M55.9001 73.4H38.9001V115.7H55.9001V73.4Z" fill="white"/>
<path d="M74.4001 73.4H57.3V115.7H74.4001V73.4Z" fill="white"/>
<path d="M112.2 10.5H77V16.4H112.2V10.5Z" fill="white"/>
<path d="M37.6 10.5H0.800049V16.4H37.6V10.5Z" fill="white"/>
<path d="M70.3 0.600006H44.3C42.7 0.600006 41.3 1.90001 41.3 3.60001V26.4C41.3 28 42.6 29.4 44.3 29.4H70.3C71.9 29.4 73.3 28.1 73.3 26.4V3.60001C73.3 2.00001 72 0.600006 70.3 0.600006ZM55.1 12.7C54.9 12.3 54.7001 11.9 54.5001 11.5C54.2001 10.7 53.9001 9.90001 53.9001 9.00001C53.9001 8.50001 53.9 7.90001 54.1 7.40001C54.3 6.90001 54.5 6.40001 54.8 5.90001C55.2 5.30001 55.8001 4.90001 56.5001 4.70001C57.1001 4.50001 57.8001 4.40001 58.5001 4.40001C59.3001 4.40001 60.1 4.60001 60.8 5.10001C61.2 5.40001 61.5 5.70001 61.8 6.10001C62 6.40001 62.1001 6.70001 62.2001 7.00001C62.5001 8.00001 62.5001 9.00001 62.5001 10.1C62.5001 11.1 62.4 12.1 62.3 13.1C62.3 13.7 62.2 14.3 62.3 14.9C62.3 15.5 62.4 16.2 62.6 16.8C62.8 17.3 63.0001 17.7 63.4001 18C63.6001 18.1 63.8001 18.2 64.0001 18.3C64.5001 18.5 65.1001 18.6 65.7001 18.5C66.1001 18.4 66.5 18.3 66.8 18.1C67.3 17.7 67.7001 17.2 67.9001 16.6C68.1001 16 68.1001 15.4 68.0001 14.7C67.8001 14 67.5001 13.5 66.9001 13.1C66.6001 12.9 66.3001 12.8 66.0001 12.8C65.3001 12.7 64.7001 12.7 64.0001 12.7C63.8001 12.7 63.7001 12.7 63.5001 12.7C63.4001 12.7 63.4001 12.7 63.4001 12.6C63.4001 12.3 63.5001 11.9 63.5001 11.6C63.5001 11.5 63.6001 11.5 63.7001 11.5C64.0001 11.4 64.3 11.4 64.6 11.3C65.1 11.3 65.7001 11.3 66.2001 11.5C66.8001 11.7 67.4 11.9 67.8 12.2C68.2 12.5 68.6001 12.9 68.9001 13.4C69.3001 14 69.4001 14.7 69.4001 15.5C69.4001 16.2 69.2001 16.9 68.9001 17.5C68.7001 17.9 68.4 18.3 68.1 18.6C67.6 19.1 67.0001 19.5 66.4001 19.7C65.7001 19.9 65.1001 19.9 64.4001 19.7C63.9001 19.6 63.4001 19.3 63.0001 19.1C62.5001 18.8 62.1 18.4 61.8 17.8C61.6 17.4 61.4 17 61.3 16.5C61 15.4 61 14.3 61.1 13.2C61.1 12.5 61.2001 11.8 61.2001 11.2C61.3001 10.3 61.3001 9.40001 61.2001 8.60001C61.2001 8.10001 61.1001 7.60001 60.9001 7.20001C60.7001 6.60001 60.3001 6.20001 59.7001 6.00001C59.6001 5.90001 59.6001 6.00001 59.5001 5.90001C59.0001 5.70001 58.5001 5.7 57.9001 5.8C57.3001 5.9 56.7001 6.10001 56.2001 6.60001C55.7001 7.10001 55.4001 7.70001 55.4001 8.40001C55.4001 9.20001 55.5 9.90001 55.8 10.6C56 11.1 56.2001 11.5 56.4001 11.9C56.7001 12.4 56.9001 12.8 57.2001 13.2C57.6001 13.7 57.9 14.2 58.3 14.7C58.6 15.1 59 15.5 59.3 15.9C59.5 16.2 59.8001 16.5 60.0001 16.8C60.4001 17.4 60.8001 17.9 61.2001 18.6C61.4001 18.9 61.5 19.2 61.6 19.5C61.7 19.8 61.8001 20.1 61.9001 20.4C62.1001 21.3 62.2 22.2 62.1 23.1C62 23.7 61.9 24.3 61.6 24.8C61.3 25.4 60.8001 25.9 60.2001 26.2C59.4001 26.7 58.6001 26.8 57.7001 26.7C57.1001 26.7 56.6 26.5 56.1 26.3C55.4 26 54.8001 25.5 54.4001 24.7C54.0001 24 53.9 23.2 53.8 22.5C53.7 21.6 53.8 20.7 53.8 19.9C53.8 19.6 53.8 19.7 53.6 19.7C52.8 19.7 51.9 19.7 51.1 19.7C50.6 19.7 50.1 19.6 49.6 19.5C48.9 19.3 48.3 18.8 47.8 18.2C47.3 17.6 47.1001 17 47.0001 16.2C46.9001 15.7 46.9001 15.3 47.0001 14.8C47.1001 14.4 47.1 14 47.3 13.6C47.5 13.1 47.8001 12.7 48.2001 12.4C48.6001 12.1 49.1 11.9 49.6 11.7C50.3 11.5 51.1 11.4 51.8 11.4C52.3 11.4 52.7001 11.4 53.2001 11.4C53.3001 11.4 53.3001 11.4 53.4001 11.5C53.5001 11.9 53.6 12.2 53.8 12.6C53.8 12.7 53.8001 12.7 53.7001 12.7C53.0001 12.7 52.4001 12.7 51.7001 12.7C51.2001 12.7 50.7001 12.7 50.2001 12.9C49.6001 13.1 49.2001 13.4 48.9001 13.9C48.5001 14.5 48.3001 15.3 48.4001 16C48.5001 16.5 48.6001 17 48.9001 17.4C49.3001 17.8 49.7 18.1 50.3 18.3C51.2 18.6 52.2 18.6 53.1 18.6C53.8 18.6 54.5001 18.6 55.2001 18.6C55.3001 18.6 55.3 18.6 55.3 18.7C55.3 19 55.3 19.3 55.3 19.5C55.3 20.3 55.3001 21.1 55.2001 21.9C55.2001 22.5 55.2001 23.1 55.4001 23.6C55.5001 24 55.7001 24.4 56.0001 24.7C56.3001 25 56.6001 25.2 57.0001 25.3C57.7001 25.5 58.5001 25.5 59.2001 25.3C59.7001 25.2 60 24.9 60.3 24.5C60.5 24.2 60.7 23.8 60.8 23.4C61 22.8 60.9 22.1 60.8 21.5C60.7 21.1 60.6001 20.6 60.5001 20.2C60.3001 19.7 60.1 19.3 59.8 18.8C59.6 18.4 59.3001 18.1 59.0001 17.7C58.5001 17.1 58.0001 16.5 57.5001 15.9C57.1001 15.4 56.8001 15 56.4001 14.5C56.0001 14 55.6 13.4 55.3 12.9C55.2 12.8 55.1 12.7 55.1 12.7Z" fill="white"/>
<path d="M77.0001 19.8V29.3C77.0001 31.2 75.4001 32.8 73.5001 32.8H41.0001C39.1001 32.8 37.5001 31.2 37.5001 29.3V19.8H6.40015V119H108V19.8H77.0001ZM104.1 115H78.4001V76.6C78.4001 72.6 75.2001 69.4 71.2001 69.4H60.0001H56.0001H42.1001C38.1001 69.4 34.9001 72.6 34.9001 76.6V115H10.5001V23.8H33.6001V29.3C33.6001 33.4 37.0001 36.8 41.1001 36.8H73.6001C77.7001 36.8 81.1001 33.4 81.1001 29.3V23.8H104.2V115H104.1Z" fill="white"/>
<path d="M85.3 45.9H30.3V49.9H85.3V45.9Z" fill="white"/>
<path d="M85.3 56.2H30.3V60.2H85.3V56.2Z" fill="white"/>
</svg>
