<svg width="138" height="156" viewBox="0 0 138 156" fill="none" xmlns="http://www.w3.org/2000/svg">
<path d="M89.1 80.4C89.4 80.4 89.7 80.5 90 80.7C90.7 81.1 91.3 81.6 92 81.9C94.1 83.1 96.2 84.3 98.3 85.5C98.7 85.7 98.9 85.9 98.9 86.4C98.9 88.9 98.9 91.4 98.9 93.9C98.9 94.2 98.7 94.6 98.5 94.6C92.6 96.8 89.7 101.5 88.5 107.4C87 114.5 85.5 121.7 84 128.8C83.5 131.3 84.3 133.2 86.2 134.7C86.9 135.2 87.7 135.6 88.4 136C89.4 136.5 90.4 137 91.3 137.6C92.1 138.2 92.9 138.4 93.7 138.4C95.2 138.4 96.6 137.4 97.1 135.7C97.7 133.8 95.7 131.4 93.7 131.4C93.5 131.4 93.4 131.4 93.2 131.4C92.7 131.5 92.3 131.7 91.9 131.9C91.5 132.1 91.1 132.2 90.7 132.2C89.6 132.2 88.5 131.6 88.1 130.5C88 130.2 88 129.9 88 129.6C89.3 123.5 90.5 117.4 91.8 111.4C92.3 109.1 92.9 106.9 93.7 104.7C94.2 103.3 95.1 102 96.1 100.9C97.6 99.2 99.4 98.3 101.3 98.3C103.2 98.3 105.1 99.2 106.6 101.1C108.4 103.2 109.4 105.7 109.9 108.4C111.3 115 112.7 121.6 114.1 128.2C114.2 128.5 114.2 128.8 114.2 129.1C114.4 130.8 113.6 132 112 132.3C111.9 132.3 111.9 132.3 111.8 132.3C111.3 132.3 110.8 132.1 110.4 131.9C109.8 131.7 109.2 131.5 108.7 131.5C107.8 131.5 107 131.8 106.3 132.5C105 133.8 104.8 135.8 106 137.2C106.7 138 107.7 138.4 108.8 138.4C109.5 138.4 110.3 138.2 110.9 137.8C111.9 137.1 112.9 136.5 114 136.1C116.3 135.1 118.1 133.6 118.5 131.1C118.7 130 118.5 128.9 118.3 127.8C116.7 120.4 115.1 113 113.5 105.6C112.9 102.9 111.5 100.6 109.8 98.5C108.3 96.6 106.2 95.5 104.1 94.7C103.9 94.6 103.5 94.4 103.5 94.3C103.2 92.3 103.3 90.3 103.5 88.3C103.7 88.3 103.8 88.3 103.9 88.4C109.7 91 115.7 93.4 121.2 96.6C121.6 96.9 122 97.2 122.5 97.4C126.4 99.4 128 103 129.1 106.9C130.5 111.8 131.2 116.8 131.7 121.9C132.1 126.9 132.4 132 132.7 137C132.7 137.2 132.8 137.5 132.8 137.7C132.8 139.8 132.8 142 132.8 144.1C132.7 144.7 132.6 145.3 132.4 145.9C132.1 147.4 130.9 148.4 130 149.5C129.3 150.4 128.4 150.9 127.3 151C124.3 151.2 121.3 151.3 118.3 151.5C117.6 151.5 116.9 151.6 116.2 151.6C85 151.6 53.7 151.6 22.5 151.6C21.8 151.6 21.1 151.5 20.4 151.5C17.4 151.3 14.4 151.2 11.4 151C10.3 150.9 9.39995 150.3 8.59995 149.5C6.49995 147.5 5.79995 145.1 5.89995 142.4C6.09995 136.5 6.39995 130.5 6.79995 124.6C7.09995 119.7 7.69995 114.9 8.79995 110.2C9.39995 107.9 10.1 105.6 10.9 103.4C11.9 100.9 13.6 98.8 16 97.6C20.3 95.4 24.6 93.3 29 91.1C30.7 90.3 32.3999 89.6 34.0999 88.8C34.3999 88.7 34.6999 88.6 35.0999 88.4C35.0999 90.1 35.0999 91.7 35.0999 93.3C35.0999 102.1 35.0999 110.9 35.0999 119.8C35.0999 120.3 34.9 120.6 34.4 120.8C31.5 121.8 29.4 123.8 28.4 126.8C26.5 132.3 30.7 138.7 37 138.7C37.1 138.7 37.3 138.7 37.4 138.7C42.1 138.5 45.3 135.1 46 131.6C46.9 127.5 44.9999 123.4 41.0999 121.6C39.5999 120.9 39.0999 120 39.0999 118.4C39.1999 108 39.1999 97.6 39.0999 87.1C39.0999 86.5 39.2999 86.2 39.7999 85.9C42.1999 84.5 44.6999 83.1 47.0999 81.7C47.5999 81.4 48 81.1 48.5 80.9C48.8 80.8 49 80.7 49.2 80.7C49.6 80.7 49.8999 80.9 50.0999 81.5C50.7999 82.9 51.4999 84.3 52.0999 85.7C55.5999 93.1 59.2 100.6 62.7 108C62.9 108.5 63.1999 108.9 63.5999 109.3C63.7999 108.5 63.8999 107.7 64.0999 106.9C64.4999 104.7 64.8 102.5 65.2 100.2C65.3 99.7 65.1999 99.3 64.7999 99C63.5999 97.7 62.5999 96.2 62.2999 94.5C62.1999 93.5 62.0999 92.5 62.2999 91.6C62.6999 89.5 64 87.9 66.2 87.7C67.2 87.6 68.3 87.5 69.3 87.5C70.2 87.5 71.1 87.6 72 87.7C74.9 88.1 76.4 90.6 76.1 93.7C75.9 95.8 74.9 97.6 73.5 99.1C73.2 99.5 73 99.8 73.1 100.3C73.6 103.2 74.1 106.1 74.6 109C74.6 109.1 74.7 109.2 74.7 109.5C75 108.9 75.3 108.5 75.5 108.1C79.2 100.3 82.9 92.6 86.6 84.8C87.1 83.8 87.6 82.7 88.1 81.7C88.4 80.7 88.7 80.4 89.1 80.4ZM89.1 75.8C87.8 75.8 85.5 76.2 84 79.2C83.5 80.1 83 81.2 82.4 82.4C81.5 84.3 80.6 86.2 79.7 88.1C78.4 85.3 75.8 83.3 72.6 82.8C71.6 82.7 70.5 82.6 69.3 82.6C68.2 82.6 67 82.7 65.8 82.8C62.5 83.1 59.8 85.1 58.5 88.1C57.8 86.5 56.9999 85 56.2999 83.4C55.6999 82.2 55 80.7 54.2 79.1C52.7 76.1 50.1999 75.8 49.0999 75.8C48.1999 75.8 47.3 76 46.4 76.5C45.9 76.8 45.3999 77 45.0999 77.3C44.9999 77.4 44.9 77.4 44.7 77.5C44.1 77.9 43.3999 78.2 42.7999 78.6C41.0999 79.6 39.3 80.7 37.5 81.7C36.9 82.1 36.4 82.5 35.9 82.9L33.0999 84C32.8999 84.1 32.8 84.1 32.7 84.2C32.4 84.3 32.1 84.4 31.9 84.5C31.4 84.7 30.9 84.9 30.4 85.1C29.1999 85.6 27.9 86.2 26.7 86.8L26.1 87C22 89 17.8 91.1 13.6 93.2C10.2 95 7.69995 97.8 6.29995 101.5C5.29995 104.2 4.49995 106.6 3.99995 108.8C2.89995 113.3 2.19995 118.3 1.89995 124C1.49995 130.1 1.29995 136 0.999951 142C0.799951 146.4 2.19995 150 5.19995 152.7C6.09995 153.5 7.89995 155.2 10.9 155.4C13 155.5 15.1 155.6 17.1 155.7C18 155.7 18.9 155.8 19.9 155.8C20.4 155.8 20.7999 155.9 21.2999 155.9H22H22.1H22.2H115.9H116H116.1H116.8C117.3 155.9 117.7 155.8 118.2 155.8C119.1 155.8 120 155.7 120.9 155.7C123 155.6 125.1 155.5 127.2 155.4C129.5 155.3 131.6 154.2 133.2 152.3C133.4 152.1 133.5 151.9 133.7 151.8C134.7 150.7 136 149.2 136.6 146.8C136.7 146.3 136.8 145.8 136.9 145.4C136.9 145.2 137 145.1 137 144.9L137.1 144.5V144V137.6V137.2L137 136.8C137 136.7 137 136.6 136.9 136.4V136.3C136.8 134.8 136.7 133.2 136.6 131.7C136.4 128.3 136.2 124.8 135.9 121.3C135.4 115.3 134.5 110.2 133.2 105.5C132 101.3 129.9 96.1 124.3 93.2C124.2 93.2 124.1 93.1 123.9 93C123.6 92.8 123.4 92.7 123.1 92.5C118.3 89.7 113.3 87.6 108.4 85.4C107.4 85 106.4 84.5 105.4 84.1C104.7 83.8 104 83.7 103.8 83.7L102.6 83.5C102.2 82.8 101.5 82.1 100.5 81.6C98.3 80.3 96.1 79.1 94.2 78C94 77.9 93.7 77.7 93.5 77.6C93.1 77.3 92.6 77 92.1 76.7C91.5 76.3 90.5 75.8 89.1 75.8ZM36.7 133.9C34.7 133.9 33.5999 132.6 33.0999 132C32.1999 130.8 32 129.3 32.4 128.1C33 126.5 33.8999 125.6 35.5999 125C36.0999 124.8 36.5 124.6 36.9 124.4C37.5 124.8 38.0999 125.2 38.7999 125.6C40.6999 126.5 41.5999 128.4 41.0999 130.4C40.7999 131.6 39.5999 133.8 36.7999 133.9C36.7999 133.9 36.8 133.9 36.7 133.9Z" fill="white"/>
<path d="M69.2 77.7C64.4 77.6 60.5 75.7 57 72.8C52.4 68.9 49.2 64 47.1 58.4C46.5 56.9 45.7 55.5 44.5 54.4C42.2 52.2 41.1 49.4 40.3 46.4C39.8 44.7 39.5 42.9 39.7 41.1C39.7 40.6 39.8 40.1 40 39.7C40.8 38.3 40.7 36.9 40.7 35.4C40.8 32.6 40.7 29.7 41 26.9C41.8 19.4 45.2 13.2 50.8 8.19999C55.2 4.29999 60.3 1.59999 66.1 0.499994C70 -0.200006 73.9 -0.200006 77.6 1.29999C80.4 2.39999 82.4 4.29999 83.5 7.19999C83.6 7.49999 84 7.89999 84.3 7.89999C90.1 8.89999 93 13 95.2 17.9C96.9 21.9 97.2 26.1 97.3 30.3C97.4 32.8 97.5 35.3 97.6 37.8C97.6 38 97.6 38.3 97.7 38.5C98.9 41.2 98.3 44 97.7 46.7C96.9 49.9 95.5 52.7 93.1 55C92.1 55.9 91.5 57.2 91 58.5C89.1 63.5 86.4 68.1 82.4 71.8C79.2 74.8 75.5 77 71 77.6C70.4 77.7 69.7 77.7 69.2 77.7ZM47.7 40C47.8 41.2 47.9 43.3 48.2 45.4C48.8 50.8 50.3 56 52.8 60.9C55.2 65.4 58.3 69.3 62.8 71.8C65 73 67.4 74 70 73.6C74.1 73 77.4 71 80.2 68C83.5 64.6 85.8 60.5 87.3 56.1C89.8 48.9 90.6 41.5 90.2 33.9C90 30.2 89 26.7 86.8 23.7C85.2 21.5 83.2 19.6 80.4 19.2C78.5 18.9 76.5 19.1 74.6 19.5C71.6 20.2 68.6 20.3 65.5 19.9C63.8 19.7 62.1 19.2 60.3 19C57 18.7 54.2 19.7 52 22.3C50.4 24.1 49.3 26.2 48.6 28.5C47.8 32.1 47.8 35.6 47.7 40Z" fill="white"/>
</svg>
