<svg width="117" height="140" viewBox="0 0 117 140" fill="none" xmlns="http://www.w3.org/2000/svg">
<g opacity="0.6">
<path opacity="0.6" d="M3.09998 54.8V59H14.4H39.2H50.5V54.8H3.09998Z" fill="white"/>
<path opacity="0.6" d="M53.1 0.700012V6.20001H67.2H98.1H112.2V0.700012H53.1Z" fill="white"/>
<path opacity="0.6" d="M110.2 136V8.70001H55.2V136H50.6V62.1H5.59998V136H0V139.2H5.5H16.2H39.8H50.5H55.1H68.8H96.5H110.2H117V136H110.2ZM37.2 83.4H43.1V89.2H37.2V83.4ZM37.2 91H43.1V96.8H37.2V91ZM29 83.4H34.8V89.2H29V83.4ZM29 91H34.8V96.8H29V91ZM21 83.4H26.8V89.2H21V83.4ZM21 91H26.8V96.8H21V91ZM12.8 83.4H18.6V89.2H12.8V83.4ZM12.8 91H18.6V96.8H12.8V91ZM37.2 110.9H43.1V116.7H37.2V110.9ZM37.2 118.5H43.1V124.3H37.2V118.5ZM29 110.9H34.8V116.7H29V110.9ZM29 118.5H34.8V124.3H29V118.5ZM21 110.9H26.8V116.7H21V110.9ZM21 118.5H26.8V124.3H21V118.5ZM12.8 110.9H18.6V116.7H12.8V110.9ZM12.8 118.5H18.6V124.3H12.8V118.5ZM12.5 99.8H43.6V101.6H12.5V99.8ZM12.5 103.9H43.6V107.9H12.5V103.9ZM97.1 51.6H105.4V59.9H97.1V51.6ZM97.1 62.8H105.4V71.1H97.1V62.8ZM97.1 74H105.4V82.3H97.1V74ZM97.1 85.2H105.4V93.5H97.1V85.2ZM90.1 21C90.5 21.4 90.9 21.8 91.2 22.2C92.1 23.3 92.9 24.4 93.3 25.8C93.6 26.7 93.6 27.6 93.1 28.4C93.1 28.4 93.1 28.5 93 28.5C93 28.5 93 28.5 93 28.6C93.1 28.5 93.2 28.3 93.3 28.2C93.3 28.2 93.4 28.2 93.4 28.3C93.3 28.4 93.3 28.5 93.2 28.7C93.3 28.7 93.4 28.6 93.5 28.6C93.4 28.7 93.3 28.7 93.2 28.8C92.9 28.9 92.8 29.1 92.8 29.4C92.9 30.2 93.2 30.8 93.7 31.4C93.9 31.7 94.1 31.9 94.3 32.2C94.5 32.6 94.5 32.7 94.1 32.9C94 33 93.9 33 93.7 33.1C93.5 33.2 93.5 33.4 93.6 33.6C93.8 33.8 93.7 34 93.6 34.2C93.4 34.4 93.4 34.6 93.5 34.9C93.6 35.1 93.5 35.4 93.3 35.5C92.9 35.6 92.8 36 92.9 36.4C93.1 37.3 92.9 37.6 92 37.9C91.2 38.1 90.5 38 89.7 37.8C88.4 37.4 87 37.1 85.7 36.8C85.4 36.7 85 36.7 84.7 36.7C83.7 36.6 83.4 37.2 83.3 37.9C83.2 38.8 83.4 39.6 83.7 40.4C84.3 42 85.1 43.5 86.2 44.8L86.3 44.9C85 43.6 83.6 42.4 82.8 40.7C82 39 82 37.3 82.8 35.6C83.4 34.3 84.3 33.1 85.3 32.1C85.5 31.9 85.6 31.7 85.8 31.6L87.7 29.8C87.8 29.7 88 29.5 88.1 29.4C90.2 27 91.1 24.3 90.1 21ZM85.5 82.3V74H93.8V82.3H85.5ZM93.8 85.2V93.5H85.5V85.2H93.8ZM85.5 71.1V62.8H93.8V71.1H85.5ZM85.5 59.9V51.6H93.8V59.9H85.5ZM72.5 82.3V74H80.8V82.3H72.5ZM80.8 85.2V93.5H72.5V85.2H80.8ZM72.5 71.1V62.8H80.8V71.1H72.5ZM72.5 59.9V51.6H80.8V59.9H72.5ZM60.8 51.6H69.1V59.9H60.8V51.6ZM60.8 62.8H69.1V71.1H60.8V62.8ZM60.8 74H69.1V82.3H60.8V74ZM60.8 85.2H69.1V93.5H60.8V85.2ZM68.8 136V106.1C68.8 103.7 70.7 101.8 73.1 101.8H92.1C94.5 101.8 96.4 103.7 96.4 106.1V136H68.8ZM79.1 21.6C78.9 21.3 78.8 21 78.7 20.7C78.5 20.1 78.3 19.5 78.3 18.9C78.3 18.5 78.3 18.1 78.4 17.8C78.5 17.4 78.7 17 78.9 16.7C79.2 16.3 79.6 16 80.1 15.8C80.6 15.6 81 15.6 81.5 15.6C82.1 15.6 82.6 15.8 83.1 16.1C83.4 16.3 83.6 16.5 83.8 16.8C83.9 17 84 17.2 84.1 17.5C84.3 18.2 84.3 19 84.3 19.7C84.3 20.4 84.2 21.2 84.2 21.9C84.2 22.3 84.2 22.8 84.2 23.2C84.2 23.7 84.3 24.1 84.4 24.6C84.5 24.9 84.7 25.2 85 25.5C85.1 25.6 85.3 25.7 85.4 25.7C85.8 25.8 86.2 25.9 86.6 25.9C86.9 25.9 87.2 25.8 87.4 25.6C87.8 25.3 88.1 25 88.2 24.5C88.4 24.1 88.4 23.6 88.2 23.1C88.1 22.6 87.8 22.2 87.4 22C87.2 21.9 87 21.8 86.7 21.8C86.2 21.7 85.7 21.7 85.3 21.7C85.2 21.7 85.1 21.7 85 21.7C85 21.7 84.9 21.7 84.9 21.6C84.9 21.4 85 21.1 85 20.9C85 20.8 85.1 20.8 85.1 20.8C85.3 20.7 85.5 20.7 85.8 20.7C86.2 20.7 86.6 20.7 87 20.8C87.4 20.9 87.8 21.1 88.2 21.3C88.5 21.5 88.8 21.8 89 22.2C89.3 22.7 89.4 23.2 89.4 23.7C89.4 24.2 89.2 24.7 89 25.2C88.8 25.5 88.6 25.8 88.4 26C88 26.4 87.6 26.6 87.1 26.8C86.6 26.9 86.1 26.9 85.6 26.8C85.2 26.7 84.9 26.5 84.6 26.3C84.2 26.1 84 25.8 83.7 25.4C83.5 25.1 83.4 24.8 83.3 24.5C83.1 23.7 83.1 22.9 83.1 22.1C83.1 21.6 83.1 21.1 83.2 20.6C83.2 20 83.3 19.3 83.2 18.7C83.2 18.3 83.1 18 83 17.7C82.8 17.3 82.5 17 82.1 16.8C82.1 16.8 82 16.8 82 16.7C81.6 16.6 81.2 16.6 80.9 16.6C80.4 16.7 80 16.8 79.6 17.2C79.2 17.6 79 18 79 18.6C79 19.2 79.1 19.7 79.3 20.2C79.4 20.5 79.6 20.9 79.8 21.2C80 21.5 80.2 21.9 80.4 22.2C80.7 22.6 80.9 22.9 81.2 23.3C81.4 23.6 81.7 23.9 82 24.2C82.2 24.4 82.4 24.6 82.5 24.8C82.8 25.2 83.1 25.6 83.3 26.1C83.4 26.3 83.5 26.5 83.6 26.8C83.7 27 83.8 27.2 83.8 27.5C84 28.1 84 28.8 84 29.5C83.9 29.9 83.8 30.3 83.6 30.7C83.4 31.1 83 31.5 82.6 31.7C82 32 81.4 32.1 80.8 32.1C80.4 32.1 80 32 79.6 31.8C79.1 31.6 78.7 31.2 78.4 30.7C78.1 30.2 78 29.6 78 29.1C77.9 28.5 78 27.8 78 27.2C78 27 78 27 77.8 27C77.2 27 76.6 27 76 27C75.6 27 75.2 26.9 74.9 26.8C74.4 26.6 73.9 26.3 73.6 25.9C73.3 25.5 73.1 25 73 24.5C73 24.2 73 23.8 73 23.5C73 23.2 73.1 22.9 73.2 22.6C73.3 22.2 73.6 21.9 73.9 21.7C74.2 21.5 74.5 21.3 74.9 21.2C75.4 21.1 76 21 76.5 21C76.8 21 77.2 21 77.5 21C77.6 21 77.6 21 77.6 21.1C77.7 21.4 77.8 21.6 77.9 21.9C77.9 22 77.9 22 77.8 22C77.3 22 76.8 22 76.3 22C75.9 22 75.5 22 75.2 22.1C74.8 22.2 74.5 22.5 74.2 22.8C73.9 23.3 73.8 23.8 73.8 24.3C73.8 24.7 74 25 74.2 25.3C74.5 25.6 74.8 25.8 75.2 25.9C75.9 26.1 76.6 26.1 77.3 26.1C77.8 26.1 78.3 26.1 78.8 26.1C78.9 26.1 78.9 26.1 78.9 26.2C78.9 26.4 78.9 26.6 78.9 26.8C78.9 27.4 78.9 28 78.9 28.6C78.9 29 78.9 29.4 79 29.9C79.1 30.2 79.2 30.5 79.4 30.7C79.6 30.9 79.9 31.1 80.2 31.2C80.7 31.3 81.3 31.3 81.8 31.2C82.1 31.1 82.4 30.9 82.6 30.6C82.8 30.4 82.9 30.1 83 29.8C83.1 29.3 83.1 28.9 83 28.4C82.9 28.1 82.9 27.8 82.7 27.5C82.6 27.1 82.4 26.8 82.2 26.5C82 26.2 81.8 26 81.6 25.7C81.2 25.3 80.9 24.8 80.5 24.4C80.2 24.1 80 23.7 79.7 23.4C79.4 23 79.1 22.6 78.9 22.2C79.2 21.7 79.2 21.7 79.1 21.6Z" fill="white"/>
</g>
</svg>
