<svg width="50" height="30" viewBox="0 0 50 30" fill="none" xmlns="http://www.w3.org/2000/svg">
<g clip-path="url(#clip0)">
<path d="M26.4 26.7999C22 23.9999 17.5 21.6 12.2 20.9C12.2 16.8 12.2 12.8 12.2 8.79995C17.5 8.09995 22 5.59995 26.4 2.69995C26.4 10.8 26.4 18.7999 26.4 26.7999Z" fill="black"/>
<path d="M9.90001 8.79995C9.90001 12.9 9.90001 16.9 9.90001 21.1C8.00001 21 6.20001 21.1 4.50001 20.7C1.50001 20 -0.299992 17.1 7.91252e-06 14C0.400008 11.1 2.90001 8.79995 5.80001 8.69995C7.20001 8.79995 8.50001 8.79995 9.90001 8.79995Z" fill="black"/>
<path d="M31.9 14.7C31.9 19 31.9 23.4 31.9 27.7C31.9 28.8 31.1 29.5 30 29.3C29.2 29.2 28.7 28.6 28.7 27.7C28.7 24.8 28.7 22 28.7 19.1C28.7 13.3 28.7 7.5 28.7 1.7C28.7 0.6 29.3 0 30.2 0C31.2 0 31.7999 0.6 31.7999 1.6C31.8999 6 31.9 10.4 31.9 14.7Z" fill="black"/>
<path d="M48.9 25.2C48.7 25.1 48.6 25.1 48.5 25C46.1 23.2 43.8 21.3 41.4 19.5C41 19.2 41 19 41.2 18.7C41.4 18.5 41.6 18.4 41.9 18.7C44.3 20.5 46.6 22.4 49 24.2C49.2 24.3 49.4 24.5 49.2 24.8C49.1 24.9 49 25 48.9 25.2Z" fill="black"/>
<path d="M41.5 10.6999C41.4 10.5999 41.2 10.4999 41.1 10.2999C41.1 10.0999 41.1 9.89994 41.3 9.79994C41.8 9.29994 42.4 8.89994 42.9 8.49994C44.7 7.09994 46.5 5.69994 48.4 4.19994C48.6 4.09994 48.8 3.99994 49 4.19994C49.3 4.39994 49.3 4.69994 49 4.99994C48.4 5.49994 47.8 5.89994 47.2 6.39994C45.5 7.79994 43.7 9.09994 42 10.4999C41.8 10.4999 41.7 10.5999 41.5 10.6999Z" fill="black"/>
<path d="M45.4 15.1C44.4 15.1 43.3 15.1 42.3 15.1C42.2 15.1 42.2 15.1 42.1 15.1C41.7 15.1 41.5 14.9 41.5 14.6C41.5 14.3 41.7 14.2 42.1 14.2C44.3 14.2 46.5 14.2 48.7 14.2C49 14.2 49.2 14.4 49.2 14.7C49.2 15 49 15.1 48.7 15.1C47.6 15.1 46.5 15 45.4 15.1Z" fill="black"/>
<path d="M33.9 14.6C33.9 13.7 33.9 12.9 33.9 12C33.9 11.4 34.2 11.2 34.8 11.5C35 11.6 35.3 11.8 35.5 12C36.9 13.5 36.7 16.4 35.1 17.7C34.9 17.9 34.5 18 34.2 17.9C34.1 17.9 34 17.4 34 17.2C33.9 16.3 33.9 15.5 33.9 14.6Z" fill="black"/>
</g>
<defs>
<clipPath id="clip0">
<rect width="49.3" height="29.3" fill="white"/>
</clipPath>
</defs>
</svg>
