<svg width="68" height="46" viewBox="0 0 68 46" fill="none" xmlns="http://www.w3.org/2000/svg">
<g clip-path="url(#clip0)">
<path d="M50.6 0.500015C44.7 1.60002 39 4.50001 34.4 8.40001C29.8 12.3 26.1 17.3 23.3 22.4C22.1 24.6 21.1 26.9 20.2 29.3C18.8 27.8 17.2 26.3 15.5 25C13.2 23.2 10.8 21.7 8.2 20.6C5.6 19.5 2.8 18.7 0 18.8C2.3 20.2 4.3 22 6 23.8C7.7 25.6 9.3 27.6 10.7 29.6C12.1 31.6 13.4 33.7 14.6 35.9C15.2 37 15.7 38.1 16.3 39.2C16.8 40.3 17.4 41.4 17.9 42.5C18.4 43.7 19.4 44.7 20.8 45.1C23.3 45.9 26 44.6 26.9 42.1L27.2 41.2L27.7 39.6C27.9 39 28.1 38.4 28.3 37.9C28.8 36.7 29.2 35.6 29.7 34.4C30.7 32.1 31.7 29.8 32.9 27.7C35.2 23.3 38 19.3 41.2 15.7C44.4 12.1 48.2 9.10002 52.6 6.90002C54.8 5.80002 57.2 4.80002 59.7 4.00002C62.2 3.20002 64.9 2.60002 67.7 2.10002C62.5 0.100015 56.5 -0.599985 50.6 0.500015Z" fill="#3FD15B"/>
</g>
<defs>
<clipPath id="clip0">
<rect width="67.7" height="45.4" fill="white"/>
</clipPath>
</defs>
</svg>
